<?xml version="1.0" encoding="UTF-8"?>
<!DOCTYPE svg PUBLIC "-//W3C//DTD SVG 1.1//EN" "http://www.w3.org/Graphics/SVG/1.1/DTD/svg11.dtd">
<svg xmlns="http://www.w3.org/2000/svg" version="1.1" width="3600px" height="1620px" style="shape-rendering:geometricPrecision; text-rendering:geometricPrecision; image-rendering:optimizeQuality; fill-rule:evenodd; clip-rule:evenodd" xmlns:xlink="http://www.w3.org/1999/xlink">
<g><path style="opacity:1" fill="#000000" d="M -0.5,-0.5 C 1199.5,-0.5 2399.5,-0.5 3599.5,-0.5C 3599.5,539.5 3599.5,1079.5 3599.5,1619.5C 2399.5,1619.5 1199.5,1619.5 -0.5,1619.5C -0.5,1079.5 -0.5,539.5 -0.5,-0.5 Z"/></g>
<g><path style="opacity:1" fill="#fd46b7" d="M 1647.5,63.5 C 1699.48,59.3974 1736.65,80.7307 1759,127.5C 1768.37,153.312 1770.03,179.645 1764,206.5C 1747.01,271.013 1709.84,320.179 1652.5,354C 1589.39,388.864 1521.73,407.364 1449.5,409.5C 1449.18,407.278 1449.84,405.444 1451.5,404C 1483.12,391.452 1510.29,372.619 1533,347.5C 1546.03,331.093 1554.03,312.426 1557,291.5C 1558.28,252.524 1558.94,213.524 1559,174.5C 1560.08,145.931 1569.08,120.264 1586,97.5C 1602.72,79.2257 1623.22,67.8924 1647.5,63.5 Z"/></g>
<g><path style="opacity:1" fill="#fe7200" d="M 2325.5,80.5 C 2371.91,77.4688 2410.07,93.4688 2440,128.5C 2445.65,136.491 2449.98,145.157 2453,154.5C 2458.43,178.478 2449.93,195.311 2427.5,205C 2414.44,208.955 2401.1,211.622 2387.5,213C 2333.6,214.484 2280.6,222.15 2228.5,236C 2200.92,243.524 2174.75,254.357 2150,268.5C 2158.92,221.334 2178.59,179.334 2209,142.5C 2240.1,107.202 2278.93,86.535 2325.5,80.5 Z"/></g>
<g><path style="opacity:1" fill="#66d9e4" d="M 1250.5,104.5 C 1252.29,107.259 1252.79,110.259 1252,113.5C 1248.93,116.941 1245.43,119.775 1241.5,122C 1242.32,123.49 1243.15,124.99 1244,126.5C 1250.28,123.891 1254.94,119.558 1258,113.5C 1258.97,109.104 1258.14,105.104 1255.5,101.5C 1257.67,99.9138 1260,98.5804 1262.5,97.5C 1267.17,105.426 1273.83,107.592 1282.5,104C 1285.17,102 1287.83,100 1290.5,98C 1289.21,96.5905 1288.05,95.0905 1287,93.5C 1282.98,98.5927 1277.82,100.426 1271.5,99C 1269.86,97.871 1268.86,96.371 1268.5,94.5C 1301.84,79.6391 1335.84,77.8058 1370.5,89C 1398.7,102.697 1412.36,125.364 1411.5,157C 1411.5,181.854 1406,205.354 1395,227.5C 1380.17,250.333 1361.33,269.167 1338.5,284C 1300.75,308.042 1261.09,328.709 1219.5,346C 1164.24,371.874 1115.41,406.707 1073,450.5C 1080.68,362.127 1108.68,280.794 1157,206.5C 1175.11,176.501 1196.95,149.334 1222.5,125C 1231.43,117.562 1240.76,110.729 1250.5,104.5 Z"/></g>
<g><path style="opacity:1" fill="#b82436" d="M 1268.5,94.5 C 1268.86,96.371 1269.86,97.871 1271.5,99C 1277.82,100.426 1282.98,98.5927 1287,93.5C 1288.05,95.0905 1289.21,96.5905 1290.5,98C 1287.83,100 1285.17,102 1282.5,104C 1273.83,107.592 1267.17,105.426 1262.5,97.5C 1261.51,95.5266 1260.51,93.5266 1259.5,91.5C 1260.91,90.376 1262.41,89.376 1264,88.5C 1265.28,90.7472 1266.78,92.7472 1268.5,94.5 Z"/></g>
<g><path style="opacity:1" fill="#f2cbd8" d="M 741.5,91.5 C 749.122,91.9255 751.622,95.5922 749,102.5C 740.308,107.302 736.641,104.635 738,94.5C 739.145,93.3636 740.312,92.3636 741.5,91.5 Z"/></g>
<g><path style="opacity:1" fill="#fecb00" d="M 2686.5,93.5 C 2714.36,90.0194 2736.19,99.6861 2752,122.5C 2765.64,150.613 2761.14,175.446 2738.5,197C 2730.36,203.126 2721.7,208.46 2712.5,213C 2649.48,239.451 2583.81,254.118 2515.5,257C 2545.25,211.221 2579.58,168.887 2618.5,130C 2638.21,112.313 2660.87,100.146 2686.5,93.5 Z"/></g>
<g><path style="opacity:1" fill="#b82336" d="M 1255.5,101.5 C 1258.14,105.104 1258.97,109.104 1258,113.5C 1254.94,119.558 1250.28,123.891 1244,126.5C 1243.15,124.99 1242.32,123.49 1241.5,122C 1245.43,119.775 1248.93,116.941 1252,113.5C 1252.79,110.259 1252.29,107.259 1250.5,104.5C 1249.19,102.852 1247.86,101.186 1246.5,99.5C 1247.58,97.2163 1249.25,96.0496 1251.5,96C 1252.66,97.9917 1254,99.825 1255.5,101.5 Z"/></g>
<g><path style="opacity:1" fill="#c10001" d="M 419.5,106.5 C 472.226,102.565 516.392,119.899 552,158.5C 581.791,202.874 597.791,251.874 600,305.5C 600.196,334.846 600.863,364.18 602,393.5C 602.874,418.666 609.208,442.333 621,464.5C 625.23,471.12 630.063,477.287 635.5,483C 621.902,479.019 608.569,474.019 595.5,468C 529.085,437.65 466.751,400.983 408.5,358C 389.104,343.019 370.937,326.519 354,308.5C 320.681,272.232 309.014,229.898 319,181.5C 331.068,148.191 353.901,125.691 387.5,114C 398.107,110.65 408.774,108.15 419.5,106.5 Z"/></g>
<g><path style="opacity:1" fill="#b92135" d="M 1288.5,128.5 C 1288.69,130.196 1289.52,131.529 1291,132.5C 1291.72,135.125 1290.72,136.792 1288,137.5C 1286.65,135.982 1285.15,134.649 1283.5,133.5C 1276.74,120.686 1280.24,112.02 1294,107.5C 1296.05,108.638 1296.71,110.305 1296,112.5C 1291.67,113.988 1288.34,116.654 1286,120.5C 1285.02,123.817 1285.86,126.484 1288.5,128.5 Z"/></g>
<g><path style="opacity:1" fill="#c00101" d="M 1875.5,107.5 C 1904,104.213 1922.17,116.213 1930,143.5C 1931.49,154.203 1929.49,164.203 1924,173.5C 1906.62,199.396 1886.45,223.063 1863.5,244.5C 1854.12,216.835 1847.28,188.502 1843,159.5C 1840.6,133.763 1851.43,116.43 1875.5,107.5 Z"/></g>
<g><path style="opacity:1" fill="#fdca00" d="M 744.5,111.5 C 747.988,112.143 750.488,114.143 752,117.5C 766.069,140.059 779.902,162.725 793.5,185.5C 793.333,186.167 793.167,186.833 793,187.5C 771.167,204.667 749.333,221.833 727.5,239C 725.194,241.139 722.527,242.639 719.5,243.5C 697.044,224.212 675.378,204.045 654.5,183C 655.044,181.053 656.377,180.22 658.5,180.5C 671.536,182.807 684.536,185.307 697.5,188C 700.76,188.784 703.927,188.617 707,187.5C 707.667,185.833 707.667,184.167 707,182.5C 702.333,167.833 697.667,153.167 693,138.5C 691.833,134.333 693.333,132.833 697.5,134C 710.998,142.916 724.664,151.583 738.5,160C 739.833,160.667 741.167,160.667 742.5,160C 743.174,143.834 743.84,127.667 744.5,111.5 Z"/></g>
<g><path style="opacity:1" fill="#f5cedb" d="M 681.5,116.5 C 687.077,115.444 690.411,117.611 691.5,123C 690.665,129.039 687.332,131.039 681.5,129C 677.547,124.835 677.547,120.669 681.5,116.5 Z"/></g>
<g><path style="opacity:1" fill="#030505" d="M 1313.5,152.5 C 1313.14,150.629 1312.14,149.129 1310.5,148C 1300.94,146.556 1297.44,150.39 1300,159.5C 1304.43,163.376 1308.93,163.376 1313.5,159.5C 1309.78,169.223 1302.78,174.89 1292.5,176.5C 1285.44,176.142 1280.78,172.642 1278.5,166C 1276.57,160.305 1276.07,154.471 1277,148.5C 1278.69,143.265 1280.85,138.265 1283.5,133.5C 1285.15,134.649 1286.65,135.982 1288,137.5C 1290.72,136.792 1291.72,135.125 1291,132.5C 1289.52,131.529 1288.69,130.196 1288.5,128.5C 1292.46,124.011 1297.46,122.177 1303.5,123C 1308.13,131.086 1312.63,139.253 1317,147.5C 1316.98,150.57 1316.32,153.57 1315,156.5C 1314.79,154.942 1314.29,153.609 1313.5,152.5 Z"/></g>
<g><path style="opacity:1" fill="#050203" d="M 1638.5,124.5 C 1652.69,124.52 1659.69,131.687 1659.5,146C 1659.37,158.248 1654.71,168.248 1645.5,176C 1633.06,182.295 1624.56,178.795 1620,165.5C 1617.03,147.46 1623.19,133.793 1638.5,124.5 Z"/></g>
<g><path style="opacity:1" fill="#bb2337" d="M 1259.5,127.5 C 1269.16,127.478 1275.5,132.145 1278.5,141.5C 1277.09,142.624 1275.59,143.624 1274,144.5C 1268.96,131.804 1261.46,130.137 1251.5,139.5C 1249.86,138.084 1249.03,136.417 1249,134.5C 1252.15,131.488 1255.65,129.155 1259.5,127.5 Z"/></g>
<g><path style="opacity:1" fill="#01c064" d="M 2117.5,129.5 C 2119.5,129.5 2121.5,129.5 2123.5,129.5C 2142.39,203.581 2115.39,251.081 2042.5,272C 2039.15,272.455 2035.81,272.955 2032.5,273.5C 2014.67,197.79 2043,149.79 2117.5,129.5 Z"/></g>
<g><path style="opacity:1" fill="#66d8e4" d="M 2846.5,135.5 C 2848.83,135.5 2851.17,135.5 2853.5,135.5C 2855.54,156.855 2850.38,176.189 2838,193.5C 2821.99,207.724 2803.16,214.724 2781.5,214.5C 2778.02,167.005 2799.69,140.672 2846.5,135.5 Z"/></g>
<g><path style="opacity:1" fill="#040203" d="M 1690.5,143.5 C 1701.92,142.29 1708.76,147.29 1711,158.5C 1713.42,174.935 1707.92,187.768 1694.5,197C 1681.41,199.877 1673.91,194.711 1672,181.5C 1669.95,164.611 1676.11,151.944 1690.5,143.5 Z"/></g>
<g><path style="opacity:1" fill="#fafafa" d="M 1313.5,152.5 C 1313.5,154.833 1313.5,157.167 1313.5,159.5C 1308.93,163.376 1304.43,163.376 1300,159.5C 1297.44,150.39 1300.94,146.556 1310.5,148C 1312.14,149.129 1313.14,150.629 1313.5,152.5 Z"/></g>
<g><path style="opacity:1" fill="#030505" d="M 1360.5,147.5 C 1362.02,147.511 1363.18,148.177 1364,149.5C 1370.61,162.977 1369.61,175.977 1361,188.5C 1354.77,197.133 1346.6,199.966 1336.5,197C 1328.91,190.241 1326.08,181.741 1328,171.5C 1329.25,166.742 1331.08,162.242 1333.5,158C 1342.8,154.962 1351.8,151.462 1360.5,147.5 Z"/></g>
<g><path style="opacity:1" fill="#f5f5f5" d="M 1625.5,149.5 C 1633.53,148.922 1637.03,152.588 1636,160.5C 1630.87,167.075 1625.87,167.075 1621,160.5C 1619.39,155.438 1620.89,151.772 1625.5,149.5 Z"/></g>
<g><path style="opacity:1" fill="#f9f9f9" d="M 1355.5,165.5 C 1361.76,164.261 1365.42,166.761 1366.5,173C 1365.01,179.418 1361.01,181.751 1354.5,180C 1348.88,174.595 1349.21,169.762 1355.5,165.5 Z"/></g>
<g><path style="opacity:1" fill="#f5f5f5" d="M 1677.5,167.5 C 1685.66,166.823 1689.16,170.49 1688,178.5C 1682.58,185.433 1677.58,185.1 1673,177.5C 1672.08,173.017 1673.58,169.683 1677.5,167.5 Z"/></g>
<g><path style="opacity:1" fill="#f4cdda" d="M 639.5,170.5 C 648.807,169.953 651.474,173.787 647.5,182C 639.246,185.081 635.746,182.248 637,173.5C 638.045,172.627 638.878,171.627 639.5,170.5 Z"/></g>
<g><path style="opacity:1" fill="#01c164" d="M 2997.5,188.5 C 3062.39,188.048 3101.22,219.715 3114,283.5C 3117.23,345.145 3098.56,399.145 3058,445.5C 3018.69,486.257 2972.19,516.091 2918.5,535C 2888.64,546.132 2857.97,553.799 2826.5,558C 2825.17,556.667 2825.17,555.333 2826.5,554C 2851.09,540.778 2872.59,523.612 2891,502.5C 2913.96,474.591 2922.96,442.591 2918,406.5C 2915.99,386.075 2913.32,365.742 2910,345.5C 2908.81,330.352 2907.98,315.185 2907.5,300C 2908.03,238.666 2938.03,201.499 2997.5,188.5 Z"/></g>
<g><path style="opacity:1" fill="#1b1e1d" d="M 1292.5,192.5 C 1287.32,192.444 1284.49,195.11 1284,200.5C 1280.56,203.047 1278.4,206.38 1277.5,210.5C 1276.78,202.769 1279.78,196.603 1286.5,192C 1288.71,191.211 1290.71,191.378 1292.5,192.5 Z"/></g>
<g><path style="opacity:1" fill="#f7f7f7" d="M 1292.5,192.5 C 1294.18,194.008 1296.18,195.008 1298.5,195.5C 1298.97,196.906 1299.97,197.573 1301.5,197.5C 1301.97,198.906 1302.97,199.573 1304.5,199.5C 1305.66,201.25 1307.33,202.25 1309.5,202.5C 1311.34,204.588 1313.67,205.921 1316.5,206.5C 1321.07,209.616 1326.07,211.95 1331.5,213.5C 1330,216.995 1327.66,219.829 1324.5,222C 1325.95,225.028 1325.28,227.528 1322.5,229.5C 1321.38,228.37 1320.04,227.703 1318.5,227.5C 1318.03,226.094 1317.03,225.427 1315.5,225.5C 1312.09,222.46 1308.09,220.46 1303.5,219.5C 1302.79,218.596 1301.79,218.263 1300.5,218.5C 1295.17,216.08 1289.5,214.413 1283.5,213.5C 1281.82,211.992 1279.82,210.992 1277.5,210.5C 1278.4,206.38 1280.56,203.047 1284,200.5C 1284.49,195.11 1287.32,192.444 1292.5,192.5 Z"/></g>
<g><path style="opacity:1" fill="#435657" d="M 1292.5,192.5 C 1295.09,192.461 1297.09,193.461 1298.5,195.5C 1296.18,195.008 1294.18,194.008 1292.5,192.5 Z"/></g>
<g><path style="opacity:1" fill="#2d3b3a" d="M 1298.5,195.5 C 1300.03,195.427 1301.03,196.094 1301.5,197.5C 1299.97,197.573 1298.97,196.906 1298.5,195.5 Z"/></g>
<g><path style="opacity:1" fill="#2c3a3a" d="M 1301.5,197.5 C 1303.03,197.427 1304.03,198.094 1304.5,199.5C 1302.97,199.573 1301.97,198.906 1301.5,197.5 Z"/></g>
<g><path style="opacity:1" fill="#030102" d="M 1631.5,199.5 C 1637.51,199.801 1643.51,200.301 1649.5,201C 1658.35,205.258 1667.35,209.258 1676.5,213C 1688.19,213.951 1699.86,214.951 1711.5,216C 1712.89,216.956 1713.56,218.289 1713.5,220C 1711.72,227.401 1708.22,233.901 1703,239.5C 1698.93,243.849 1694.76,248.016 1690.5,252C 1683.61,256.973 1675.94,258.973 1667.5,258C 1661.88,254.045 1656.54,249.712 1651.5,245C 1643.87,239.902 1635.54,236.568 1626.5,235C 1619.83,234.667 1613.17,234.333 1606.5,234C 1603.74,231.005 1602.9,227.505 1604,223.5C 1609.7,211.288 1618.87,203.288 1631.5,199.5 Z"/></g>
<g><path style="opacity:1" fill="#fe46b7" d="M 817.5,205.5 C 856.281,202.691 890.947,213.191 921.5,237C 965.23,274.266 992.064,321.432 1002,378.5C 1008.46,428.121 1004.12,476.787 989,524.5C 971.924,577.82 947.091,626.987 914.5,672C 904.128,677.223 896.295,674.723 891,664.5C 891.805,658.198 892.638,651.865 893.5,645.5C 892.362,628.25 887.862,611.917 880,596.5C 864.582,565.102 845.249,536.436 822,510.5C 798.697,484.864 774.364,460.197 749,436.5C 729.392,414.624 716.059,389.291 709,360.5C 700.241,290.952 727.741,241.785 791.5,213C 800.126,209.849 808.792,207.349 817.5,205.5 Z"/></g>
<g><path style="opacity:1" fill="#3b4f4f" d="M 1309.5,202.5 C 1312.33,203.079 1314.66,204.412 1316.5,206.5C 1313.67,205.921 1311.34,204.588 1309.5,202.5 Z"/></g>
<g><path style="opacity:1" fill="#424b4a" d="M 1277.5,210.5 C 1279.82,210.992 1281.82,211.992 1283.5,213.5C 1280.91,213.539 1278.91,212.539 1277.5,210.5 Z"/></g>
<g><path style="opacity:1" fill="#364748" d="M 1283.5,213.5 C 1289.5,214.413 1295.17,216.08 1300.5,218.5C 1294.41,217.899 1288.74,216.232 1283.5,213.5 Z"/></g>
<g><path style="opacity:1" fill="#242d2c" d="M 1331.5,213.5 C 1333.23,213.843 1333.73,214.843 1333,216.5C 1329.72,220.726 1327.22,225.393 1325.5,230.5C 1325.53,232.029 1326.2,233.196 1327.5,234C 1326.83,234.667 1326.17,234.667 1325.5,234C 1323.09,231.817 1320.76,229.65 1318.5,227.5C 1320.04,227.703 1321.38,228.37 1322.5,229.5C 1325.28,227.528 1325.95,225.028 1324.5,222C 1327.66,219.829 1330,216.995 1331.5,213.5 Z"/></g>
<g><path style="opacity:1" fill="#010201" d="M 3038.5,218.5 C 3048.16,219.327 3055.33,223.994 3060,232.5C 3064.66,242.122 3065.66,252.122 3063,262.5C 3057.41,273.476 3049.24,275.976 3038.5,270C 3024.28,257.034 3021.11,241.867 3029,224.5C 3031.84,221.837 3035.01,219.837 3038.5,218.5 Z"/></g>
<g><path style="opacity:1" fill="#3e4b4b" d="M 1303.5,219.5 C 1308.09,220.46 1312.09,222.46 1315.5,225.5C 1311.18,224.008 1307.18,222.008 1303.5,219.5 Z"/></g>
<g><path style="opacity:1" fill="#020302" d="M 2958.5,236.5 C 2968.45,235.953 2975.95,239.953 2981,248.5C 2987.9,260.681 2988.24,273.014 2982,285.5C 2974.93,291.506 2967.43,292.006 2959.5,287C 2945.52,273.259 2943.02,257.759 2952,240.5C 2954.09,238.875 2956.26,237.542 2958.5,236.5 Z"/></g>
<g><path style="opacity:1" fill="#e58efd" d="M 2360.5,244.5 C 2423.22,240.754 2479.56,257.587 2529.5,295C 2550.78,311.75 2566.62,332.583 2577,357.5C 2590.91,397.462 2584.58,433.796 2558,466.5C 2532.55,492.209 2501.71,503.042 2465.5,499C 2440.13,493.567 2418.96,481.067 2402,461.5C 2381.78,436.728 2363.78,410.395 2348,382.5C 2337.45,364.606 2324.62,348.439 2309.5,334C 2289.61,319.256 2267.28,310.589 2242.5,308C 2218.39,305.689 2194.39,306.523 2170.5,310.5C 2170.29,308.856 2170.62,307.356 2171.5,306C 2230.12,271.736 2293.12,251.236 2360.5,244.5 Z"/></g>
<g><path style="opacity:1" fill="#040102" d="M 846.5,246.5 C 863.801,245.631 876.301,252.964 884,268.5C 889.959,279.86 889.959,291.194 884,302.5C 877.482,308.583 869.982,310.083 861.5,307C 841.359,297.558 832.526,281.724 835,259.5C 837.3,253.706 841.133,249.373 846.5,246.5 Z"/></g>
<g><path style="opacity:1" fill="#fdca00" d="M 1917.5,246.5 C 1929.52,245.515 1941.19,247.015 1952.5,251C 1965.23,256.408 1971.56,266.075 1971.5,280C 1970.38,296.711 1964.54,311.544 1954,324.5C 1936.53,345.314 1916.03,362.481 1892.5,376C 1861.5,391.776 1829.17,403.776 1795.5,412C 1794.48,410.951 1794.32,409.784 1795,408.5C 1808.92,381.656 1822.59,354.656 1836,327.5C 1848.96,301.527 1866.79,279.36 1889.5,261C 1898.09,254.541 1907.42,249.707 1917.5,246.5 Z"/></g>
<g><path style="opacity:1" fill="#f5f5f5" d="M 3036.5,245.5 C 3046.05,245.288 3049.22,249.622 3046,258.5C 3040.56,262.926 3035.89,262.259 3032,256.5C 3031.3,251.907 3032.8,248.241 3036.5,245.5 Z"/></g>
<g><path style="opacity:1" fill="#f9f9f9" d="M 2957.5,261.5 C 2965.17,260.024 2969,263.024 2969,270.5C 2967.54,276.059 2964.04,277.892 2958.5,276C 2952.21,271.663 2951.87,266.829 2957.5,261.5 Z"/></g>
<g><path style="opacity:1" fill="#fe7200" d="M 2794.5,267.5 C 2806.01,266.95 2816.35,270.116 2825.5,277C 2843.26,293.341 2854.09,313.507 2858,337.5C 2863.42,390.249 2846.25,434.083 2806.5,469C 2773.38,495.874 2735.38,511.208 2692.5,515C 2661.16,518.121 2630.16,516.121 2599.5,509C 2632.31,483.848 2660.47,454.348 2684,420.5C 2708.52,384.813 2730.52,347.48 2750,308.5C 2757.3,295.202 2766.8,283.702 2778.5,274C 2783.74,271.315 2789.08,269.148 2794.5,267.5 Z"/></g>
<g><path style="opacity:1" fill="#f9f9f9" d="M 853.5,275.5 C 861.712,274.226 865.546,277.559 865,285.5C 862.565,290.224 858.731,291.724 853.5,290C 848.232,285.171 848.232,280.337 853.5,275.5 Z"/></g>
<g><path style="opacity:1" fill="#66d8e4" d="M 2096.5,296.5 C 2121.52,293.105 2141.02,301.771 2155,322.5C 2161.85,336.888 2160.52,350.554 2151,363.5C 2141.77,374.708 2130.27,382.875 2116.5,388C 2089.04,398.062 2060.7,401.395 2031.5,398C 2010.31,395.719 1989.48,391.886 1969,386.5C 1968.73,383.72 1969.9,381.554 1972.5,380C 1996.13,359.524 2020.13,339.524 2044.5,320C 2060.56,309.134 2077.89,301.301 2096.5,296.5 Z"/></g>
<g><path style="opacity:1" fill="#000301" d="M 3044.5,307.5 C 3047.12,307.232 3049.62,307.565 3052,308.5C 3054.3,325.618 3048.47,339.118 3034.5,349C 3006.51,358.049 2989.51,348.049 2983.5,319C 2983.83,318.667 2984.17,318.333 2984.5,318C 3004.69,314.802 3024.69,311.302 3044.5,307.5 Z"/></g>
<g><path style="opacity:1" fill="#020101" d="M 759.5,310.5 C 774.303,310.483 785.47,316.817 793,329.5C 799.924,340.173 801.257,351.506 797,363.5C 791.257,371.776 783.424,374.61 773.5,372C 752.878,362.368 743.711,346.201 746,323.5C 748.442,316.888 752.942,312.555 759.5,310.5 Z"/></g>
<g><path style="opacity:1" fill="#f4f4f4" d="M 763.5,340.5 C 771.665,339.175 775.498,342.509 775,350.5C 770.09,358.393 765.09,358.393 760,350.5C 759.182,346.469 760.349,343.136 763.5,340.5 Z"/></g>
<g><path style="opacity:1" fill="#10050b" d="M 906.5,351.5 C 908.384,351.712 909.717,352.712 910.5,354.5C 898.891,390.113 874.891,412.113 838.5,420.5C 835.994,420.779 833.994,419.946 832.5,418C 862.219,412.597 884.386,396.763 899,370.5C 902.067,364.37 904.567,358.036 906.5,351.5 Z"/></g>
<g><path style="opacity:1" fill="#060507" d="M 2472.5,353.5 C 2483.69,352.518 2489.35,357.685 2489.5,369C 2488.68,377.808 2485.01,385.141 2478.5,391C 2469.52,396.869 2462.68,395.036 2458,385.5C 2455.62,371.43 2460.46,360.763 2472.5,353.5 Z"/></g>
<g><path style="opacity:1" fill="#fafafa" d="M 2474.5,359.5 C 2480.3,359.81 2482.47,362.81 2481,368.5C 2475.77,373.154 2472.27,372.154 2470.5,365.5C 2470.67,362.674 2472,360.674 2474.5,359.5 Z"/></g>
<g><path style="opacity:1" fill="#060407" d="M 2535.5,379.5 C 2542.49,379.076 2547.32,382.076 2550,388.5C 2551.99,400.337 2548.49,410.17 2539.5,418C 2529.7,423.262 2522.86,420.762 2519,410.5C 2517.71,396.415 2523.21,386.081 2535.5,379.5 Z"/></g>
<g><path style="opacity:1" fill="#a6a88e" d="M 278.5,382.5 C 279.306,383.997 279.972,385.664 280.5,387.5C 282.167,388.667 283.833,389.833 285.5,391C 281.547,391.953 279.381,394.453 279,398.5C 278.463,393.963 275.963,391.463 271.5,391C 275.837,389.829 278.17,386.996 278.5,382.5 Z"/></g>
<g><path style="opacity:1" fill="#e58efe" d="M 1297.5,385.5 C 1319.68,383.388 1341.01,386.555 1361.5,395C 1388.01,409.856 1398.51,432.356 1393,462.5C 1387.35,478.154 1377.85,490.987 1364.5,501C 1349.68,512.248 1334.01,522.248 1317.5,531C 1289.06,547.438 1264.22,568.271 1243,593.5C 1228.33,612.836 1217.33,634.17 1210,657.5C 1201.83,664.021 1195.83,662.355 1192,652.5C 1177.65,612.647 1172.65,571.647 1177,529.5C 1183.76,485.479 1202.59,447.646 1233.5,416C 1251.91,399.627 1273.25,389.46 1297.5,385.5 Z"/></g>
<g><path style="opacity:1" fill="#f4f4f4" d="M 2534.5,386.5 C 2541.87,385.529 2544.54,388.529 2542.5,395.5C 2538.19,399.613 2534.69,398.946 2532,393.5C 2531.33,392.167 2531.33,390.833 2532,389.5C 2533.04,388.627 2533.88,387.627 2534.5,386.5 Z"/></g>
<g><path style="opacity:1" fill="#dbba7f" d="M 286.5,402.5 C 287.575,408.917 291.241,413.25 297.5,415.5C 291.252,417.584 287.752,421.917 287,428.5C 286.284,425.28 285.117,422.28 283.5,419.5C 280.787,418.095 278.121,416.595 275.5,415C 282.563,413.773 286.23,409.606 286.5,402.5 Z"/></g>
<g><path style="opacity:1" fill="#050305" d="M 2475.5,419.5 C 2483.38,418.5 2490.71,420 2497.5,424C 2503.27,428.369 2504.77,433.869 2502,440.5C 2492.8,447.129 2483.64,446.962 2474.5,440C 2466.24,432.595 2466.58,425.762 2475.5,419.5 Z"/></g>
<g><path style="opacity:1" fill="#fd7200" d="M 1456.5,449.5 C 1458.4,449.204 1460.07,448.537 1461.5,447.5C 1503.89,436.768 1546.89,429.268 1590.5,425C 1618.62,422.093 1645.96,425.426 1672.5,435C 1713.2,452.897 1726.03,482.73 1711,524.5C 1700.39,541.731 1684.89,551.231 1664.5,553C 1656.47,553.522 1648.47,553.189 1640.5,552C 1571.3,530.241 1508.3,497.241 1451.5,453C 1450.4,450.609 1451.06,450.109 1453.5,451.5C 1454.52,450.807 1455.52,450.141 1456.5,449.5 Z"/></g>
<g><path style="opacity:1" fill="#dab87e" d="M 385.5,432.5 C 387.437,434.091 389.437,435.758 391.5,437.5C 389.5,438.833 387.833,440.5 386.5,442.5C 385.001,439.667 382.667,438.001 379.5,437.5C 382.75,437.215 384.75,435.548 385.5,432.5 Z"/></g>
<g><path style="opacity:1" fill="#fd46b6" d="M 1912.5,438.5 C 1939.39,436.858 1958.55,448.191 1970,472.5C 1973.05,491.914 1966.55,507.414 1950.5,519C 1935.27,528.979 1918.61,535.313 1900.5,538C 1878.02,540.422 1855.69,539.422 1833.5,535C 1822.13,532.793 1810.8,530.46 1799.5,528C 1796.46,527.202 1793.62,526.035 1791,524.5C 1792.24,521.224 1794.4,518.391 1797.5,516C 1818.54,497.293 1839.87,478.959 1861.5,461C 1877.08,450.092 1894.08,442.592 1912.5,438.5 Z"/></g>
<g><path style="opacity:1" fill="#f645ad" d="M 1461.5,447.5 C 1460.07,448.537 1458.4,449.204 1456.5,449.5C 1457.64,447.787 1459.3,447.12 1461.5,447.5 Z"/></g>
<g><path style="opacity:1" fill="#c10101" d="M 2184.5,471.5 C 2204.84,471.333 2225.17,471.5 2245.5,472C 2270.5,473.583 2294.5,479.249 2317.5,489C 2336.66,497.159 2351.82,509.993 2363,527.5C 2376.94,555.862 2375.27,583.195 2358,609.5C 2334.58,634.067 2306.41,641.567 2273.5,632C 2228.67,614.087 2186.33,591.754 2146.5,565C 2113.08,542.357 2081.58,517.191 2052,489.5C 2051.76,487.275 2052.59,486.942 2054.5,488.5C 2060.84,485.727 2067.51,483.894 2074.5,483C 2111.12,477.396 2147.79,473.562 2184.5,471.5 Z"/></g>
<g><path style="opacity:1" fill="#b3b699" d="M 486.5,473.5 C 487.956,476.614 489.122,479.948 490,483.5C 494.221,490.2 500.388,493.7 508.5,494C 495.805,495.198 488.472,502.031 486.5,514.5C 484.499,502 477.166,495.167 464.5,494C 469.754,493.083 474.754,491.416 479.5,489C 481.049,487.786 482.215,486.286 483,484.5C 484.018,480.751 485.185,477.084 486.5,473.5 Z"/></g>
<g><path style="opacity:1" fill="#fd7200" d="M 354.5,498.5 C 388.484,496.439 418.484,506.273 444.5,528C 484.879,566.928 508.046,614.428 514,670.5C 517.092,708.186 513.425,745.186 503,781.5C 490.116,826.184 471.449,868.184 447,907.5C 445.014,911.165 442.347,914.165 439,916.5C 437.115,916.138 436.281,914.971 436.5,913C 445.137,878.912 445.637,844.746 438,810.5C 431.245,787.48 418.412,768.647 399.5,754C 375.188,735.511 350.521,717.511 325.5,700C 307.391,685.945 291.891,669.445 279,650.5C 258.177,610.016 261.511,571.682 289,535.5C 306.401,515.219 328.234,502.886 354.5,498.5 Z"/></g>
<g><path style="opacity:1" fill="#efb49c" d="M 275.5,497.5 C 277.397,499.269 278.564,501.602 279,504.5C 280.952,506.894 283.452,508.394 286.5,509C 280.763,510.735 277.597,514.568 277,520.5C 276.016,517.414 274.516,514.581 272.5,512C 269.833,511 267.167,510 264.5,509C 271.798,508.537 275.464,504.704 275.5,497.5 Z"/></g>
<g><path style="opacity:1" fill="#fdcb00" d="M 661.5,522.5 C 722.15,523.398 767.983,549.732 799,601.5C 823.69,646.247 836.023,694.247 836,745.5C 827.204,754.533 820.871,752.867 817,740.5C 801.95,725.219 784.117,714.386 763.5,708C 730.782,698.436 697.448,692.102 663.5,689C 631.363,682.834 607.863,665.334 593,636.5C 582.552,606.892 586.219,579.226 604,553.5C 619.126,535.687 638.292,525.354 661.5,522.5 Z"/></g>
<g><path style="opacity:1" fill="#fb7100" d="M 2007.5,532.5 C 2030.4,532.212 2038.57,542.878 2032,564.5C 2026.31,572.421 2019.15,578.588 2010.5,583C 2001.62,587.606 1992.62,591.939 1983.5,596C 1980.57,597.318 1977.57,597.985 1974.5,598C 1977.46,595.125 1979.3,591.625 1980,587.5C 1980.11,573.158 1983.11,559.492 1989,546.5C 1993.32,539.339 1999.49,534.673 2007.5,532.5 Z"/></g>
<g><path style="opacity:1" fill="#040201" d="M 396.5,536.5 C 414.947,536.81 427.781,545.477 435,562.5C 437.258,569.978 436.925,577.311 434,584.5C 426.575,592.765 417.742,594.599 407.5,590C 390.775,581.619 382.942,568.119 384,549.5C 386.353,543.315 390.52,538.982 396.5,536.5 Z"/></g>
<g><path style="opacity:1" fill="#f7f7f7" d="M 397.5,546.5 C 407.212,545.709 411.045,550.043 409,559.5C 406.252,563.619 402.419,565.119 397.5,564C 392.845,561.103 391.345,556.937 393,551.5C 394.025,549.313 395.525,547.646 397.5,546.5 Z"/></g>
<g><path style="opacity:1" fill="#c10101" d="M 2981.5,552.5 C 3001.82,551.118 3021.82,552.952 3041.5,558C 3074.27,568.701 3089.1,591.201 3086,625.5C 3080.82,647.017 3067.65,661.184 3046.5,668C 3033.17,669.977 3019.84,669.977 3006.5,668C 2944.42,653.784 2886.42,629.95 2832.5,596.5C 2852.77,586.799 2873.77,578.965 2895.5,573C 2923.85,564.244 2952.52,557.41 2981.5,552.5 Z"/></g>
<g><path style="opacity:1" fill="#f5f5f5" d="M 411.5,566.5 C 418.004,566.138 419.671,568.638 416.5,574C 409.745,574.756 408.078,572.256 411.5,566.5 Z"/></g>
<g><path style="opacity:1" fill="#66d9e5" d="M 1503.5,567.5 C 1518.33,565.898 1532,569.065 1544.5,577C 1563.72,591.249 1577.22,609.749 1585,632.5C 1594.53,662.287 1593.19,691.62 1581,720.5C 1558.82,768.851 1523.32,803.685 1474.5,825C 1450.91,835.732 1426.24,842.732 1400.5,846C 1395.83,846.667 1391.17,846.667 1386.5,846C 1380.93,841.349 1380.1,835.849 1384,829.5C 1413.34,801.165 1432.01,766.832 1440,726.5C 1441.67,717.163 1443.33,707.829 1445,698.5C 1445.84,676.058 1447.84,653.725 1451,631.5C 1453.8,611.409 1462.3,594.242 1476.5,580C 1484.56,573.632 1493.56,569.465 1503.5,567.5 Z"/></g>
<g><path style="opacity:1" fill="#fd46b7" d="M 2600.5,578.5 C 2664.58,574.786 2713.74,599.786 2748,653.5C 2776.07,704.428 2769.24,749.928 2727.5,790C 2710.48,804.318 2691.15,814.318 2669.5,820C 2636.61,825.032 2603.61,825.699 2570.5,822C 2489.34,812.044 2410.68,792.377 2334.5,763C 2328.71,760.519 2323.05,757.853 2317.5,755C 2341.51,753.112 2363.17,745.112 2382.5,731C 2389.17,725.667 2395.83,720.333 2402.5,715C 2426.53,690.638 2450.86,666.638 2475.5,643C 2511.87,611.478 2553.54,589.978 2600.5,578.5 Z"/></g>
<g><path style="opacity:1" fill="#f9c700" d="M 2045.5,587.5 C 2055.52,586.877 2065.35,587.877 2075,590.5C 2076.26,590.85 2076.59,591.517 2076,592.5C 2056.88,608.905 2035.04,614.572 2010.5,609.5C 2019.64,598.003 2031.31,590.67 2045.5,587.5 Z"/></g>
<g><path style="opacity:1" fill="#c10001" d="M 1085.5,596.5 C 1122.83,593.734 1144.66,610.734 1151,647.5C 1151.32,696.012 1129.16,729.845 1084.5,749C 1052.63,757.177 1021.97,768.51 992.5,783C 976.248,791.878 961.748,803.045 949,816.5C 946.436,820.462 944.269,824.629 942.5,829C 933.085,833.253 929.085,830.253 930.5,820C 934.911,767.156 951.078,718.323 979,673.5C 999.812,641.688 1027.65,618.188 1062.5,603C 1070.09,600.074 1077.76,597.907 1085.5,596.5 Z"/></g>
<g><path style="opacity:1" fill="#e58efe" d="M 1879.5,597.5 C 1914.55,594.264 1947.21,601.431 1977.5,619C 2010.66,641.159 2020.16,670.992 2006,708.5C 1993.73,738.434 1973.89,761.934 1946.5,779C 1927.88,788.541 1908.21,794.874 1887.5,798C 1869.98,801.452 1852.32,803.785 1834.5,805C 1801.18,806.333 1767.84,807.333 1734.5,808C 1680.12,811.06 1627.79,822.893 1577.5,843.5C 1577.17,843.167 1576.83,842.833 1576.5,842.5C 1636.36,736.471 1722.03,658.971 1833.5,610C 1848.62,604.556 1863.96,600.389 1879.5,597.5 Z"/></g>
<g><path style="opacity:1" fill="#050301" d="M 321.5,600.5 C 344.859,601.693 358.193,613.86 361.5,637C 359.785,652.867 351.119,658.867 335.5,655C 321.67,649.171 312.837,639.004 309,624.5C 306.628,612.906 310.794,604.906 321.5,600.5 Z"/></g>
<g><path style="opacity:1" fill="#d6b57c" d="M 548.5,601.5 C 549.606,604.383 550.939,607.217 552.5,610C 554.715,611.044 557.048,611.71 559.5,612C 553.333,612.833 549.833,616.333 549,622.5C 548.167,616.333 544.667,612.833 538.5,612C 545.325,611.863 548.658,608.363 548.5,601.5 Z"/></g>
<g><path style="opacity:1" fill="#f6f6f6" d="M 322.5,610.5 C 331.817,609.984 335.65,614.317 334,623.5C 329.05,629.778 323.717,630.111 318,624.5C 316.19,618.519 317.69,613.852 322.5,610.5 Z"/></g>
<g><path style="opacity:1" fill="#040100" d="M 408.5,625.5 C 425.108,625.6 435.941,633.6 441,649.5C 441.667,654.167 441.667,658.833 441,663.5C 436.752,672.54 429.918,675.374 420.5,672C 405.783,664.732 398.616,652.899 399,636.5C 400.627,631.382 403.793,627.715 408.5,625.5 Z"/></g>
<g><path style="opacity:1" fill="#fdca00" d="M 1307.5,627.5 C 1349.55,623.758 1376.05,642.091 1387,682.5C 1396.53,716.711 1389.53,747.044 1366,773.5C 1337,805.431 1301.83,827.931 1260.5,841C 1217.69,855.268 1175.03,869.935 1132.5,885C 1128.51,886.109 1126.51,884.609 1126.5,880.5C 1138.55,833.183 1155.05,787.516 1176,743.5C 1194.21,707.946 1219.05,677.78 1250.5,653C 1267.61,640.109 1286.61,631.609 1307.5,627.5 Z"/></g>
<g><path style="opacity:1" fill="#f8f8f8" d="M 336.5,629.5 C 342.651,630.103 343.984,632.936 340.5,638C 335.504,638.664 333.67,636.498 335,631.5C 335.717,630.956 336.217,630.289 336.5,629.5 Z"/></g>
<g><path style="opacity:1" fill="#fdcb00" d="M 2044.5,780.5 C 2058.37,778.268 2072.03,775.102 2085.5,771C 2080.83,770.333 2076.17,770.333 2071.5,771C 2062.58,773.366 2053.58,775.2 2044.5,776.5C 2042.49,748.432 2045.99,721.099 2055,694.5C 2069.89,659.615 2096.06,638.782 2133.5,632C 2184.52,627.42 2221.36,647.92 2244,693.5C 2255.12,722.663 2256.45,752.33 2248,782.5C 2230.45,839.701 2196.62,884.535 2146.5,917C 2086.34,952.44 2021.34,972.44 1951.5,977C 1946.17,977.667 1940.83,977.667 1935.5,977C 1934.98,976.439 1934.64,975.772 1934.5,975C 1944.62,969.44 1954.95,964.107 1965.5,959C 1991.82,944.348 2013.32,924.514 2030,899.5C 2036.95,886.315 2041.28,872.315 2043,857.5C 2044.28,831.85 2044.78,806.184 2044.5,780.5 Z"/></g>
<g><path style="opacity:1" fill="#afb296" d="M 221.5,638.5 C 222.929,642.664 224.595,646.831 226.5,651C 230.497,653.445 234.831,655.112 239.5,656C 228.804,656.363 222.971,661.863 222,672.5C 221.035,661.869 215.202,656.369 204.5,656C 209.328,654.842 213.828,653.008 218,650.5C 219.79,646.673 220.956,642.673 221.5,638.5 Z"/></g>
<g><path style="opacity:1" fill="#0d080e" d="M 1932.5,651.5 C 1938.85,654.427 1945.02,657.76 1951,661.5C 1952.07,664.553 1951.07,666.553 1948,667.5C 1944.33,665.5 1940.67,663.5 1937,661.5C 1934.39,665.219 1931.89,669.052 1929.5,673C 1925.65,673.685 1923.82,672.185 1924,668.5C 1927.37,663.09 1930.2,657.423 1932.5,651.5 Z"/></g>
<g><path style="opacity:1" fill="#040103" d="M 2600.5,657.5 C 2627.53,657.687 2638.69,671.02 2634,697.5C 2631,705.5 2628,705.5 2625,697.5C 2614.18,686.754 2602.01,684.92 2588.5,692C 2586.5,694 2584.5,696 2582.5,698C 2581.55,698.617 2580.72,698.451 2580,697.5C 2574.38,677.747 2581.21,664.414 2600.5,657.5 Z"/></g>
<g><path style="opacity:1" fill="#030200" d="M 1328.5,659.5 C 1342.54,661.365 1351.04,669.365 1354,683.5C 1355.29,691.509 1354.29,699.176 1351,706.5C 1342.75,714.334 1334.25,714.501 1325.5,707C 1316.46,696.326 1313.62,684.159 1317,670.5C 1319.44,665.226 1323.27,661.56 1328.5,659.5 Z"/></g>
<g><path style="opacity:1" fill="#f2f2f2" d="M 2589.5,666.5 C 2597.73,666.212 2600.06,669.712 2596.5,677C 2591.44,679.259 2588.1,677.759 2586.5,672.5C 2586.98,670.199 2587.98,668.199 2589.5,666.5 Z"/></g>
<g><path style="opacity:1" fill="#030102" d="M 2690.5,668.5 C 2718.43,667.078 2730.26,680.078 2726,707.5C 2723,715.5 2720,715.5 2717,707.5C 2702.68,694.022 2688.51,694.189 2674.5,708C 2673.55,708.617 2672.72,708.451 2672,707.5C 2666.33,688.842 2672.5,675.842 2690.5,668.5 Z"/></g>
<g><path style="opacity:1" fill="#f2f2f2" d="M 1328.5,668.5 C 1335.5,668.339 1339,671.672 1339,678.5C 1334.42,686.1 1329.42,686.433 1324,679.5C 1323.3,674.907 1324.8,671.241 1328.5,668.5 Z"/></g>
<g><path style="opacity:1" fill="#030201" d="M 1274.5,672.5 C 1289.07,673.894 1297.9,681.894 1301,696.5C 1303.62,707.202 1301.12,716.368 1293.5,724C 1287.66,726.248 1281.99,725.915 1276.5,723C 1261.67,709.559 1258.84,694.059 1268,676.5C 1270.31,675.267 1272.48,673.933 1274.5,672.5 Z"/></g>
<g><path style="opacity:1" fill="#09050a" d="M 1859.5,672.5 C 1864.89,674.693 1870.22,677.193 1875.5,680C 1879.51,682.801 1879.34,685.301 1875,687.5C 1870.95,685.89 1867.11,683.89 1863.5,681.5C 1860.84,684.801 1858.68,688.468 1857,692.5C 1852.81,694.305 1850.81,692.972 1851,688.5C 1853.66,683.024 1856.49,677.691 1859.5,672.5 Z"/></g>
<g><path style="opacity:1" fill="#feaac8" d="M 1972.5,678.5 C 1978.96,677.697 1984.96,678.864 1990.5,682C 1995.21,690.206 1993.55,696.872 1985.5,702C 1977.81,706.93 1969.81,707.597 1961.5,704C 1957.42,700.774 1955.92,696.607 1957,691.5C 1960.26,684.73 1965.42,680.397 1972.5,678.5 Z"/></g>
<g><path style="opacity:1" fill="#f4f4f4" d="M 2680.5,678.5 C 2687.56,677.725 2690.06,680.725 2688,687.5C 2684.75,691.367 2681.42,691.367 2678,687.5C 2676.78,683.718 2677.61,680.718 2680.5,678.5 Z"/></g>
<g><path style="opacity:1" fill="#130e01" d="M 2099.5,678.5 C 2110.49,677.772 2119.32,681.772 2126,690.5C 2127.19,692.044 2127.52,693.711 2127,695.5C 2126.28,696.451 2125.45,696.617 2124.5,696C 2115.12,682.587 2103.46,679.92 2089.5,688C 2089.04,687.586 2088.71,687.086 2088.5,686.5C 2091.35,682.589 2095.01,679.922 2099.5,678.5 Z"/></g>
<g><path style="opacity:1" fill="#f3f3f3" d="M 1275.5,681.5 C 1284.64,681.93 1287.64,686.264 1284.5,694.5C 1279.28,698.738 1274.78,698.071 1271,692.5C 1270.3,687.907 1271.8,684.241 1275.5,681.5 Z"/></g>
<g><path style="opacity:1" fill="#060401" d="M 2172.5,685.5 C 2186.39,684.712 2193.72,691.379 2194.5,705.5C 2194.46,717.409 2189.79,726.909 2180.5,734C 2171.12,738.096 2163.96,735.596 2159,726.5C 2153.83,709.467 2158.33,695.8 2172.5,685.5 Z"/></g>
<g><path style="opacity:1" fill="#efb39c" d="M 172.5,687.5 C 173.202,696.019 177.869,700.852 186.5,702C 178.698,703.302 174.032,707.802 172.5,715.5C 171.843,712.044 170.51,708.878 168.5,706C 165.326,704.275 161.993,702.942 158.5,702C 162.401,701.324 165.901,699.824 169,697.5C 170.73,694.33 171.896,690.997 172.5,687.5 Z"/></g>
<g><path style="opacity:1" fill="#f945b4" d="M 880.5,698.5 C 897.766,698.257 903.599,706.257 898,722.5C 889.963,731.366 881.63,731.699 873,723.5C 866.834,712.512 869.334,704.179 880.5,698.5 Z"/></g>
<g><path style="opacity:1" fill="#feaac8" d="M 1852.5,708.5 C 1857.95,707.826 1862.95,708.992 1867.5,712C 1872.1,716.771 1872.6,721.938 1869,727.5C 1861.85,735.326 1853.02,738.159 1842.5,736C 1833.81,731.217 1832.31,724.717 1838,716.5C 1842.4,712.888 1847.23,710.221 1852.5,708.5 Z"/></g>
<g><path style="opacity:1" fill="#f2f2f2" d="M 2164.5,710.5 C 2172.59,709.737 2174.93,712.903 2171.5,720C 2164.74,722.243 2161.9,719.743 2163,712.5C 2163.72,711.956 2164.22,711.289 2164.5,710.5 Z"/></g>
<g><path style="opacity:1" fill="#0a060b" d="M 1926.5,727.5 C 1928.2,727.34 1929.87,727.506 1931.5,728C 1932.08,728.893 1932.41,729.893 1932.5,731C 1929.98,737.201 1926.82,743.034 1923,748.5C 1917.35,745.507 1911.68,742.507 1906,739.5C 1905.33,737.833 1905.33,736.167 1906,734.5C 1906.72,733.941 1907.56,733.608 1908.5,733.5C 1912.68,734.856 1916.52,736.856 1920,739.5C 1922.45,735.606 1924.61,731.606 1926.5,727.5 Z"/></g>
<g><path style="opacity:1" fill="#030200" d="M 1331.5,729.5 C 1347.21,729.052 1354.05,736.719 1352,752.5C 1351.25,762.848 1346.75,771.015 1338.5,777C 1327.82,780.936 1316.82,782.936 1305.5,783C 1294.7,777.514 1288.53,768.68 1287,756.5C 1285.22,745.223 1289.72,737.723 1300.5,734C 1310.95,732.329 1321.28,730.829 1331.5,729.5 Z"/></g>
<g><path style="opacity:1" fill="#fe46b7" d="M 541.5,913.5 C 520.987,921.448 500.32,928.781 479.5,935.5C 477.901,935.768 476.568,935.434 475.5,934.5C 477.176,933.817 477.843,932.483 477.5,930.5C 482.582,914.422 488.749,898.755 496,883.5C 510.967,850.889 527.967,819.555 547,789.5C 560.249,771.583 576.082,756.416 594.5,744C 623.506,727.838 650.672,730.338 676,751.5C 692.358,769.836 696.025,790.503 687,813.5C 681.709,825.561 673.876,835.727 663.5,844C 625.48,871.519 584.813,894.686 541.5,913.5 Z"/></g>
<g><path style="opacity:1" fill="#0c0800" d="M 2105.5,739.5 C 2110.78,738.931 2115.78,739.765 2120.5,742C 2122.18,745.114 2121.35,747.281 2118,748.5C 2113.28,745.519 2108.95,745.852 2105,749.5C 2104.33,750.5 2104.33,751.5 2105,752.5C 2106.94,753.863 2109.11,754.697 2111.5,755C 2114.72,759.099 2113.72,761.433 2108.5,762C 2104.36,765.979 2104.69,769.645 2109.5,773C 2113.17,775 2116.83,775 2120.5,773C 2123.21,770.629 2125.54,767.963 2127.5,765C 2131.49,764.661 2132.99,766.494 2132,770.5C 2127.19,779.487 2119.69,782.987 2109.5,781C 2099.04,776.748 2096.04,769.415 2100.5,759C 2095.42,750.744 2097.08,744.244 2105.5,739.5 Z"/></g>
<g><path style="opacity:1" fill="#fdcb00" d="M 307.5,742.5 C 342.793,742.23 362.96,759.564 368,794.5C 368.667,806.167 368.667,817.833 368,829.5C 364.999,857.849 364.999,886.182 368,914.5C 371.957,944.73 383.29,971.73 402,995.5C 404.5,1005.66 400.666,1010.16 390.5,1009C 340.576,995.698 299.743,968.865 268,928.5C 251.871,905.577 241.871,880.244 238,852.5C 234.566,807.535 251.733,773.035 289.5,749C 295.294,745.905 301.294,743.739 307.5,742.5 Z"/></g>
<g><path style="opacity:1" fill="#0e0409" d="M 2618.5,745.5 C 2619.55,745.351 2620.55,745.517 2621.5,746C 2636.9,762.039 2652.73,762.539 2669,747.5C 2670.62,747.954 2671.79,748.954 2672.5,750.5C 2664.11,761.95 2652.78,766.45 2638.5,764C 2630.1,761.389 2622.94,756.889 2617,750.5C 2616.39,748.505 2616.89,746.838 2618.5,745.5 Z"/></g>
<g><path style="opacity:1" fill="#c12e2a" d="M 2008.5,758.5 C 2018.37,759.903 2021.2,765.236 2017,774.5C 2015.75,776.001 2014.75,777.668 2014,779.5C 2011.65,783.179 2008.65,786.179 2005,788.5C 1996.41,784.241 1990.24,777.741 1986.5,769C 1987.75,762.099 1991.75,759.766 1998.5,762C 2000.33,762.5 2001.5,763.667 2002,765.5C 2003.69,762.642 2005.86,760.309 2008.5,758.5 Z"/></g>
<g><path style="opacity:1" fill="#ba282d" d="M 2044.5,780.5 C 2037.64,780.719 2031.64,778.552 2026.5,774C 2032.23,775.944 2038.23,776.777 2044.5,776.5C 2053.58,775.2 2062.58,773.366 2071.5,771C 2076.17,770.333 2080.83,770.333 2085.5,771C 2072.03,775.102 2058.37,778.268 2044.5,780.5 Z"/></g>
<g><path style="opacity:1" fill="#f6c500" d="M 833.5,776.5 C 843.292,776.793 847.458,781.793 846,791.5C 839.49,799.445 833.157,799.445 827,791.5C 824.865,784.45 827.032,779.45 833.5,776.5 Z"/></g>
<g><path style="opacity:1" fill="#e18cfa" d="M 1068.5,807.5 C 1069.83,807.5 1071.17,807.5 1072.5,807.5C 1069.38,838.952 1052.38,857.618 1021.5,863.5C 1022.66,842.842 1031.99,827.009 1049.5,816C 1055.69,812.568 1062.02,809.734 1068.5,807.5 Z"/></g>
<g><path style="opacity:1" fill="#e48efd" d="M 769.5,819.5 C 829.059,816.046 877.225,837.38 914,883.5C 916.698,887.367 919.198,891.367 921.5,895.5C 921,895.833 920.5,896.167 920,896.5C 898.521,890.24 876.688,888.407 854.5,891C 834.205,895.411 813.705,898.244 793,899.5C 777.014,898.141 761.18,895.641 745.5,892C 719.484,887.66 693.818,889.16 668.5,896.5C 688.03,852.841 721.697,827.174 769.5,819.5 Z"/></g>
<g><path style="opacity:1" fill="#fc7100" d="M 970.5,824.5 C 985.555,823.379 995.388,830.045 1000,844.5C 1003,858.075 1001.34,871.075 995,883.5C 989.024,894.15 981.524,903.65 972.5,912C 971.207,912.49 969.873,912.657 968.5,912.5C 970.44,903.218 969.607,894.218 966,885.5C 962.175,877.181 957.842,869.181 953,861.5C 947.531,843.773 953.364,831.439 970.5,824.5 Z"/></g>
<g><path style="opacity:1" fill="#fcca00" d="M 2256.5,856.5 C 2265.03,855.885 2273.36,856.718 2281.5,859C 2287.82,861.986 2291.99,866.819 2294,873.5C 2296.08,887.674 2293.08,900.674 2285,912.5C 2271.01,931.433 2252.84,944.933 2230.5,953C 2224.09,954.802 2217.76,956.802 2211.5,959C 2203.27,961.071 2194.93,962.071 2186.5,962C 2185.45,960.612 2185.28,959.112 2186,957.5C 2196.92,949.907 2204.92,939.907 2210,927.5C 2214.95,914.364 2219.28,901.03 2223,887.5C 2229.59,872.069 2240.76,861.735 2256.5,856.5 Z"/></g>
<g><path style="opacity:1" fill="#fd7200" d="M 1842.5,857.5 C 1881.01,855.856 1897.18,874.19 1891,912.5C 1887.73,924.44 1881.23,934.273 1871.5,942C 1859.62,951.444 1846.62,959.111 1832.5,965C 1797.29,975.125 1761.62,983.292 1725.5,989.5C 1737.86,956.097 1755.36,925.763 1778,898.5C 1795.53,878.445 1817.03,864.778 1842.5,857.5 Z"/></g>
<g><path style="opacity:1" fill="#01c164" d="M 1322.5,878.5 C 1378.68,873.544 1412.52,898.544 1424,953.5C 1427.8,1009.09 1403.3,1045.59 1350.5,1063C 1325.11,1068.45 1299.78,1074.12 1274.5,1080C 1248.99,1087.09 1225.66,1098.42 1204.5,1114C 1200,1118.5 1195.5,1123 1191,1127.5C 1188.72,1132.45 1186.22,1137.29 1183.5,1142C 1176.97,1144.82 1172.14,1142.99 1169,1136.5C 1167.3,1075.64 1180.64,1018.31 1209,964.5C 1234.37,919.287 1272.2,890.62 1322.5,878.5 Z"/></g>
<g><path style="opacity:1" fill="#e28cfb" d="M 716.5,895.5 C 736.572,893.484 755.572,896.984 773.5,906C 779.731,912.772 781.231,920.606 778,929.5C 767.247,965.307 743.413,979.141 706.5,971C 697.147,967.648 690.314,961.481 686,952.5C 680.529,939.338 678.195,925.672 679,911.5C 681.562,905.939 685.728,902.106 691.5,900C 699.834,897.656 708.167,896.156 716.5,895.5 Z"/></g>
<g><path style="opacity:1" fill="#e38dfc" d="M 849.5,895.5 C 865.623,895.011 881.623,896.178 897.5,899C 903.449,900.552 908.283,903.719 912,908.5C 914.698,924.367 912.698,939.7 906,954.5C 901.451,963.379 894.284,968.879 884.5,971C 848.907,978.463 825.74,964.963 815,930.5C 812.682,923.319 813.015,916.319 816,909.5C 822.079,903.709 829.246,899.876 837.5,898C 841.699,897.472 845.699,896.639 849.5,895.5 Z"/></g>
<g><path style="opacity:1" fill="#030203" d="M 722.5,908.5 C 735.672,908.153 743.838,914.486 747,927.5C 748.861,938.182 747.194,948.182 742,957.5C 735.749,964.011 728.582,965.177 720.5,961C 714.516,955.867 711.016,949.367 710,941.5C 707.03,927.551 711.197,916.551 722.5,908.5 Z"/></g>
<g><path style="opacity:1" fill="#050305" d="M 862.5,909.5 C 875.168,909.653 883.001,915.986 886,928.5C 888.81,938.731 887.477,948.398 882,957.5C 868.647,969.692 858.314,967.358 851,950.5C 847.365,939.995 847.698,929.662 852,919.5C 854.738,915.26 858.238,911.926 862.5,909.5 Z"/></g>
<g><path style="opacity:1" fill="#e58efe" d="M 659.5,912.5 C 663.449,915.618 666.949,919.285 670,923.5C 673.665,938.158 678.998,952.158 686,965.5C 697.451,974.826 710.617,979.159 725.5,978.5C 748.998,979.84 766.164,970.173 777,949.5C 781.121,940.683 784.787,931.683 788,922.5C 788.5,922 789,921.5 789.5,921C 793.833,920.333 798.167,920.333 802.5,921C 804,922.5 805.5,924 807,925.5C 810.104,937.374 815.104,948.374 822,958.5C 836.344,974.284 854.178,980.784 875.5,978C 893.293,976.184 906.126,967.351 914,951.5C 916.361,942.054 919.027,932.721 922,923.5C 923.4,920.098 925.567,917.264 928.5,915C 929.449,914.383 930.282,914.549 931,915.5C 941.463,941.582 944.796,968.582 941,996.5C 940.038,1004.57 938.705,1012.57 937,1020.5C 923.931,1061.63 912.931,1103.3 904,1145.5C 896.356,1185.92 896.689,1226.25 905,1266.5C 907.608,1274.32 910.608,1281.99 914,1289.5C 917.667,1293.83 921.333,1298.17 925,1302.5C 926.659,1316.51 920.492,1323.01 906.5,1322C 832.793,1284.38 769.626,1233.55 717,1169.5C 691.169,1136.85 671.836,1100.52 659,1060.5C 644.884,1011.08 645.051,961.75 659.5,912.5 Z"/></g>
<g><path style="opacity:1" fill="#f6f6f6" d="M 723.5,917.5 C 732.377,917.193 735.877,921.193 734,929.5C 729.333,934.833 724.667,934.833 720,929.5C 718.745,924.738 719.912,920.738 723.5,917.5 Z"/></g>
<g><path style="opacity:1" fill="#f5f5f5" d="M 863.5,918.5 C 870.985,918.483 874.485,922.15 874,929.5C 869.408,935.679 864.408,936.012 859,930.5C 858.333,928.167 858.333,925.833 859,923.5C 860.366,921.638 861.866,919.972 863.5,918.5 Z"/></g>
<g><path style="opacity:1" fill="#c00101" d="M 1616.5,920.5 C 1631.71,918.921 1644.88,923.255 1656,933.5C 1664.05,946.746 1666.72,961.08 1664,976.5C 1660.34,989.159 1653.17,999.326 1642.5,1007C 1632.95,1014.28 1622.62,1020.28 1611.5,1025C 1596.7,1029.78 1581.7,1033.78 1566.5,1037C 1546.81,1040.5 1527.14,1044 1507.5,1047.5C 1517.97,1016.56 1533.13,988.23 1553,962.5C 1569.89,941.821 1591.05,927.821 1616.5,920.5 Z"/></g>
<g><path style="opacity:1" fill="#66d8e4" d="M 2364.5,923.5 C 2398.27,920.355 2428.61,928.855 2455.5,949C 2469.38,960.92 2478.54,975.753 2483,993.5C 2485.08,1022.5 2473.58,1044.33 2448.5,1059C 2422.75,1068.87 2399.08,1065.21 2377.5,1048C 2366.86,1038.36 2356.53,1028.36 2346.5,1018C 2329.94,1002.78 2311.27,990.784 2290.5,982C 2281.72,978.802 2272.72,977.802 2263.5,979C 2257.93,974.259 2258.26,969.926 2264.5,966C 2294.47,943.845 2327.81,929.679 2364.5,923.5 Z"/></g>
<g><path style="opacity:1" fill="#e5631b" d="M 541.5,913.5 C 521.842,923.388 501.175,930.721 479.5,935.5C 500.32,928.781 520.987,921.448 541.5,913.5 Z"/></g>
<g><path style="opacity:1" fill="#fcf6d3" d="M 2387.5,932.5 C 2394.29,931.131 2398.12,933.798 2399,940.5C 2404.64,934.953 2409.97,935.286 2415,941.5C 2416.18,945.274 2415.35,948.441 2412.5,951C 2410.05,951.29 2407.71,951.956 2405.5,953C 2416.87,954.054 2419.54,959.387 2413.5,969C 2408.68,971.446 2404.51,970.613 2401,966.5C 2400.84,974.997 2396.67,978.164 2388.5,976C 2386.33,975.167 2384.83,973.667 2384,971.5C 2383.48,967.985 2383.81,964.652 2385,961.5C 2381.67,964.167 2378.33,964.167 2375,961.5C 2370.82,951.701 2373.98,946.535 2384.5,946C 2381.9,943.683 2381.07,940.85 2382,937.5C 2383.73,935.598 2385.56,933.931 2387.5,932.5 Z"/></g>
<g><path style="opacity:1" fill="#ec6326" d="M 477.5,930.5 C 477.843,932.483 477.176,933.817 475.5,934.5C 475.229,932.62 475.896,931.287 477.5,930.5 Z"/></g>
<g><path style="opacity:1" fill="#fb45b5" d="M 1129.5,934.5 C 1130.55,934.351 1131.55,934.517 1132.5,935C 1153.14,954.534 1158.64,977.7 1149,1004.5C 1148.63,1005.91 1147.8,1006.91 1146.5,1007.5C 1128.66,993.168 1121.49,974.501 1125,951.5C 1125.72,945.599 1127.22,939.933 1129.5,934.5 Z"/></g>
<g><path style="opacity:1" fill="#ffdb7f" d="M 2392.5,948.5 C 2398.99,947.632 2401.49,950.299 2400,956.5C 2393.41,961.509 2390.08,959.842 2390,951.5C 2391.04,950.627 2391.88,949.627 2392.5,948.5 Z"/></g>
<g><path style="opacity:1" fill="#e18cfa" d="M 1490.5,960.5 C 1491.83,960.5 1493.17,960.5 1494.5,960.5C 1491.2,991.831 1474.2,1010.5 1443.5,1016.5C 1444.68,995.832 1454.01,979.998 1471.5,969C 1477.69,965.568 1484.02,962.734 1490.5,960.5 Z"/></g>
<g><path style="opacity:1" fill="#63d2de" d="M 2239.5,975.5 C 2246.69,975.848 2249.52,979.515 2248,986.5C 2243.57,991.808 2239.24,991.808 2235,986.5C 2233.39,981.438 2234.89,977.772 2239.5,975.5 Z"/></g>
<g><path style="opacity:1" fill="#091010" d="M 2397.5,983.5 C 2406.5,982.112 2414.33,984.445 2421,990.5C 2421.78,992.319 2421.28,993.652 2419.5,994.5C 2409.82,984.174 2400.16,984.007 2390.5,994C 2389.55,994.483 2388.55,994.649 2387.5,994.5C 2387.49,992.692 2387.99,991.025 2389,989.5C 2391.74,987.248 2394.57,985.248 2397.5,983.5 Z"/></g>
<g><path style="opacity:1" fill="#100d10" d="M 835.5,985.5 C 838.88,985.179 839.713,986.179 838,988.5C 838.99,1011.72 828.157,1025.55 805.5,1030C 790.614,1033.56 776.614,1031.56 763.5,1024C 754.9,1016.52 751.233,1007.19 752.5,996C 771.83,995.247 791.164,994.581 810.5,994C 819.191,991.919 827.525,989.085 835.5,985.5 Z"/></g>
<g><path style="opacity:1" fill="#0b1213" d="M 2450.5,986.5 C 2459.63,985.903 2467.3,988.903 2473.5,995.5C 2473.11,996.72 2472.28,997.387 2471,997.5C 2460.42,987.89 2450.25,988.223 2440.5,998.5C 2439.5,998.167 2438.83,997.5 2438.5,996.5C 2441.59,992.073 2445.59,988.74 2450.5,986.5 Z"/></g>
<g><path style="opacity:1" fill="#fd46b7" d="M 2073.5,992.5 C 2096.19,991.236 2118.52,993.403 2140.5,999C 2163.11,1004.7 2180.28,1017.54 2192,1037.5C 2203.57,1065.09 2198.4,1088.93 2176.5,1109C 2160.92,1120.19 2143.59,1124.19 2124.5,1121C 2052.95,1099.9 1988.29,1066.23 1930.5,1020C 1951.3,1012.8 1972.63,1007.47 1994.5,1004C 2020.84,999.166 2047.17,995.333 2073.5,992.5 Z"/></g>
<g><path style="opacity:1" fill="#f7f7f7" d="M 830.5,992.5 C 832.62,996.953 831.62,1001.12 827.5,1005C 817.007,1006.65 817.007,1008.15 827.5,1009.5C 825.627,1017.54 820.627,1022.37 812.5,1024C 800.755,1026.2 789.088,1025.87 777.5,1023C 769.49,1021.31 763.49,1016.97 759.5,1010C 770.415,1011.21 781.415,1011.71 792.5,1011.5C 792.5,1010.5 792.5,1009.5 792.5,1008.5C 781.464,1007.73 770.464,1006.56 759.5,1005C 756.588,1004.15 755.588,1002.49 756.5,1000C 759.785,999.176 763.118,998.676 766.5,998.5C 788.582,1002.71 809.916,1000.71 830.5,992.5 Z"/></g>
<g><path style="opacity:1" fill="#66d8e4" d="M 179.5,995.5 C 210.708,994.173 241.041,998.673 270.5,1009C 305.286,1020.15 338.286,1035.15 369.5,1054C 391.207,1067.05 412.374,1080.88 433,1095.5C 435.782,1102.82 433.948,1108.65 427.5,1113C 408.83,1112.07 390.163,1112.41 371.5,1114C 339.416,1118.57 307.416,1123.57 275.5,1129C 247.891,1132.52 220.225,1133.19 192.5,1131C 171.725,1128.19 153.058,1120.53 136.5,1108C 110.659,1084.83 105.826,1057.99 122,1027.5C 130.845,1015.99 142.011,1007.49 155.5,1002C 163.459,999.179 171.459,997.013 179.5,995.5 Z"/></g>
<g><path style="opacity:1" fill="#e38dfc" d="M 1077.5,999.5 C 1099.04,1000.03 1113.88,1010.37 1122,1030.5C 1127.2,1046.43 1128.86,1062.76 1127,1079.5C 1126.01,1083.44 1125.34,1087.44 1125,1091.5C 1123.3,1092.41 1121.47,1092.74 1119.5,1092.5C 1119.54,1089.58 1118.71,1086.91 1117,1084.5C 1113.83,1080 1110,1076.17 1105.5,1073C 1094.72,1066.28 1083.39,1060.61 1071.5,1056C 1055.31,1043.67 1052.14,1028.5 1062,1010.5C 1066.13,1005.2 1071.29,1001.54 1077.5,999.5 Z"/></g>
<g><path style="opacity:1" fill="#01ba61" d="M 2204.5,1002.5 C 2210,1001.83 2212.17,1004.16 2211,1009.5C 2208.38,1013.48 2205.72,1013.48 2203,1009.5C 2202.17,1006.83 2202.67,1004.5 2204.5,1002.5 Z"/></g>
<g><path style="opacity:1" fill="#01c064" d="M 2226.5,1006.5 C 2252.95,1006.45 2277.62,1012.95 2300.5,1026C 2320.41,1039.66 2331.75,1058.49 2334.5,1082.5C 2331.76,1113.07 2315.09,1126.57 2284.5,1123C 2270.51,1117.67 2261.34,1107.84 2257,1093.5C 2254.44,1079.82 2251.77,1066.15 2249,1052.5C 2246.29,1041.75 2241.96,1031.75 2236,1022.5C 2232.89,1018.72 2229.22,1015.72 2225,1013.5C 2224.17,1010.83 2224.67,1008.5 2226.5,1006.5 Z"/></g>
<g><path style="opacity:1" fill="#fc46b6" d="M 560.5,1013.5 C 581.472,1011.9 594.639,1021.23 600,1041.5C 599.693,1057 601.027,1072.33 604,1087.5C 605.751,1094.23 609.418,1099.57 615,1103.5C 615.711,1105.37 615.211,1106.87 613.5,1108C 585.646,1104.33 563.146,1091.5 546,1069.5C 539.905,1058.6 537.572,1046.93 539,1034.5C 542.225,1023.33 549.392,1016.33 560.5,1013.5 Z"/></g>
<g><path style="opacity:1" fill="#020405" d="M 2425.5,1021.5 C 2436.81,1021.28 2440.31,1026.28 2436,1036.5C 2429.6,1041.16 2424.26,1040.16 2420,1033.5C 2418.87,1028.09 2420.71,1024.09 2425.5,1021.5 Z"/></g>
<g><path style="opacity:1" fill="#725b34" d="M 3390.5,1366.5 C 3393.15,1362.85 3395.82,1359.18 3398.5,1355.5C 3400.32,1351.19 3401.65,1346.86 3402.5,1342.5C 3402.34,1344.2 3402.51,1345.87 3403,1347.5C 3446.5,1312.83 3468.33,1267.5 3468.5,1211.5C 3465.41,1144.95 3434.74,1095.79 3376.5,1064C 3360.13,1055.74 3342.8,1050.57 3324.5,1048.5C 3324.39,1047.88 3324.06,1047.38 3323.5,1047C 3310.35,1045.3 3297.18,1045.14 3284,1046.5C 3281.39,1046.53 3279.22,1047.2 3277.5,1048.5C 3231.32,1055.19 3193.82,1076.85 3165,1113.5C 3160.69,1122.48 3155.53,1130.98 3149.5,1139C 3145.08,1150.56 3140.92,1162.06 3137,1173.5C 3135.3,1184.15 3133.8,1194.81 3132.5,1205.5C 3130.69,1204.68 3129.19,1205.35 3128,1207.5C 3127.68,1209.69 3128.18,1211.69 3129.5,1213.5C 3128.54,1213.05 3127.71,1212.38 3127,1211.5C 3125.87,1207.24 3124.2,1203.24 3122,1199.5C 3114.34,1187.5 3106.67,1175.5 3099,1163.5C 3076.47,1124.05 3053.31,1085.05 3029.5,1046.5C 3029.44,1045.96 3029.11,1045.62 3028.5,1045.5C 3027.5,1098.16 3027.17,1150.83 3027.5,1203.5C 3025.38,1203.33 3023.38,1203.66 3021.5,1204.5C 3021.5,1146.5 3021.5,1088.5 3021.5,1030.5C 3023.83,1030.5 3026.17,1030.5 3028.5,1030.5C 3029.63,1033.44 3030.8,1036.44 3032,1039.5C 3052.73,1073.54 3073.39,1107.54 3094,1141.5C 3098.05,1148.32 3101.72,1155.32 3105,1162.5C 3109.54,1167.39 3112.87,1173.06 3115,1179.5C 3118.23,1185.23 3122.06,1190.57 3126.5,1195.5C 3135.27,1135.52 3165.93,1090.35 3218.5,1060C 3249.8,1044.25 3283.13,1037.92 3318.5,1041C 3383.87,1050.37 3431.37,1084.54 3461,1143.5C 3467.09,1157.91 3471.42,1172.91 3474,1188.5C 3474.67,1205.83 3474.67,1223.17 3474,1240.5C 3472.58,1245.42 3471.58,1250.42 3471,1255.5C 3460.42,1292.93 3440.25,1324.26 3410.5,1349.5C 3406.75,1352.59 3402.75,1355.26 3398.5,1357.5C 3396.48,1361.18 3393.81,1364.18 3390.5,1366.5 Z"/></g>
<g><path style="opacity:1" fill="#fa7000" d="M 449.5,1036.5 C 476.515,1036.25 496.348,1047.91 509,1071.5C 510.115,1074.15 510.782,1076.82 511,1079.5C 483.942,1081.13 464.275,1069.8 452,1045.5C 450.57,1042.65 449.737,1039.65 449.5,1036.5 Z"/></g>
<g><path style="opacity:1" fill="#fcca00" d="M 1751.5,1037.5 C 1772.69,1035.03 1792.36,1039.19 1810.5,1050C 1815.39,1054.22 1819.55,1059.05 1823,1064.5C 1825.48,1090.7 1814.98,1109.87 1791.5,1122C 1759.64,1134.09 1726.98,1136.76 1693.5,1130C 1662.22,1124.54 1631.05,1118.7 1600,1112.5C 1599.32,1111.22 1599.48,1110.05 1600.5,1109C 1625.5,1090.36 1651.83,1073.69 1679.5,1059C 1702.51,1048.09 1726.51,1040.92 1751.5,1037.5 Z"/></g>
<g><path style="opacity:1" fill="#030606" d="M 186.5,1040.5 C 198.505,1040.33 210.505,1040.5 222.5,1041C 230.15,1051.15 231.317,1061.99 226,1073.5C 217.744,1081.24 209.244,1081.4 200.5,1074C 189.658,1065.28 184.992,1054.12 186.5,1040.5 Z"/></g>
<g><path style="opacity:1" fill="#c79682" d="M 2511.5,1039.5 C 2514.25,1039.19 2516.91,1039.52 2519.5,1040.5C 2512.5,1042.34 2505.5,1044.17 2498.5,1046C 2492.37,1047.27 2486.7,1046.27 2481.5,1043C 2491.84,1044.32 2501.84,1043.16 2511.5,1039.5 Z"/></g>
<g><path style="opacity:1" fill="#fb7100" d="M 1429.5,1046.5 C 1441.21,1045.06 1451.87,1047.56 1461.5,1054C 1471.71,1067.71 1470.37,1080.37 1457.5,1092C 1450.68,1096.07 1443.35,1097.4 1435.5,1096C 1426.05,1092.07 1416.38,1088.74 1406.5,1086C 1400.5,1085.33 1394.5,1085.33 1388.5,1086C 1386.99,1086.85 1385.49,1087.68 1384,1088.5C 1381.81,1087.94 1381.15,1086.61 1382,1084.5C 1393.33,1065.98 1409.17,1053.31 1429.5,1046.5 Z"/></g>
<g><path style="opacity:1" fill="#302617" d="M 3324.5,1048.5 C 3308.83,1047.17 3293.17,1047.17 3277.5,1048.5C 3279.22,1047.2 3281.39,1046.53 3284,1046.5C 3297.18,1045.14 3310.35,1045.3 3323.5,1047C 3324.06,1047.38 3324.39,1047.88 3324.5,1048.5 Z"/></g>
<g><path style="opacity:1" fill="#ebb19a" d="M 2530.5,1021.5 C 2533.42,1025.6 2536.59,1029.6 2540,1033.5C 2542.26,1038.26 2541.6,1042.59 2538,1046.5C 2538.93,1039.66 2536.93,1033.66 2532,1028.5C 2531.62,1038.01 2530.29,1047.35 2528,1056.5C 2525.57,1058.75 2522.74,1059.59 2519.5,1059C 2516.66,1055.35 2517.33,1052.35 2521.5,1050C 2523.81,1049.5 2526.14,1049.34 2528.5,1049.5C 2528.87,1040.09 2529.54,1030.76 2530.5,1021.5 Z"/></g>
<g><path style="opacity:1" fill="#fc7200" d="M 1013.5,1032.5 C 1014.87,1032.34 1016.21,1032.51 1017.5,1033C 1005.93,1038.56 1000.1,1047.73 1000,1060.5C 1006.03,1071.43 1015.2,1076.43 1027.5,1075.5C 1030.74,1069.21 1035.74,1066.54 1042.5,1067.5C 1044.54,1072.06 1043.21,1075.23 1038.5,1077C 1035.21,1077.88 1031.88,1078.55 1028.5,1079C 1027.37,1080.75 1026.37,1082.59 1025.5,1084.5C 1063.9,1083.03 1089.06,1100.7 1101,1137.5C 1109.11,1170.04 1105.78,1201.37 1091,1231.5C 1065.04,1278.8 1028.04,1314.47 980,1338.5C 975.772,1338.11 973.272,1335.77 972.5,1331.5C 974.04,1327.79 976.207,1324.45 979,1321.5C 984.294,1304.91 985.961,1287.91 984,1270.5C 979.922,1241.86 972.256,1214.19 961,1187.5C 950.86,1143.62 965.693,1111.46 1005.5,1091C 1011.15,1089.06 1016.81,1087.23 1022.5,1085.5C 1023.75,1083.68 1024.41,1081.68 1024.5,1079.5C 1012.25,1078.4 1003.41,1072.4 998,1061.5C 997.333,1057.83 997.333,1054.17 998,1050.5C 1001.94,1043.4 1007.11,1037.4 1013.5,1032.5 Z"/></g>
<g><path style="opacity:1" fill="#030405" d="M 156.5,1053.5 C 168.563,1057.56 176.063,1065.89 179,1078.5C 182.017,1089.27 178.851,1097.44 169.5,1103C 154.345,1103.74 144.012,1096.91 138.5,1082.5C 144.527,1072.82 150.527,1063.15 156.5,1053.5 Z"/></g>
<g><path style="opacity:1" fill="#f5f5f5" d="M 204.5,1053.5 C 213.421,1053.89 216.588,1058.23 214,1066.5C 204.472,1072.3 199.805,1069.64 200,1058.5C 201.193,1056.5 202.693,1054.84 204.5,1053.5 Z"/></g>
<g><path style="opacity:1" fill="#160900" d="M 1038.5,1068.5 C 1039.5,1068.5 1040.5,1068.5 1041.5,1068.5C 1041.71,1070.14 1041.38,1071.64 1040.5,1073C 1027.85,1077.83 1027.18,1076.33 1038.5,1068.5 Z"/></g>
<g><path style="opacity:1" fill="#f6f6f6" d="M 154.5,1078.5 C 164.034,1078.24 167.201,1082.58 164,1091.5C 159.667,1095.5 155.333,1095.5 151,1091.5C 148.651,1086.2 149.817,1081.87 154.5,1078.5 Z"/></g>
<g><path style="opacity:1" fill="#111c1d" d="M 202.5,1098.5 C 209.752,1098.19 215.586,1100.86 220,1106.5C 220.667,1107.5 220.667,1108.5 220,1109.5C 211.646,1099.26 202.979,1098.93 194,1108.5C 191.521,1112.12 190.188,1116.12 190,1120.5C 189.217,1110.4 193.384,1103.07 202.5,1098.5 Z"/></g>
<g><path style="opacity:1" fill="#66d9e5" d="M 1931.5,1110.5 C 1967.77,1108.76 2000.44,1118.59 2029.5,1140C 2057.5,1164.46 2063.66,1193.62 2048,1227.5C 2031.39,1262.11 2005.55,1287.28 1970.5,1303C 1943.23,1314.05 1914.9,1320.71 1885.5,1323C 1783.02,1333.96 1685.35,1317.29 1592.5,1273C 1647.39,1260.27 1698.39,1238.6 1745.5,1208C 1778.02,1185.15 1811.36,1163.49 1845.5,1143C 1872.72,1127.87 1901.39,1117.04 1931.5,1110.5 Z"/></g>
<g><path style="opacity:1" fill="#3d311c" d="M 3029.5,1046.5 C 3028.5,1099 3028.17,1151.66 3028.5,1204.5C 3027.83,1204.5 3027.5,1204.17 3027.5,1203.5C 3027.17,1150.83 3027.5,1098.16 3028.5,1045.5C 3029.11,1045.62 3029.44,1045.96 3029.5,1046.5 Z"/></g>
<g><path style="opacity:1" fill="#fe46b7" d="M 1355.5,1123.5 C 1390.25,1120.38 1423.91,1124.88 1456.5,1137C 1513.88,1162.08 1540.05,1205.91 1535,1268.5C 1524.53,1332.96 1488.03,1374.12 1425.5,1392C 1403.55,1396.16 1381.55,1396.49 1359.5,1393C 1334.03,1386.06 1308.69,1378.73 1283.5,1371C 1251.66,1362.7 1219.32,1357.36 1186.5,1355C 1165.66,1354.38 1144.99,1356.04 1124.5,1360C 1116.96,1362.1 1109.63,1364.77 1102.5,1368C 1097.17,1372 1091.83,1376 1086.5,1380C 1074.53,1380.36 1069.03,1374.53 1070,1362.5C 1105.58,1292.91 1153.75,1233.41 1214.5,1184C 1256.3,1151.77 1303.3,1131.6 1355.5,1123.5 Z"/></g>
<g><path style="opacity:1" fill="#01c164" d="M 476.5,1126.5 C 522.073,1123.98 565.739,1131.82 607.5,1150C 667.539,1177.69 720.039,1215.86 765,1264.5C 776.373,1276.87 787.373,1289.54 798,1302.5C 801.509,1313.82 797.509,1320.82 786,1323.5C 779.318,1319.41 772.152,1316.25 764.5,1314C 744.174,1310.71 723.841,1310.71 703.5,1314C 674.139,1319.23 645.806,1327.9 618.5,1340C 588.578,1353.63 559.245,1368.29 530.5,1384C 504.021,1395.44 476.354,1399.77 447.5,1397C 399.568,1388.96 364.402,1363.46 342,1320.5C 311.6,1254.78 325.434,1200.61 383.5,1158C 412.245,1140.59 443.245,1130.09 476.5,1126.5 Z"/></g>
<g><path style="opacity:1" fill="#070403" d="M 1063.5,1136.5 C 1077.96,1135.12 1083.79,1141.45 1081,1155.5C 1076.98,1162.14 1071.15,1164.3 1063.5,1162C 1056.56,1158.2 1054.06,1152.37 1056,1144.5C 1058.03,1141.31 1060.53,1138.64 1063.5,1136.5 Z"/></g>
<g><path style="opacity:1" fill="#f8f8f8" d="M 1069.5,1139.5 C 1075.16,1138.68 1076.82,1140.85 1074.5,1146C 1068.74,1147.14 1067.07,1144.97 1069.5,1139.5 Z"/></g>
<g><path style="opacity:1" fill="#080301" d="M 1001.5,1143.5 C 1017.45,1142.6 1022.95,1149.6 1018,1164.5C 1012.44,1170.92 1005.94,1172.09 998.5,1168C 991.046,1158.69 992.046,1150.53 1001.5,1143.5 Z"/></g>
<g><path style="opacity:1" fill="#ededed" d="M 1006.5,1147.5 C 1011.21,1147.43 1012.87,1149.6 1011.5,1154C 1009.1,1156.15 1006.94,1155.98 1005,1153.5C 1004.25,1151.16 1004.75,1149.16 1006.5,1147.5 Z"/></g>
<g><path style="opacity:1" fill="#05090a" d="M 1941.5,1157.5 C 1944.04,1157.1 1946.21,1157.77 1948,1159.5C 1950.94,1166.96 1952.61,1174.63 1953,1182.5C 1951.06,1184.98 1948.9,1185.15 1946.5,1183C 1940.4,1179.2 1934.57,1175.03 1929,1170.5C 1928.41,1167.41 1929.75,1165.75 1933,1165.5C 1936.26,1166.63 1939.26,1168.3 1942,1170.5C 1941.92,1167.33 1941.42,1164.17 1940.5,1161C 1940.65,1159.74 1940.98,1158.58 1941.5,1157.5 Z"/></g>
<g><path style="opacity:1" fill="#b4013c" d="M 1386.5,1173.5 C 1395.5,1172.92 1401.34,1176.92 1404,1185.5C 1404.17,1189.21 1404.67,1192.88 1405.5,1196.5C 1411.36,1192.98 1417.69,1191.81 1424.5,1193C 1432.87,1196.91 1436.04,1203.41 1434,1212.5C 1430.79,1219.03 1425.62,1223.53 1418.5,1226C 1406.19,1230.31 1393.53,1232.81 1380.5,1233.5C 1377.59,1223.7 1375.42,1213.7 1374,1203.5C 1370.16,1189.78 1374.33,1179.78 1386.5,1173.5 Z"/></g>
<g><path style="opacity:1" fill="#040100" d="M 1045.5,1178.5 C 1053.66,1177.24 1060.5,1179.57 1066,1185.5C 1069.34,1196.49 1065.34,1202.82 1054,1204.5C 1047.85,1203.55 1041.68,1203.38 1035.5,1204C 1030.67,1206.08 1025.67,1207.58 1020.5,1208.5C 1014.92,1208.01 1012.75,1205.01 1014,1199.5C 1017.17,1193.67 1021.67,1189.17 1027.5,1186C 1033.48,1183.18 1039.48,1180.68 1045.5,1178.5 Z"/></g>
<g><path style="opacity:1" fill="#060606" d="M 1930.5,1252.5 C 1933.65,1252.74 1936.65,1253.57 1939.5,1255C 1943.54,1255.83 1947.54,1255.66 1951.5,1254.5C 1941.04,1240.78 1927.37,1233.11 1910.5,1231.5C 1912.3,1233.96 1913.63,1236.62 1914.5,1239.5C 1904.16,1229.65 1901.33,1217.98 1906,1204.5C 1910.09,1200.7 1914.92,1199.53 1920.5,1201C 1927.21,1207.37 1934.21,1213.37 1941.5,1219C 1952.77,1222.87 1964.1,1226.53 1975.5,1230C 1982.79,1238.36 1981.79,1245.69 1972.5,1252C 1967.07,1255.76 1961.07,1257.59 1954.5,1257.5C 1948.49,1257.09 1942.49,1256.59 1936.5,1256C 1934.27,1255.06 1932.27,1253.89 1930.5,1252.5 Z"/></g>
<g><path style="opacity:1" fill="#050a0a" d="M 2003.5,1199.5 C 2006.19,1199.34 2008.85,1199.5 2011.5,1200C 2014.17,1202.33 2014.17,1204.67 2011.5,1207C 2008.47,1207.54 2005.47,1208.21 2002.5,1209C 2005.42,1211.05 2008.26,1213.21 2011,1215.5C 2011.36,1218.49 2010.03,1220.49 2007,1221.5C 2000.93,1217.55 1994.77,1213.71 1988.5,1210C 1985.6,1206.84 1985.93,1204.18 1989.5,1202C 1994.43,1201.88 1999.1,1201.05 2003.5,1199.5 Z"/></g>
<g><path style="opacity:1" fill="#f0f0f0" d="M 1922.5,1204.5 C 1928.47,1212.3 1935.8,1218.47 1944.5,1223C 1953.45,1226.05 1962.45,1228.72 1971.5,1231C 1968.06,1233.32 1964.23,1234.49 1960,1234.5C 1945.91,1231.62 1934.25,1224.62 1925,1213.5C 1923.45,1210.69 1922.62,1207.69 1922.5,1204.5 Z"/></g>
<g><path style="opacity:1" fill="#fdf9fa" d="M 1409.5,1206.5 C 1417.86,1206.67 1421.03,1210.67 1419,1218.5C 1413.84,1224.06 1409.17,1223.73 1405,1217.5C 1403.78,1212.63 1405.28,1208.96 1409.5,1206.5 Z"/></g>
<g><path style="opacity:1" fill="#f9f8f8" d="M 3027.5,1371.5 C 3035.43,1373.47 3043.77,1374.14 3052.5,1373.5C 3052.5,1374.83 3052.5,1376.17 3052.5,1377.5C 3042.58,1377.82 3032.75,1377.49 3023,1376.5C 3022.5,1319.5 3022.33,1262.5 3022.5,1205.5C 3024.17,1205.5 3025.83,1205.5 3027.5,1205.5C 3027.5,1260.83 3027.5,1316.17 3027.5,1371.5 Z"/></g>
<g><path style="opacity:1" fill="#eeeeee" d="M 3115.5,1204.5 C 3115.5,1206.5 3115.5,1208.5 3115.5,1210.5C 3102.5,1210.5 3089.5,1210.5 3076.5,1210.5C 3075.5,1235.99 3075.17,1261.66 3075.5,1287.5C 3089.5,1287.33 3103.5,1287.5 3117.5,1288C 3118.34,1289.01 3118.67,1290.18 3118.5,1291.5C 3118.5,1291.83 3118.5,1292.17 3118.5,1292.5C 3104.17,1292.5 3089.83,1292.5 3075.5,1292.5C 3075.17,1318.67 3075.5,1344.67 3076.5,1370.5C 3088.99,1371.33 3101.66,1371.83 3114.5,1372C 3115.38,1373.36 3115.71,1374.86 3115.5,1376.5C 3100.59,1376.82 3085.76,1376.49 3071,1375.5C 3070.5,1318.83 3070.33,1262.17 3070.5,1205.5C 3085.32,1204.5 3100.32,1204.17 3115.5,1204.5 Z"/></g>
<g><path style="opacity:1" fill="#e1e0e0" d="M 3132.5,1205.5 C 3148.04,1231.59 3163.38,1257.59 3178.5,1283.5C 3178.75,1284.92 3179.58,1285.92 3181,1286.5C 3183.48,1283.86 3185.32,1280.86 3186.5,1277.5C 3186.63,1274.23 3188.13,1271.9 3191,1270.5C 3191.47,1266.89 3192.97,1263.89 3195.5,1261.5C 3199.02,1259.13 3201.02,1255.8 3201.5,1251.5C 3205.78,1248.21 3208.45,1243.87 3209.5,1238.5C 3209.5,1238.17 3209.5,1237.83 3209.5,1237.5C 3214.11,1233.03 3217.45,1227.69 3219.5,1221.5C 3219.49,1219.69 3219.99,1218.02 3221,1216.5C 3223.44,1213.58 3225.61,1210.58 3227.5,1207.5C 3228.79,1206.71 3229.96,1205.71 3231,1204.5C 3231.67,1205.25 3232.5,1205.59 3233.5,1205.5C 3233.5,1206.5 3233.5,1207.5 3233.5,1208.5C 3231.39,1209.95 3230.06,1211.95 3229.5,1214.5C 3226.28,1219.59 3223.45,1224.92 3221,1230.5C 3217.97,1232.3 3216.47,1234.96 3216.5,1238.5C 3213.74,1239.95 3212.07,1242.28 3211.5,1245.5C 3211.32,1246.69 3210.99,1247.86 3210.5,1249C 3203.85,1256.94 3198.68,1265.77 3195,1275.5C 3194,1277.83 3192.33,1279.5 3190,1280.5C 3189.19,1282.44 3188.69,1284.44 3188.5,1286.5C 3184.76,1288.22 3183.76,1290.88 3185.5,1294.5C 3187.73,1297.18 3189.4,1300.18 3190.5,1303.5C 3192.68,1306.04 3194.18,1309.04 3195,1312.5C 3195.71,1313.38 3196.54,1314.05 3197.5,1314.5C 3208.19,1333.03 3219.36,1351.36 3231,1369.5C 3232.12,1371.77 3232.95,1374.1 3233.5,1376.5C 3231.49,1377.01 3229.49,1377.18 3227.5,1377C 3226.92,1375.7 3226.25,1374.53 3225.5,1373.5C 3224.49,1371.46 3223.49,1369.46 3222.5,1367.5C 3209.21,1345.56 3195.88,1323.56 3182.5,1301.5C 3180.17,1300.16 3178.5,1300.83 3177.5,1303.5C 3171.65,1314.56 3165.31,1325.22 3158.5,1335.5C 3156.75,1337.03 3155.75,1339.03 3155.5,1341.5C 3153.41,1345.36 3151.07,1349.03 3148.5,1352.5C 3146.75,1354.03 3145.75,1356.03 3145.5,1358.5C 3145.5,1359.17 3145.17,1359.5 3144.5,1359.5C 3143.54,1359.95 3142.71,1360.62 3142,1361.5C 3140.6,1364.06 3139.44,1366.73 3138.5,1369.5C 3136.95,1370.91 3135.61,1372.58 3134.5,1374.5C 3133.68,1375.39 3132.68,1375.72 3131.5,1375.5C 3133.82,1370.18 3136.16,1364.85 3138.5,1359.5C 3138.5,1359.17 3138.5,1358.83 3138.5,1358.5C 3141.96,1354.7 3144.62,1350.36 3146.5,1345.5C 3146.53,1343.8 3147.19,1342.47 3148.5,1341.5C 3151.08,1339.91 3152.41,1337.58 3152.5,1334.5C 3154.94,1332.88 3156.28,1330.55 3156.5,1327.5C 3157.67,1324.49 3159.34,1321.82 3161.5,1319.5C 3163.47,1317.35 3165.3,1315.02 3167,1312.5C 3170.43,1306.59 3173.59,1300.59 3176.5,1294.5C 3176.66,1293.13 3176.49,1291.79 3176,1290.5C 3172.82,1284.81 3169.16,1279.47 3165,1274.5C 3159.97,1263.12 3153.63,1252.45 3146,1242.5C 3140.97,1232.6 3135.47,1222.93 3129.5,1213.5C 3128.18,1211.69 3127.68,1209.69 3128,1207.5C 3129.19,1205.35 3130.69,1204.68 3132.5,1205.5 Z"/></g>
<g><path style="opacity:1" fill="#787877" d="M 3233.5,1205.5 C 3232.5,1205.59 3231.67,1205.25 3231,1204.5C 3229.96,1205.71 3228.79,1206.71 3227.5,1207.5C 3228.6,1203.35 3230.6,1202.69 3233.5,1205.5 Z"/></g>
<g><path style="opacity:1" fill="#a3a3a3" d="M 3263.5,1204.5 C 3263.99,1206 3264.66,1207.33 3265.5,1208.5C 3265.88,1210.94 3265.21,1211.61 3263.5,1210.5C 3262.67,1229.16 3262.17,1247.82 3262,1266.5C 3261.78,1246.99 3261.28,1227.49 3260.5,1208C 3260.83,1206.5 3261.17,1205 3261.5,1203.5C 3262.18,1203.86 3262.85,1204.2 3263.5,1204.5 Z"/></g>
<g><path style="opacity:1" fill="#797979" d="M 3233.5,1208.5 C 3233.38,1211.29 3232.04,1213.29 3229.5,1214.5C 3230.06,1211.95 3231.39,1209.95 3233.5,1208.5 Z"/></g>
<g><path style="opacity:1" fill="#5b5b5a" d="M 3263.5,1204.5 C 3262.85,1204.2 3262.18,1203.86 3261.5,1203.5C 3261.17,1205 3260.83,1206.5 3260.5,1208C 3261.28,1227.49 3261.78,1246.99 3262,1266.5C 3262.17,1247.82 3262.67,1229.16 3263.5,1210.5C 3265.21,1211.61 3265.88,1210.94 3265.5,1208.5C 3279.36,1232.74 3288.36,1258.74 3292.5,1286.5C 3292.66,1288.2 3292.49,1289.87 3292,1291.5C 3292.08,1287.69 3291.25,1284.36 3289.5,1281.5C 3284.68,1257.22 3276.35,1234.22 3264.5,1212.5C 3263.83,1232.17 3263.17,1251.83 3262.5,1271.5C 3262.02,1281.38 3260.69,1291.05 3258.5,1300.5C 3260.99,1306 3264.33,1311 3268.5,1315.5C 3271.79,1321.12 3274.12,1327.12 3275.5,1333.5C 3275.54,1336.88 3275.21,1340.21 3274.5,1343.5C 3273.83,1344.83 3273.17,1346.17 3272.5,1347.5C 3271.83,1347.5 3271.17,1347.5 3270.5,1347.5C 3270.23,1345.57 3270.73,1343.9 3272,1342.5C 3272.67,1338.17 3272.67,1333.83 3272,1329.5C 3270.53,1325.43 3268.86,1321.43 3267,1317.5C 3262.79,1312.29 3258.96,1306.79 3255.5,1301C 3257.91,1290.84 3259.25,1280.51 3259.5,1270C 3260.81,1247.5 3260.81,1225 3259.5,1202.5C 3261.48,1202.16 3262.82,1202.82 3263.5,1204.5 Z"/></g>
<g><path style="opacity:1" fill="#252525" d="M 3076.5,1210.5 C 3089.5,1210.5 3102.5,1210.5 3115.5,1210.5C 3103.01,1211.5 3090.34,1211.83 3077.5,1211.5C 3077.5,1236.17 3077.5,1260.83 3077.5,1285.5C 3091.34,1285.17 3105.01,1285.5 3118.5,1286.5C 3104.5,1286.5 3090.5,1286.5 3076.5,1286.5C 3076.5,1261.17 3076.5,1235.83 3076.5,1210.5 Z"/></g>
<g><path style="opacity:1" fill="#f746b3" d="M 1930.5,1252.5 C 1930.03,1251.09 1929.03,1250.43 1927.5,1250.5C 1924.88,1249.21 1922.55,1247.55 1920.5,1245.5C 1918.83,1243.17 1916.83,1241.17 1914.5,1239.5C 1913.63,1236.62 1912.3,1233.96 1910.5,1231.5C 1927.37,1233.11 1941.04,1240.78 1951.5,1254.5C 1947.54,1255.66 1943.54,1255.83 1939.5,1255C 1936.65,1253.57 1933.65,1252.74 1930.5,1252.5 Z"/></g>
<g><path style="opacity:1" fill="#6d6d6d" d="M 3070.5,1205.5 C 3070.33,1262.17 3070.5,1318.83 3071,1375.5C 3085.76,1376.49 3100.59,1376.82 3115.5,1376.5C 3100.67,1377.66 3085.67,1377.83 3070.5,1377C 3069.94,1376.62 3069.61,1376.12 3069.5,1375.5C 3069.17,1318.66 3069.5,1262 3070.5,1205.5 Z"/></g>
<g><path style="opacity:1" fill="#b4013c" d="M 1473.5,1231.5 C 1481.89,1230.78 1487.39,1234.45 1490,1242.5C 1490.33,1246.83 1490.67,1251.17 1491,1255.5C 1497.08,1250.86 1503.91,1249.36 1511.5,1251C 1522.01,1256.88 1524.18,1265.04 1518,1275.5C 1508.82,1282.9 1498.32,1287.4 1486.5,1289C 1479.89,1290.21 1473.22,1290.71 1466.5,1290.5C 1465.32,1284.44 1463.82,1278.44 1462,1272.5C 1460.11,1263.58 1459.44,1254.58 1460,1245.5C 1462.02,1238.32 1466.52,1233.65 1473.5,1231.5 Z"/></g>
<g><path style="opacity:1" fill="#878787" d="M 3219.5,1221.5 C 3217.45,1227.69 3214.11,1233.03 3209.5,1237.5C 3212.58,1231.88 3215.92,1226.55 3219.5,1221.5 Z"/></g>
<g><path style="opacity:1" fill="#343434" d="M 3115.5,1204.5 C 3100.32,1204.17 3085.32,1204.5 3070.5,1205.5C 3069.5,1262 3069.17,1318.66 3069.5,1375.5C 3068.33,1318.67 3068.17,1261.67 3069,1204.5C 3084.6,1203.17 3100.1,1203.17 3115.5,1204.5 Z"/></g>
<g><path style="opacity:1" fill="#3e3d4a" d="M 1914.5,1239.5 C 1916.83,1241.17 1918.83,1243.17 1920.5,1245.5C 1917.5,1244.5 1915.5,1242.5 1914.5,1239.5 Z"/></g>
<g><path style="opacity:1" fill="#e1e1e1" d="M 3402.5,1241.5 C 3402.5,1244.83 3402.5,1248.17 3402.5,1251.5C 3400.17,1251.5 3397.83,1251.5 3395.5,1251.5C 3396.16,1243.51 3394.99,1235.84 3392,1228.5C 3389.74,1225.81 3387.58,1223.14 3385.5,1220.5C 3380.55,1215.86 3374.89,1212.53 3368.5,1210.5C 3368.08,1209.78 3367.42,1209.28 3366.5,1209C 3360.17,1208.33 3353.83,1208.33 3347.5,1209C 3346.94,1209.38 3346.61,1209.88 3346.5,1210.5C 3343.48,1211.72 3340.31,1212.72 3337,1213.5C 3335.97,1213.84 3335.47,1214.5 3335.5,1215.5C 3330.9,1217.11 3327.56,1220.11 3325.5,1224.5C 3323.35,1228.09 3321.35,1231.76 3319.5,1235.5C 3318.34,1243.32 3318.18,1251.32 3319,1259.5C 3319.9,1261.43 3321.07,1263.1 3322.5,1264.5C 3329.41,1278.08 3340.41,1285.74 3355.5,1287.5C 3360.43,1288.7 3365.43,1290.03 3370.5,1291.5C 3375.86,1293.24 3380.86,1295.74 3385.5,1299C 3389.33,1302.83 3393.17,1306.67 3397,1310.5C 3399.55,1313.76 3401.05,1317.42 3401.5,1321.5C 3401.89,1328.5 3402.23,1335.5 3402.5,1342.5C 3401.65,1346.86 3400.32,1351.19 3398.5,1355.5C 3395.82,1359.18 3393.15,1362.85 3390.5,1366.5C 3383.06,1371.85 3375.06,1375.85 3366.5,1378.5C 3360.47,1378.57 3354.47,1378.24 3348.5,1377.5C 3328.91,1372.25 3317.91,1359.58 3315.5,1339.5C 3315.34,1337.8 3315.51,1336.13 3316,1334.5C 3317.05,1333.48 3318.22,1333.32 3319.5,1334C 3320.13,1336.94 3320.79,1339.77 3321.5,1342.5C 3321.52,1344.93 3322.02,1347.26 3323,1349.5C 3325.34,1352.17 3327.17,1355.17 3328.5,1358.5C 3331.17,1360.67 3333.51,1363.17 3335.5,1366C 3338.5,1368.5 3341.84,1370.33 3345.5,1371.5C 3345.61,1372.12 3345.94,1372.62 3346.5,1373C 3353.35,1373.82 3360.01,1373.65 3366.5,1372.5C 3372.05,1372.21 3377.05,1370.54 3381.5,1367.5C 3385.83,1365.17 3389.17,1361.83 3391.5,1357.5C 3392.97,1354.55 3394.47,1351.55 3396,1348.5C 3396.5,1346.53 3396.66,1344.53 3396.5,1342.5C 3397.82,1339.91 3398.48,1336.91 3398.5,1333.5C 3398.52,1329.1 3398.02,1324.76 3397,1320.5C 3396.05,1318.91 3394.88,1317.57 3393.5,1316.5C 3393.65,1315.45 3393.48,1314.45 3393,1313.5C 3388.09,1307.59 3382.26,1302.76 3375.5,1299C 3364.82,1297 3354.15,1295 3343.5,1293C 3329.74,1286.75 3320.41,1276.58 3315.5,1262.5C 3312.83,1253.17 3312.83,1243.83 3315.5,1234.5C 3327.05,1206.92 3347.38,1197.75 3376.5,1207C 3386.36,1212.86 3394.19,1220.69 3400,1230.5C 3400.63,1234.35 3401.47,1238.01 3402.5,1241.5 Z"/></g>
<g><path style="opacity:1" fill="#676767" d="M 3335.5,1215.5 C 3332.19,1218.47 3328.86,1221.47 3325.5,1224.5C 3327.56,1220.11 3330.9,1217.11 3335.5,1215.5 Z"/></g>
<g><path style="opacity:1" fill="#7b7b7b" d="M 3368.5,1210.5 C 3361.15,1209.25 3353.81,1209.25 3346.5,1210.5C 3346.61,1209.88 3346.94,1209.38 3347.5,1209C 3353.83,1208.33 3360.17,1208.33 3366.5,1209C 3367.42,1209.28 3368.08,1209.78 3368.5,1210.5 Z"/></g>
<g><path style="opacity:1" fill="#8f8f8f" d="M 3076.5,1210.5 C 3076.5,1235.83 3076.5,1261.17 3076.5,1286.5C 3090.5,1286.5 3104.5,1286.5 3118.5,1286.5C 3119.83,1288.17 3119.83,1289.83 3118.5,1291.5C 3118.67,1290.18 3118.34,1289.01 3117.5,1288C 3103.5,1287.5 3089.5,1287.33 3075.5,1287.5C 3075.17,1261.66 3075.5,1235.99 3076.5,1210.5 Z"/></g>
<g><path style="opacity:1" fill="#515151" d="M 3385.5,1220.5 C 3387.58,1223.14 3389.74,1225.81 3392,1228.5C 3394.99,1235.84 3396.16,1243.51 3395.5,1251.5C 3395.18,1244.05 3393.68,1236.72 3391,1229.5C 3387.69,1227.37 3385.86,1224.37 3385.5,1220.5 Z"/></g>
<g><path style="opacity:1" fill="#747474" d="M 3319.5,1235.5 C 3319.33,1243.17 3319.5,1250.84 3320,1258.5C 3321.32,1260.29 3322.15,1262.29 3322.5,1264.5C 3321.07,1263.1 3319.9,1261.43 3319,1259.5C 3318.18,1251.32 3318.34,1243.32 3319.5,1235.5 Z"/></g>
<g><path style="opacity:1" fill="#6e6d6d" d="M 3216.5,1238.5 C 3215.57,1241.4 3213.9,1243.73 3211.5,1245.5C 3212.07,1242.28 3213.74,1239.95 3216.5,1238.5 Z"/></g>
<g><path style="opacity:1" fill="#898989" d="M 3315.5,1234.5 C 3312.83,1243.83 3312.83,1253.17 3315.5,1262.5C 3314.88,1262.39 3314.38,1262.06 3314,1261.5C 3312.04,1252.84 3312.04,1244.17 3314,1235.5C 3314.38,1234.94 3314.88,1234.61 3315.5,1234.5 Z"/></g>
<g><path style="opacity:1" fill="#868685" d="M 3209.5,1238.5 C 3208.45,1243.87 3205.78,1248.21 3201.5,1251.5C 3203.07,1246.38 3205.74,1242.05 3209.5,1238.5 Z"/></g>
<g><path style="opacity:1" fill="#3b2636" d="M 1927.5,1250.5 C 1929.03,1250.43 1930.03,1251.09 1930.5,1252.5C 1928.97,1252.57 1927.97,1251.91 1927.5,1250.5 Z"/></g>
<g><path style="opacity:1" fill="#777777" d="M 3402.5,1241.5 C 3403.48,1244.96 3403.81,1248.63 3403.5,1252.5C 3400.61,1252.81 3397.95,1252.47 3395.5,1251.5C 3397.83,1251.5 3400.17,1251.5 3402.5,1251.5C 3402.5,1248.17 3402.5,1244.83 3402.5,1241.5 Z"/></g>
<g><path style="opacity:1" fill="#030102" d="M 1366.5,1258.5 C 1376.52,1257.02 1384.02,1260.69 1389,1269.5C 1391.94,1278.56 1396.77,1286.39 1403.5,1293C 1404.87,1293.87 1406.37,1294.37 1408,1294.5C 1416.13,1292.17 1423.46,1293.5 1430,1298.5C 1433.7,1306.18 1433.03,1313.51 1428,1320.5C 1419.59,1330.86 1408.76,1335.36 1395.5,1334C 1381.6,1330.64 1369.77,1323.8 1360,1313.5C 1348.19,1298.82 1346.52,1283.16 1355,1266.5C 1358.46,1263.19 1362.3,1260.53 1366.5,1258.5 Z"/></g>
<g><path style="opacity:1" fill="#818180" d="M 3201.5,1251.5 C 3201.02,1255.8 3199.02,1259.13 3195.5,1261.5C 3196.58,1257.58 3198.58,1254.24 3201.5,1251.5 Z"/></g>
<g><path style="opacity:1" fill="#fdf7f9" d="M 1501.5,1262.5 C 1508.99,1262.48 1512.49,1266.15 1512,1273.5C 1506.87,1280.07 1501.87,1280.07 1497,1273.5C 1495.78,1268.63 1497.28,1264.96 1501.5,1262.5 Z"/></g>
<g><path style="opacity:1" fill="#808080" d="M 3186.5,1277.5 C 3185.32,1280.86 3183.48,1283.86 3181,1286.5C 3179.58,1285.92 3178.75,1284.92 3178.5,1283.5C 3179.42,1284.3 3180.42,1284.47 3181.5,1284C 3183.03,1281.65 3184.7,1279.48 3186.5,1277.5 Z"/></g>
<g><path style="opacity:1" fill="#454545" d="M 3355.5,1287.5 C 3358.19,1287.34 3360.85,1287.5 3363.5,1288C 3366.08,1288.86 3368.42,1290.03 3370.5,1291.5C 3365.43,1290.03 3360.43,1288.7 3355.5,1287.5 Z"/></g>
<g><path style="opacity:1" fill="#292929" d="M 3270.5,1347.5 C 3271.17,1347.5 3271.83,1347.5 3272.5,1347.5C 3271.35,1349.74 3270.35,1352.07 3269.5,1354.5C 3270.75,1358.75 3271.58,1363.08 3272,1367.5C 3273.23,1360.84 3274.4,1354.18 3275.5,1347.5C 3275.49,1345.95 3275.16,1344.62 3274.5,1343.5C 3275.21,1340.21 3275.54,1336.88 3275.5,1333.5C 3276.31,1335.63 3276.81,1337.96 3277,1340.5C 3277.56,1336.81 3278.23,1333.15 3279,1329.5C 3279.67,1312.17 3279.67,1294.83 3279,1277.5C 3277.24,1273.65 3277.08,1269.65 3278.5,1265.5C 3285.16,1303.88 3282.66,1341.54 3271,1378.5C 3270.59,1378.96 3270.09,1379.29 3269.5,1379.5C 3268.91,1371.6 3267.91,1363.77 3266.5,1356C 3267.17,1353.67 3267.83,1351.33 3268.5,1349C 3268.84,1347.97 3269.5,1347.47 3270.5,1347.5 Z"/></g>
<g><path style="opacity:1" fill="#636362" d="M 3188.5,1286.5 C 3186.97,1288.97 3185.97,1291.63 3185.5,1294.5C 3183.76,1290.88 3184.76,1288.22 3188.5,1286.5 Z"/></g>
<g><path style="opacity:1" fill="#242424" d="M 3289.5,1281.5 C 3291.25,1284.36 3292.08,1287.69 3292,1291.5C 3292.49,1289.87 3292.66,1288.2 3292.5,1286.5C 3293.27,1287.26 3293.77,1288.26 3294,1289.5C 3295.47,1300.54 3294.3,1311.21 3290.5,1321.5C 3290.77,1308.19 3290.44,1294.86 3289.5,1281.5 Z"/></g>
<g><path style="opacity:1" fill="#525252" d="M 3190.5,1303.5 C 3194.11,1306.28 3196.44,1309.95 3197.5,1314.5C 3196.54,1314.05 3195.71,1313.38 3195,1312.5C 3194.18,1309.04 3192.68,1306.04 3190.5,1303.5 Z"/></g>
<g><path style="opacity:1" fill="#767676" d="M 3176.5,1294.5 C 3173.59,1300.59 3170.43,1306.59 3167,1312.5C 3165.3,1315.02 3163.47,1317.35 3161.5,1319.5C 3165.33,1310.37 3170.33,1302.03 3176.5,1294.5 Z"/></g>
<g><path style="opacity:1" fill="#858585" d="M 3118.5,1292.5 C 3104.68,1293.5 3090.68,1293.83 3076.5,1293.5C 3076.5,1319.17 3076.5,1344.83 3076.5,1370.5C 3075.5,1344.67 3075.17,1318.67 3075.5,1292.5C 3089.83,1292.5 3104.17,1292.5 3118.5,1292.5 Z"/></g>
<g><path style="opacity:1" fill="#6e6e6e" d="M 3156.5,1327.5 C 3156.28,1330.55 3154.94,1332.88 3152.5,1334.5C 3153.47,1331.9 3154.8,1329.57 3156.5,1327.5 Z"/></g>
<g><path style="opacity:1" fill="#5c5c5b" d="M 3321.5,1342.5 C 3320.79,1339.77 3320.13,1336.94 3319.5,1334C 3318.22,1333.32 3317.05,1333.48 3316,1334.5C 3315.51,1336.13 3315.34,1337.8 3315.5,1339.5C 3313.08,1334.18 3314.75,1332.01 3320.5,1333C 3321.45,1336.06 3321.78,1339.22 3321.5,1342.5 Z"/></g>
<g><path style="opacity:1" fill="#a0a09e" d="M 3401.5,1321.5 C 3403.01,1325.39 3403.67,1329.56 3403.5,1334C 3403.5,1337.02 3403.16,1339.85 3402.5,1342.5C 3402.23,1335.5 3401.89,1328.5 3401.5,1321.5 Z"/></g>
<g><path style="opacity:1" fill="#6d6c6a" d="M 3393.5,1316.5 C 3394.88,1317.57 3396.05,1318.91 3397,1320.5C 3398.02,1324.76 3398.52,1329.1 3398.5,1333.5C 3398.48,1336.91 3397.82,1339.91 3396.5,1342.5C 3397.16,1333.56 3396.16,1324.89 3393.5,1316.5 Z"/></g>
<g><path style="opacity:1" fill="#747474" d="M 3152.5,1334.5 C 3152.41,1337.58 3151.08,1339.91 3148.5,1341.5C 3149.08,1338.67 3150.41,1336.34 3152.5,1334.5 Z"/></g>
<g><path style="opacity:1" fill="#626261" d="M 3158.5,1335.5 C 3158.25,1337.97 3157.25,1339.97 3155.5,1341.5C 3155.75,1339.03 3156.75,1337.03 3158.5,1335.5 Z"/></g>
<g><path style="opacity:1" fill="#a09e9b" d="M 3027.5,1203.5 C 3027.5,1204.17 3027.83,1204.5 3028.5,1204.5C 3028.5,1260.17 3028.5,1315.83 3028.5,1371.5C 3028.17,1371.5 3027.83,1371.5 3027.5,1371.5C 3027.5,1316.17 3027.5,1260.83 3027.5,1205.5C 3025.83,1205.5 3024.17,1205.5 3022.5,1205.5C 3022.33,1262.5 3022.5,1319.5 3023,1376.5C 3032.75,1377.49 3042.58,1377.82 3052.5,1377.5C 3052.83,1377.5 3053.17,1377.5 3053.5,1377.5C 3043.01,1378.49 3032.35,1378.83 3021.5,1378.5C 3021.5,1320.5 3021.5,1262.5 3021.5,1204.5C 3023.38,1203.66 3025.38,1203.33 3027.5,1203.5 Z"/></g>
<g><path style="opacity:1" fill="#0a0a0a" d="M 3274.5,1343.5 C 3275.16,1344.62 3275.49,1345.95 3275.5,1347.5C 3274.4,1354.18 3273.23,1360.84 3272,1367.5C 3271.58,1363.08 3270.75,1358.75 3269.5,1354.5C 3270.35,1352.07 3271.35,1349.74 3272.5,1347.5C 3273.17,1346.17 3273.83,1344.83 3274.5,1343.5 Z"/></g>
<g><path style="opacity:1" fill="#7b7b7b" d="M 3146.5,1345.5 C 3144.62,1350.36 3141.96,1354.7 3138.5,1358.5C 3140.49,1354.52 3142.49,1350.52 3144.5,1346.5C 3144.96,1345.7 3145.62,1345.37 3146.5,1345.5 Z"/></g>
<g><path style="opacity:1" fill="#616161" d="M 3148.5,1352.5 C 3148.25,1354.97 3147.25,1356.97 3145.5,1358.5C 3145.75,1356.03 3146.75,1354.03 3148.5,1352.5 Z"/></g>
<g><path style="opacity:1" fill="#747373" d="M 3391.5,1357.5 C 3389.17,1361.83 3385.83,1365.17 3381.5,1367.5C 3384.5,1363.83 3387.83,1360.5 3391.5,1357.5 Z"/></g>
<g><path style="opacity:1" fill="#9b9a9a" d="M 3138.5,1359.5 C 3136.16,1364.85 3133.82,1370.18 3131.5,1375.5C 3132.68,1375.72 3133.68,1375.39 3134.5,1374.5C 3135.61,1372.58 3136.95,1370.91 3138.5,1369.5C 3137.72,1374.12 3135.05,1376.45 3130.5,1376.5C 3130.44,1374.12 3130.78,1371.78 3131.5,1369.5C 3134.2,1366.28 3136.54,1362.95 3138.5,1359.5 Z"/></g>
<g><path style="opacity:1" fill="#747474" d="M 3144.5,1359.5 C 3143.42,1363.42 3141.42,1366.76 3138.5,1369.5C 3139.44,1366.73 3140.6,1364.06 3142,1361.5C 3142.71,1360.62 3143.54,1359.95 3144.5,1359.5 Z"/></g>
<g><path style="opacity:1" fill="#585858" d="M 3076.5,1370.5 C 3089.5,1370.33 3102.5,1370.5 3115.5,1371C 3116.81,1372.94 3116.81,1374.78 3115.5,1376.5C 3115.71,1374.86 3115.38,1373.36 3114.5,1372C 3101.66,1371.83 3088.99,1371.33 3076.5,1370.5 Z"/></g>
<g><path style="opacity:1" fill="#706d69" d="M 3222.5,1367.5 C 3223.49,1369.46 3224.49,1371.46 3225.5,1373.5C 3223.02,1372.31 3222.02,1370.31 3222.5,1367.5 Z"/></g>
<g><path style="opacity:1" fill="#b7b7b6" d="M 3027.5,1371.5 C 3027.83,1371.5 3028.17,1371.5 3028.5,1371.5C 3036.98,1372.49 3045.65,1372.83 3054.5,1372.5C 3054.78,1374.41 3054.45,1376.08 3053.5,1377.5C 3053.17,1377.5 3052.83,1377.5 3052.5,1377.5C 3052.5,1376.17 3052.5,1374.83 3052.5,1373.5C 3043.77,1374.14 3035.43,1373.47 3027.5,1371.5 Z"/></g>
<g><path style="opacity:1" fill="#797878" d="M 3345.5,1371.5 C 3352.44,1372.43 3359.44,1372.76 3366.5,1372.5C 3360.01,1373.65 3353.35,1373.82 3346.5,1373C 3345.94,1372.62 3345.61,1372.12 3345.5,1371.5 Z"/></g>
<g><path style="opacity:1" fill="#898989" d="M 3348.5,1377.5 C 3354.47,1378.24 3360.47,1378.57 3366.5,1378.5C 3361.02,1379.65 3355.35,1379.82 3349.5,1379C 3348.94,1378.62 3348.61,1378.12 3348.5,1377.5 Z"/></g>
<g><path style="opacity:1" fill="#c1c1c1" d="M 968.5,1415.5 C 1144,1414.5 1319.67,1414.17 1495.5,1414.5C 1495.83,1432.34 1495.5,1450.01 1494.5,1467.5C 1494.5,1450.17 1494.5,1432.83 1494.5,1415.5C 1319.17,1415.5 1143.83,1415.5 968.5,1415.5 Z"/></g>
<g><path style="opacity:1" fill="#fdfdfd" d="M 392.5,1414.5 C 567.833,1414.5 743.167,1414.5 918.5,1414.5C 918.5,1432.17 918.5,1449.83 918.5,1467.5C 743.167,1467.5 567.833,1467.5 392.5,1467.5C 392.5,1449.83 392.5,1432.17 392.5,1414.5 Z"/></g>
<g><path style="opacity:1" fill="#fefefe" d="M 968.5,1415.5 C 1143.83,1415.5 1319.17,1415.5 1494.5,1415.5C 1494.5,1432.83 1494.5,1450.17 1494.5,1467.5C 1319.17,1467.5 1143.83,1467.5 968.5,1467.5C 968.5,1450.17 968.5,1432.83 968.5,1415.5 Z"/></g>
<g><path style="opacity:1" fill="#5f000d" d="M 937.5,1475.5 C 951.15,1473.39 963.483,1476.39 974.5,1484.5C 998.778,1483.07 1023.11,1482.4 1047.5,1482.5C 1199.82,1484.8 1352.16,1486.3 1504.5,1487C 1510.3,1487.81 1514.8,1490.64 1518,1495.5C 1522.51,1508.18 1522.51,1520.84 1518,1533.5C 1515.28,1538.55 1511.11,1541.72 1505.5,1543C 1431.01,1541.71 1356.51,1540.88 1282,1540.5C 1203.83,1541.35 1125.67,1541.52 1047.5,1541C 1023.16,1540.71 998.822,1540.05 974.5,1539C 966.015,1535.89 962.182,1529.72 963,1520.5C 953.77,1512.4 943.936,1511.57 933.5,1518C 931.947,1522.06 930.447,1526.23 929,1530.5C 926.188,1534.66 922.355,1537.49 917.5,1539C 842.852,1537.67 768.185,1536.84 693.5,1536.5C 590.818,1538.32 488.152,1537.82 385.5,1535C 378.786,1533.1 375.286,1528.6 375,1521.5C 373.938,1509.72 374.604,1498.05 377,1486.5C 378.868,1482.48 382.035,1480.31 386.5,1480C 411.825,1479.1 437.159,1478.6 462.5,1478.5C 614.668,1480.84 766.835,1482.51 919,1483.5C 924.991,1480.42 931.158,1477.75 937.5,1475.5 Z"/></g>
</svg>
