<?xml version="1.0" encoding="UTF-8" standalone="no"?>
<svg
   viewBox="0 0 200 123.79054"
   version="1.1"
   id="svg836"
   width="200"
   height="123.79054"
   xmlns="http://www.w3.org/2000/svg"
   xmlns:svg="http://www.w3.org/2000/svg">
  <defs
     id="defs840" />
  <g
     id="g2049"
     transform="matrix(0.20976729,0,0,0.20976729,0,-0.18195787)">
    <path
       d="m 703.3212,477.0273 c -4.517,5.224 -11.187,9.101 -16.305,13.877 -5.374,5.017 -11.207,9.401 -16.56,14.357 -23.614,-28.861 -55.962,-46.558 -83.985,-70.507 -13.285,-11.355 -23.073,-26.756 -30.236,-42.562 -3.672,-8.103 -6.385,-16.443 -8.508,-25.075 -0.956,-3.888 -1.891,-7.763 -2.516,-11.704 -0.757,-4.773 -0.953,-5.18 -4.173,-8.905 -1.386,-1.603 -4.071,-6.287 -6.786,-5.771 -2.285,0.435 -6.464,7.39 -7.908,9.108 -6.944,8.263 -13.676,16.777 -20.987,24.72 -11.185,12.154 -21.368,24.114 -31.753,36.996 -21.244,26.355 -44.16,51.164 -67.284,75.963 -1.715,1.839 -5.714,7.232 -8.178,7.957 -2.996,0.881 -7.865,-2.794 -10.882,-4.848 -7.283,-4.958 -13.023,-11.095 -19.249,-17.24 -12.149,-11.992 -20.376,-28.825 -25.91,-44.841 -3.313,-9.587 -5.467,-19.525 -8.886,-29.079 -1.425,-3.982 -4.655,-8.876 -3.015,-12.344 0.488,-1.034 3.596,-3.781 4.692,-3.991 1.296,-0.249 3.457,1.528 3.907,1.405 4.3,-1.177 1.914,-5.678 4.472,-8.1 1.45,-1.374 8.825,-1.173 11.027,-1.928 8.051,-2.762 15.274,-8.03 22.885,-11.175 31.863,-13.164 64.114,-25.969 91.621,-47.466 7.134,-5.574 11.874,-9.763 20.386,-13.366 8.602,-3.641 17.249,-6.889 26.026,-10.066 7.744,-2.803 15.53,-5.431 23.53,-7.44 8.65,-2.173 20.921,-4.928 29.564,-2.129 16.973,5.495 22.454,19.48 29.213,34.233 9.145,19.96 20.202,38.848 32.189,57.22 23.06,35.348 51.106,67.067 73.609,102.701"
       fill="#ff6161"
       id="path504"
       style="fill-rule:evenodd;stroke:none;stroke-width:1" />
    <g
       fill="#000000"
       id="g830"
       style="fill-rule:evenodd;stroke:none;stroke-width:1">
      <path
         d="m 192.16002,164.5296 c -0.934,-0.474 -8.226,2.494 -9.45,2.948 -4.889,1.814 -9.494,4.828 -14.1,7.28 3.53,4.296 7.061,8.593 10.59,12.89 3.46,-8.487 7.907,-15.49 12.96,-23.118 z m 2.407,52.805 c -1.201,0.135 8.939,24.502 10.123,27.238 4.309,9.951 8.833,19.805 13.199,29.731 4.23,9.619 9.596,18.468 15.002,27.454 4.624,7.685 9.38,19.611 16.355,25.303 -4.404,-19.538 -3.824,-42.003 -16.456,-58.408 -13.094,-17.007 -26.04,-33.614 -38.223,-51.318 z m 508.754,260.56 c -19.567,-30.985 -44.061,-58.396 -64.465,-88.828 -11.425,-17.04 -22.545,-34.298 -32.162,-52.436 -6.995,-13.194 -11.343,-32.019 -22.147,-42.106 -4.761,-4.444 -9.848,-8.794 -16.237,-10.785 -8.743,-2.724 -20.781,-0.024 -29.564,2.13 -16.367,4.013 -32.356,10.245 -47.859,16.79 -15.725,6.638 -29.141,18.562 -43.349,28.142 -15.241,10.278 -31.739,17.765 -48.815,24.319 -14.868,5.707 -28.095,13.9 -42.884,19.644 -2.947,1.145 -8.961,0.977 -11.433,2.47 -2.664,1.607 -1.615,6.353 -4.849,8.104 -1.459,0.79 -1.945,-2.074 -3.065,-2.027 -1.37,0.057 -2.619,1.665 -3.939,2.683 -5.375,4.147 -2.082,6.912 0.046,12.618 6.937,18.592 10.665,37.508 20.405,55.06 8.008,14.427 19.469,27.355 32.963,36.906 2.053,1.454 8.744,7.086 11.153,6.711 2.169,-0.336 6.582,-6.102 8.08,-7.668 6.795,-7.106 13.006,-14.75 19.797,-21.867 10.494,-10.999 20.596,-22.293 30.78,-33.442 11.822,-12.943 22.285,-27.608 32.933,-41.437 4.898,-6.362 11.203,-11.544 16.647,-17.443 7.321,-7.932 14.043,-16.459 20.988,-24.72 2.1,-2.5 5.62,-8.895 8.885,-8.82 2.288,0.053 6.322,5.44 7.519,7.128 4.448,6.275 4.428,17.607 6.64,25.44 5.398,19.1 15.131,37.755 28.48,52.494 13.274,14.657 30.278,25.08 45.978,36.861 17.008,12.764 33.121,25.826 46.609,42.313 5.353,-4.956 11.186,-9.341 16.56,-14.357 5.119,-4.777 11.789,-8.653 16.305,-13.877 z m -251.869,87.66 c 3.804,0.039 10.246,2.379 13.649,0.97 -10.094,-11.169 -19.364,-20.752 -32.135,-28.937 -13.253,-8.494 -26.462,-16.912 -39.334,-25.972 -25.941,-18.258 -45.021,-39.911 -55.857,-70.317 -2.79,-7.83 -4.659,-16.042 -6.704,-24.091 -1.1,-4.335 -3.29,-24.615 -7.009,-26.366 -2.203,-1.038 -18.783,10.615 -21.41,12.067 -6.142,3.397 -12.307,6.031 -18.657,8.689 -13.649,5.715 -27.72,10.074 -42.194,13.713 -17.353,4.363 -29.173,-2.856 -39.923,-16.495 -12.196,-15.474 -22.331,-32.933 -33.482,-49.183 -5.071,-7.391 -9.272,-14.77 -13.017,-22.922 -2.451,-5.334 -12.172,-19.725 -8.813,-25.408 9.583,7.296 13.031,21.803 19.559,31.572 8.136,12.175 17.305,23.654 25.483,35.818 6.877,10.228 13.893,22.623 24.053,29.976 8.937,6.467 17.427,4.479 27.045,1.572 11.657,-3.522 23.74,-5.258 35.164,-9.627 12.363,-4.727 24.06,-11.433 36.122,-16.901 5.623,-2.55 12.356,-3.999 17.655,-7.178 4.567,-2.738 3.886,-4.184 4.221,-10.015 0.392,-6.803 0.843,-13.611 1.144,-20.42 0.202,-4.575 -2.272,-10.778 -0.593,-14.193 -13.694,2.374 -27.078,5.554 -40.676,8.367 -7.445,1.54 -14.624,3.444 -22.145,4.654 -2.867,0.461 -6.786,0.448 -9.353,1.697 -2.048,-0.588 -3.092,-0.214 -3.132,1.121 -0.098,0.725 -0.253,1.44 -0.466,2.143 -4.199,1.91 -6.641,-2.187 -10.283,-6.117 -4.494,-4.85 -7.859,-10.312 -11.156,-16.011 -7.372,-12.742 -15.869,-24.726 -22.691,-37.827 -6.953,-13.355 -12.6,-27.654 -18.495,-41.51 -5.408,-12.712 -8.871,-26.46 -14.847,-38.871 -2.667,-5.54 -6.047,-10.121 -9.994,-14.801 -3.257,-3.862 -8.268,-12.193 -13.132,-13.967 -1.286,-0.469 -4.654,0.319 -6.115,0.215 -2.912,-0.208 -5.507,-1.277 -8.487,-1.043 -6.452,0.505 -13.486,4.585 -18.642,8.172 3.332,2.97 11.667,6.58 5.68,11.93 -5.81,5.194 -9.019,-4.123 -11.236,-8.205 -10.44,8.573 -8.931,20.394 -10.137,32.507 -0.63,6.324 -2.287,12.552 -3.356,18.781 -0.77,4.483 -0.23,9.12 -0.45,13.697 -0.561,11.631 -1.73,22.764 -1.67501,34.232 0.062,12.258 0.89701,24.096 1.87801,36.265 1.651,20.488 5.434,40.983 8.678,61.308 1.825,11.425 4.323,22.525 6.748,33.765 2.752,12.757 7.843,24.84 10.698,37.564 2.909,-3.698 5.097,-3.716 9.802,-3.226 3.619,0.377 6.05,-0.484 5.838,4.539 -0.137,3.258 -3.011,5.746 -6.191,6.315 -4.147,0.741 -5.556,-1.328 -7.693,-4.469 -0.5,5.948 3.5,12.167 5.082,17.976 1.497,5.505 2.489,10.901 5.005,16.17 2.455,5.14 4.557,10.21 7.041,15.301 1.144,2.342 2.214,4.721 3.371,7.057 0.585,1.183 1.274,2.813 2.147,3.81 2.048,2.337 1.722,1.205 4.119,2.536 5.222,2.901 3.261,2.178 3.383,8.168 0.119,5.909 3.149,10.25 8.008,13.571 10.309,7.048 20.477,9.008 32.197,12.569 10.92,3.318 22.422,6.165 33.985,6.1 14.162,-0.079 28.136,-1.936 42.298,-2.124 15.624,-0.207 31.398,-0.122 46.99,0.418 6.423,0.222 12.388,0.508 18.589,2.148 7.201,1.906 14.167,1.15 21.589,0.861 15.834,-0.616 32.214,-1.841 47.841,-1.951 11.252,-0.08 23.124,-0.865 34.418,-0.187 z m 410.588,6.138 c 2.815,1.487 9.125,0.877 11.955,0.464 4.985,-0.727 5.519,-2.703 8.682,-7.148 5.444,-7.655 9.864,-14.986 13.067,-23.853 6.13,-16.971 8.633,-34.333 11.324,-52.086 2.991,-19.726 -2.471,-40.173 -4.425,-59.765 -0.449,-4.495 -1.063,-8.949 -1.773,-13.41 -0.425,-2.667 -0.536,-11.74 -2.291,-14.049 -3.372,-4.436 -19.052,-0.858 -25.217,-0.456 -17.208,1.124 -34.529,1.387 -51.729,1.582 -9.171,0.104 -18.393,0.488 -27.473,0.559 -4.17,0.033 -8.247,-0.174 -12.432,-0.58 -1.4,-0.135 -2.767,-0.457 -4.177,-0.535 -4.828,-0.267 -4.465,-0.967 -5.713,3.308 -2.186,7.49 -0.504,17.019 -1.078,24.793 -0.768,10.388 -1.183,20.923 -0.993,31.333 0.176,9.62 -0.152,19.218 0.207,28.859 0.15,3.993 0.586,7.248 1.639,11.061 1.191,4.311 2.501,14.383 5.467,17.366 0.337,0.34 2.858,-0.452 3.527,0.394 1.031,1.303 0.842,4.06 1.55,4.902 2.291,2.726 7.026,2.942 10.461,4.167 9.425,3.361 18.071,7.01 26.954,11.542 7.937,4.049 20.734,7.495 25.506,15.483 2.188,3.662 2.483,8.491 4.495,12.269 2.291,4.304 -2.293,2.054 3.32,3.8 2.528,0.786 6.556,0 9.147,0 z m -836.755,-48.678 c -0.714,9.939 -6.313,19.406 -8.262,29.178 -0.912,4.576 -2.459,9.074 -3.531,13.623 -1.028,4.364 -4.742,9.532 -4.366,13.85 13.708,-4.884 27.593,-6.112 41.92,-7.429 13.579,-1.249 27.924,-1.746 41.389,-1.752 13.721,-0.007 28.392,-1.347 42.52,-1.555 14.775,-0.217 29.773,-0.6 44.334,-2.132 -7.614,-5.639 -17.141,-10.935 -22.763,-18.781 -6.112,-8.529 -9.286,-19.215 -14.664,-28.215 -10.792,-18.061 -17.653,-40.472 -23.31,-60.763 -11.421,-40.962 -24.184,-81.168 -27.26,-123.656 -5.854,2.998 -10.501,14.629 -13.432,20.421 -3.741,7.395 -5.7,15.411 -8.132,23.271 -5.008,16.189 -8.474,32.975 -14.606,49.01 -11.72,30.652 -19.253,63.68 -29.837,94.93 z m 744.112,-238.737 c 2.535,18.32 7.851,36.877 8.055,55.418 0.045,4.079 -0.646,8.609 0.204,12.631 0.908,4.294 3.861,8.09 5.566,12.171 2.706,6.478 9.559,19.756 2.95,25.245 -0.134,-5.209 -4.901,-11.824 -7.302,-16.379 -3.619,-6.863 -8.374,-13.138 -12.297,-19.831 -8.212,-14.009 -17.414,-27.718 -27.997,-40.068 -10.308,-12.03 -22.188,-22.701 -33.119,-34.156 -3.284,-3.442 -29.63,-36.569 -30.677,-36.106 8.172,31.514 22.064,58.934 41.075,85.32 9.321,12.935 20.508,21.447 31.855,32.405 9.449,9.126 27.258,18.884 23.991,33.837 14.771,-1.42 29.445,-3.689 44.35,-3.689 -2.451,-18.865 -4.328,-37.431 -8.704,-55.986 -4.968,-21.069 -8.333,-42.768 -12.537,-64.024 -4.29,-21.7 -11.567,-42.708 -16.094,-64.367 -4.335,-20.74 -8.059,-41.443 -11.237,-62.414 -2.626,11.62 -1.657,24.383 -2.589,36.239 -0.952,12.113 -0.86,24.003 -0.543,36.187 0.587,22.631 2.999,44.989 5.05,67.567 z m 64.006,-107.898 c 0.083,-9.687 1.96,-19.243 2.539,-28.907 0.178,-2.965 3.131,-23.194 0.377,-24.25 -2.265,4.938 -2.793,11.257 -4.85,16.438 -2.055,5.176 -4.804,10.107 -6.776,15.319 -4.272,11.291 -5.746,24.067 -6.206,36.071 -1.041,27.152 -1.579,54.243 0.246,81.395 0.782,11.638 1.382,23.296 1.168,34.957 -0.235,12.831 -2.2,23.968 0.186,36.694 2.362,12.602 3.846,25.152 4.633,37.938 0.552,8.974 0.774,8.339 9.336,7.708 6.181,-0.456 12.423,0.031 18.613,-0.252 -2.894,-34.976 -3.367,-70.024 -7.99,-104.866 -2.359,-17.775 -2.422,-35.807 -5.352,-53.516 -1.456,-8.797 -3.899,-17.417 -5.303,-26.224 -1.507,-9.456 -0.765,-18.976 -0.621,-28.505 z m -626.108,-22.011 c 16.483,1.428 34.016,6.356 50.911,3.102 -2.785,-1.128 -10.073,-2.684 -6.793,-7.136 3.335,-4.527 8.955,1.215 12.281,0.622 2.051,-0.366 6.583,-8.939 7.847,-10.714 2.869,-4.034 3.215,-4.737 8.374,-5.771 4.998,-1 6.131,0.083 6.764,-4.886 0.727,-5.714 -1.25,-12.138 -1.054,-17.981 0.421,-12.579 4.479,-23.61 8.256,-35.445 -16.047,3.491 -31.738,7.631 -48.146,9.881 -7.014,0.962 -17.926,3.181 -24.298,-1.587 -1.657,-1.24 -1.392,-2.914 -2.748,-4.351 -2.274,-2.411 -6.492,-4.905 -9.717,-5.592 -19.847,-4.225 -21.783,24.068 -11.837,34.655 2.491,2.653 5.957,3.963 8.508,6.394 3.405,3.242 3.684,6.657 4.181,11.606 0.932,9.28 -0.334,18.596 -4.293,27.085 z m 240.845,133.57 c 5.859,1.112 11.974,0.858 17.848,1.807 2.087,0.337 8.344,1.513 10.179,0.293 2.802,-1.863 3.798,-8.696 5.123,-11.878 2.33,-5.597 5.627,-10.479 7.849,-16.178 9.08,-23.278 17.547,-46.649 28.529,-69.132 -4.209,-1.094 -7.441,-1.137 -11.683,-1.702 -4.419,-0.589 -8.425,-3.202 -12.641,-4.325 -4.007,-1.067 -8.205,-0.795 -12.175,-2.036 -2.187,-0.683 -4.064,-2.202 -6.22,-2.733 -3.437,-0.845 -7.448,-1.339 -9.492,0.917 -2.095,2.314 -2.83,8.659 -3.97,11.648 -3.036,7.963 -6.563,15.648 -9.106,23.794 -2.295,7.347 -4.475,14.616 -6.495,22.03 -2.134,7.827 -6.34,14.278 -8.902,21.755 -1.949,5.691 -3.788,11.509 -4.079,17.577 -0.283,5.921 -1.145,6.298 4.776,7.244 2.989,0.477 7.647,2.253 10.459,0.919 z m 385.49,277.116 c 1.526,0.711 2.965,0.617 4.315,-0.284 -13.23,-5.588 -26.099,-13.338 -39.901,-17.172 -12.947,-3.595 -25.531,-7.891 -38.004,-12.319 -10.135,-3.598 -19.247,-6.399 -28.41,-12.731 -5.562,-3.844 -10.503,-8.166 -14.325,-13.783 -4.255,-6.254 -5.202,-15.154 -9.81,-20.786 -6.22,6.831 -13.527,12.004 -20.886,17.432 -2.546,1.878 -8.653,5.972 -9.524,8.878 -1.099,3.667 1.845,7.175 3.301,10.886 3.729,9.504 5.551,19.003 7.574,28.884 0.811,3.96 2.562,9.913 5.815,11.572 2.962,1.509 11.54,0.412 15.226,0.132 19.23,-1.457 38.119,-2.949 57.465,-1.622 21.892,1.501 45.329,2.538 67.164,0.913 z m 38.409,-176.112 c 3.495,0.012 6.909,-0.425 10.391,-0.425 -2.01,-9.385 2.689,-21.529 4.355,-30.897 1.864,-10.479 3.283,-21.315 4.526,-31.878 2.62,-22.249 3.807,-44.228 3.841,-66.64 0.032,-21.687 3.98,-41.505 9.51,-62.353 5.938,-22.39 15.662,-42.525 23.702,-64.118 -8.819,4.662 -13.701,15.571 -18.335,23.911 -5.858,10.545 -9.76,22.221 -12.152,34.059 -4.615,22.837 -9.677,45.743 -15.002,68.542 -5.545,23.739 -8.805,47.696 -15.157,71.241 -3.098,11.482 -7.31,25.608 -7.544,37.449 -0.097,4.898 -1.573,15.156 0.647,19.41 2.076,3.98 6.666,2.105 11.218,1.699 z m -527.551,-29.454 c -0.184,2.438 -0.358,4.757 -0.791,7.165 4.841,-0.046 10.972,-5.069 15.124,-7.324 5.058,-2.747 10.122,-5.777 15.069,-8.538 9.55,-5.332 20.392,-8.845 30.589,-13.225 11.714,-5.032 22.481,-11.112 33.683,-17.17 3.913,-2.116 32.035,-14.306 31.563,-17.636 -6.174,-0.206 -12.348,-0.411 -18.523,-0.616 -5.293,-0.176 -13.491,1.02 -18.56,-0.616 -2.776,-0.897 -5.893,-4.198 -6.941,-6.783 -1.037,-2.558 1.294,-14.323 -0.061,-15.073 -6.91,7.055 -11.255,16.432 -17.433,24.043 -6.827,8.412 -15.649,13.324 -25.372,17.794 -10.737,4.937 -21.85,8.76 -32.823,12.991 -4.628,1.784 -4.536,2.805 -4.939,7.879 -0.451,5.671 -0.402,11.423 -0.585,17.109 z m 557.947,213.36 c 11.639,1.249 23.567,0.537 35.297,1.511 4.268,0.354 10.185,0.882 5.891,6.61 -2.704,3.608 -11.366,2.451 -15.295,2.701 -10.549,0.671 -21.718,0.31 -32.291,0.154 -2.226,-0.032 -4.686,-0.694 -6.936,-0.545 -2.597,0.171 -5.707,2.039 -8.074,2.025 -1.459,-0.009 -1.982,-1.548 -3.24,-1.689 -2.741,-0.308 -5.481,-0.533 -8.245,-0.532 -41.79,0.009 -83.006,-0.831 -124.692,-0.876 -19.933,-0.021 -40.186,-0.365 -60.111,-1.301 -4.184,-0.197 -28.012,0.659 -27.352,-6.875 0.339,-3.88 8.116,-4.427 10.954,-4.839 2.103,-0.305 4.285,-0.257 6.392,-0.37 5.598,-0.3 8.05,1.047 6.869,-5.078 -4.479,-23.232 -12.505,-42.432 -29.653,-59.136 -14.022,-13.659 -30.906,-26.049 -46.788,-37.455 -19.284,-13.85 -34.928,-28.416 -46.377,-49.609 -6.686,-12.376 -12.283,-25.029 -15.718,-38.713 -1.236,-4.923 -1.265,-10.522 -2.78,-15.268 -1.165,-3.654 -3.821,-6.211 -5.385,-9.996 -19.186,32.046 -44.615,58.857 -67.931,87.751 -11.141,13.804 -23.85,26.915 -37.161,38.924 -3.95,3.564 -7.636,7.285 -11.323,11.12 -3.084,3.21 -7.98,6.063 -10.584,9.624 -2.498,3.416 -1.883,3.253 1.919,5.966 5.026,3.585 10.565,6.564 15.67,10.06 8.16,5.589 17.067,10.311 24.363,17.037 7.891,7.274 14.785,15.7 21.682,23.902 4.597,5.467 10.629,12.482 11.785,19.394 0.383,2.287 1.837,7.943 -0.082,9.618 -1.64,1.431 -1.475,0.888 -3.511,0.015 -2.668,-1.144 -3.453,-3.769 -6.712,-5.02 -8.339,-3.2 -18.43,-2.101 -27.107,-2.14 -8.68,-0.039 -17.432,0.936 -26.108,0.9 -19.812,-0.081 -39.202,1.523 -59.008,2.384 -21.036,0.914 -42.33,-1.28 -63.296,-0.969 -15.534,0.23 -31.482,-0.931 -47.445,-0.068 -8.211,0.443 -16.275,-0.584 -24.281,-0.699 -10.482,-0.151 -21.247,1.275 -31.819,1.478 -17.352,0.335 -34.492,0.333 -51.95,0.75 -37.552,0.899 -74.901,1.827 -112.475,2.422 -5.012,0.079 -10.499,-0.091 -15.452,0.473 -5.257,0.6 -2.543,1.717 -6.15,3.61 -10.098,5.297 -7.76600003,-14.339 -7.52400003,-18.201 C 1.69902,551.2026 6.95302,530.9046 13.26702,511.2566 c 5.99,-18.635 10.853,-38.139 15.926,-57.177 5.553,-20.837 12.788,-40.821 19.358,-61.453 6.732,-21.142 12.213,-43.108 24.44,-61.849 2.785,-4.268 5.663,-8.861 10.143,-11.552 5.022,-3.017 5.238,-1.255 5.234,-6.776 -0.003,-5.2 0.317,-12.147 -0.91,-17.109 -1.109,-4.483 -0.938,-1.825 -3.435,-5.045 -2.032,-2.619 -4.158,-4.409 -5.616,-7.589 -8.956,9.081 -29.457,4.289 -38.11,-2.25 -10.591,-8.004 -18.658,-21.507 -21.614,-34.367 -2.374,-10.327 0.539,-30.012 11.969,-34.978 5.572,-2.421 26.038,-4.251 26.857,-12.141 0.422,-4.073 -6.781,-9.8 -8.443,-13.302 -3.08,-6.488 -6.038,-15.118 -6.894,-22.23 -1.672,-13.882 4.63,-29.405 14.669,-38.782 18.416,-17.202 50.819,-26.03 74.508,-15.116 -5.006,-19.123 -8.028,-35.62 -5.507,-55.512 2.172,-17.137 12.283,-26.725 26.196,-35.261 23.742,-14.568 56.028,-20.318 83.175,-16.082 6.169,0.963 12.089,3.028 17.801,4.671 8.298,2.387 18.232,1.592 26.067,5.47 5.681,2.811 9.995,8.411 14.984,12.15 5.825,4.365 10.665,10.88 14.712,16.905 8.655,12.884 5.273,36.796 -1.971,49.729 -1.553,2.774 -3.472,5.109 -6.042,7.002 -2.676,1.97 -6.755,2.583 -8.134,5.138 -3.532,6.545 -0.125,20.714 0.346,27.788 0.549,8.214 -3.604,14.384 -12.918,15.039 -5.388,0.38 -5.56,-2.746 -8.14,3.686 -1.672,4.169 -3.191,8.711 -5.604,12.533 -4.975,7.877 -14.087,7.108 -22.387,6.895 -9.608,-0.248 -19.072,-1.766 -28.685,-2.724 2.539,8.135 9.489,14.449 13.829,21.696 5.868,9.802 9.4,17.927 10.354,29.347 0.732,8.774 -0.848,15.703 -6.852,22.233 -2.485,2.703 -4.688,2.836 -4.071,5.954 0.376,1.902 3.665,5.04 4.829,6.558 3.079,4.016 6.654,7.702 9.364,11.991 10.428,16.502 13.508,41.658 13.534,60.868 0.001,0.881 0.471,2.754 0.082,3.665 -0.288,0.673 -2.476,2.804 -2.508,2.987 -0.428,2.47 1.98,6.704 5.759,7.123 3.969,0.439 11.238,-2.873 14.93,-3.961 5.908,-1.742 11.93,-3.028 17.825,-4.817 9.521,-2.889 18.998,-5.193 28.677,-7.457 4.374,-1.022 8.772,-1.874 13.16,-2.83 4.998,-1.088 7.32,-3.191 9.9,1.894 2.213,4.364 0.837,5.155 6.198,2.956 5.323,-2.185 10.524,-4.893 15.721,-7.359 9.166,-4.348 20.082,-8.224 27.989,-14.643 13.189,-10.709 18.073,-27.763 30.696,-39.126 3.515,-3.164 5.612,-3.22 7.834,-7.603 2.379,-4.691 3.606,-10.707 4.856,-15.753 2.191,-8.836 3.75,-17.703 5.737,-26.531 2.475,-10.998 7.824,-20.958 11.727,-31.448 1.521,-4.087 2.309,-9.282 4.762,-12.955 0.65,-0.974 1.892,-1.523 2.399,-2.329 1.745,-2.767 1.727,-3.527 2.179,-6.856 2.115,-15.555 11.4,-7.372 21.546,-3.805 4.275,1.503 24.574,11.25 16.823,17.732 9.24,2.681 24.039,1.224 23.915,14.466 -0.064,6.785 -4.122,14.043 -6.3,20.394 -1.935,5.639 -3.805,11.3 -5.77,16.93 -4.305,12.333 -9.528,24.297 -13.729,36.668 -1.915,5.638 -3.495,11.408 -6.161,16.729 -2.351,4.694 -8.044,9.868 -8.982,15.001 24.623,-10.505 47.402,-25.693 74.963,-24.725 12.068,0.423 23.02,5.496 29.685,16.107 8.356,13.3 13.854,28.191 22.021,41.614 29.711,48.829 65.147,93.189 97.763,139.997 2.505,3.597 5.727,6.998 6.596,11.443 0.567,2.9 -0.533,5.801 0.147,8.587 1.411,5.79 8.54,13.019 13.374,16.346 9.266,6.378 24.329,15.374 35.892,14.578 -7.257,-17.44 -7.16,-36.549 -6.823,-55.152 0.321,-17.671 2.231,-35.2 4.498,-52.689 0.513,-3.957 0.96,-7.625 2.097,-11.46 1.305,-4.4 3.097,-3.983 -0.812,-7.938 -6.016,-6.09 -13.172,-11.101 -19.237,-17.267 -13.117,-13.334 -26.561,-23.785 -36.885,-39.708 -9.818,-15.145 -20.176,-30.728 -27.444,-47.313 -7.482,-17.073 -10.473,-35.306 -14.187,-53.387 -1.507,-7.337 -7.003,-15.528 -5.899,-23.19 1.396,-9.683 5.886,-2.632 7.714,2.579 5.578,15.907 18.639,30.144 29.457,42.937 11.688,13.82 25.983,25.383 38.183,38.801 13.285,14.614 22.385,31.409 34.199,47.009 0,-19.36 -6.61,-39.074 -9.314,-58.226 -2.379,-16.857 -3.126,-33.767 -4.63,-50.697 -3.415,-38.458 -0.464,-78.049 4.329,-116.232 2.278,-18.134 0.986,-35.841 1.055,-54.037 0.022,-5.791 -2.375,-19.138 0.68,-24.277 5.851,-9.843 9.264,11.68 9.56,14.889 1.769,19.116 -1.404,38.019 0.217,57.053 1.694,19.877 5.37,39.196 8.498,58.843 3.389,21.273 8.906,42.066 14.188,62.931 5.546,21.907 10.21,44.271 16.376,66.003 1.663,-6.831 -0.67,-15.223 -1.131,-22.18 -0.658,-9.956 -1.943,-19.914 -2.054,-29.896 -0.178,-15.909 -0.302,-32.113 0.598,-47.948 0.887,-15.608 0.619,-31.963 5.406,-47 2.272,-7.137 5.604,-14.1 8.864,-20.823 4.022,-8.29 5.444,-16.328 7.671,-25.145 1.908,-7.551 4.7,-14.903 5.971,-22.605 0.79,-4.79 2.995,-18.93 8.479,-8.217 3.184,6.218 1.808,15.436 1.897,22.116 0.114,8.564 -1.197,16.891 -1.398,25.419 -0.391,16.732 -0.672,33.444 -1.92,50.148 -1.309,17.525 -0.166,33.231 3.168,50.499 3.649,18.902 4.717,37.845 6.608,56.978 0.975,9.879 2.619,19.703 3.413,29.596 0.42,5.239 -1.734,20.262 2.02,23.993 0.363,-9.074 2.963,-18.156 4.934,-26.998 2.335,-10.475 3.278,-21.487 4.999,-32.112 2.787,-17.214 8.195,-33.653 11.773,-50.674 7.375,-35.087 13.503,-80.182 44.411,-103.148 4.044,-3.005 8.488,-5.223 12.86,-7.696 2.475,-1.4 6.152,-5.022 8.984,-5.654 3.091,-0.69 4.38,-0.154 5.633,3.432 1.747,4.999 -1.448,7.334 -4.431,10.965 -10.323,12.564 -14.733,28.67 -21.107,43.405 -14.596,33.741 -21.054,69.329 -21.128,105.801 -0.039,19.093 -1.356,37.508 -3.392,56.485 -2.191,20.423 -5.076,42.023 -11.281,61.67 6.223,1.395 12.975,-0.685 14.664,6.549 0.415,1.777 -0.335,3.878 0.124,6.191 0.446,2.248 1.519,4.484 2.154,6.695 1.312,4.573 2.006,9.085 2.644,13.781 2.467,18.148 6.703,35.409 7.154,53.81 0.415,17.009 -2.915,34.242 -5.983,50.924 -3.091,16.802 -11.956,31.125 -18.935,46.32 3.004,0 6.007,0.031 9.011,0.062 z"
         id="path506" />
      <path
         d="m 507.43442,534.2254 c -3.31,0.936 -19.289,2.702 -19.286,7.716 0.002,3.007 15.96,2.948 18.784,3.275 0.168,-3.663 0.335,-7.327 0.502,-10.991 m 35.271,34.599 c 9.208,1.751 21.707,-0.711 27.594,-8.829 2.751,-3.793 4.055,-9.562 4.951,-14.089 0.856,-4.314 3.495,-15.079 1.699,-19.123 -2.205,-4.966 -23.362,0.224 -29.523,0.794 -10.749,0.992 -21.864,1.109 -32.62,0.408 0,11.106 -0.568,21.93 5.964,31.489 4.713,6.897 13.563,8.525 21.935,9.35 m -1.851,13.718 c -10.005,-3.662 -20.509,-1.282 -27.024,-12.023 -1.653,-2.725 -3.045,-5.655 -4.045,-8.682 -0.489,-1.326 -0.869,-2.684 -1.139,-4.075 0.509,-2.994 -0.588,-3.838 -3.29,-2.533 -5.303,-1.031 -11.118,2.609 -16.704,1.536 -13.548,-2.602 -11.087,-22.009 -1.995,-28.727 1.796,-1.328 3.59,-1.697 5.646,-2.353 4.532,-1.444 6.985,0.169 11.13,-0.241 3.35,-0.331 4.271,-3.844 7.871,-5.391 2.357,-1.012 5.629,-0.934 8.107,-1.036 12.968,-0.533 25.977,-0.528 39.028,-1.373 6.087,-0.394 12.659,0.57 18.622,-0.47 2.792,-0.488 2.391,-2.346 5.035,-0.716 2.737,1.688 1.555,7.93 1.417,10.419 -0.799,14.393 -1.656,29.829 -9.366,42.412 -7.054,11.513 -20.935,12.691 -33.293,13.253"
         id="path508" />
      <path
         d="m 12.46672,586.5076 c 3.219,-0.035 6.437,-0.069 9.645,-0.102 -3.223,0.035 -6.434,0.068 -9.645,0.102"
         id="path510" />
      <path
         d="m 906.29482,279.6311 c -0.006,-3.092 -0.013,-6.184 -0.02,-9.27 0.006,3.094 0.013,6.182 0.02,9.27"
         id="path512" />
      <path
         d="m 87.46772,292.3289 c -0.01,3.012 -0.02,6.024 -0.03,9.029 0.009,-3.014 0.019,-6.022 0.03,-9.029"
         id="path514" />
      <path
         d="m 355.03702,583.093 c 2.561,0.004 5.122,0.007 7.671,0.014 -2.565,-0.003 -5.117,-0.008 -7.671,-0.014"
         id="path516" />
      <path
         d="m 199.53992,582.4788 c 2.561,0.008 5.121,0.016 7.67,0.026 -2.565,-0.007 -5.117,-0.017 -7.67,-0.026"
         id="path518" />
      <path
         d="m 759.45012,457.3875 c -0.112,2.033 -0.226,4.065 -0.338,6.094 0.113,-2.035 0.226,-4.064 0.338,-6.094"
         id="path520" />
      <path
         d="m 902.43542,572.8484 c -1.979,-0.021 -3.958,-0.041 -5.937,-0.062 1.988,-0.829 3.967,-0.792 5.937,0.062"
         id="path522" />
      <path
         d="m 726.72942,581.8504 c 1.421,-0.022 2.841,-0.044 4.248,-0.068 -1.424,0.021 -2.836,0.045 -4.248,0.068"
         id="path524" />
      <path
         d="m 905.52432,304.7185 c 0.035,-1.537 0.07,-3.073 0.105,-4.604 -0.035,1.538 -0.07,3.071 -0.105,4.604"
         id="path526" />
      <path
         d="m 772.69322,110.3289 c -0.117,-1.585 -0.234,-3.169 -0.352,-4.75 0.118,1.586 0.235,3.168 0.352,4.75"
         id="path528" />
      <path
         d="m 906.22552,285.6839 c 0.019,-1.589 0.038,-3.177 0.057,-4.76 -0.019,1.59 -0.038,3.175 -0.057,4.76"
         id="path530" />
      <path
         d="m 459.54092,579.8797 c 1.263,0.019 2.526,0.037 3.778,0.053 -1.265,-0.02 -2.522,-0.036 -3.778,-0.053"
         id="path532" />
      <path
         d="m 784.84662,582.4705 c 1.234,0.024 2.469,0.049 3.692,0.075 -1.239,-0.024 -2.465,-0.05 -3.692,-0.075"
         id="path534" />
      <path
         d="m 918.20012,470.7605 c -0.089,-1.394 -0.178,-2.787 -0.265,-4.178 0.089,1.394 0.177,2.786 0.265,4.178"
         id="path536" />
      <path
         d="m 896.03702,583.825 c 1.005,-0.006 2.01,-0.012 3.003,-0.014 -1.008,0.007 -2.006,0.011 -3.003,0.014"
         id="path538" />
      <path
         d="m 759.11902,582.534 c 0.995,-0.024 1.99,-0.049 2.975,-0.072 -0.999,0.025 -1.988,0.049 -2.975,0.072"
         id="path540" />
      <path
         d="m 535.43052,581.7742 c 1.096,-0.006 2.191,-0.012 3.276,-0.02 -1.098,0.006 -2.187,0.013 -3.276,0.02"
         id="path542" />
      <path
         d="m 282.82212,581.7698 c 1.041,0.007 2.083,0.015 3.113,0.024 -1.045,-0.006 -2.079,-0.015 -3.113,-0.024"
         id="path544" />
      <path
         d="m 221.37102,581.9383 c 1.062,-0.059 2.122,-0.119 3.174,-0.177 -1.065,0.06 -2.119,0.118 -3.174,0.177"
         id="path546" />
      <path
         d="m 515.57602,177.3201 c -1.58,-0.136 -3.16,-0.272 -4.74,-0.409 1.582,0.111 3.255,-0.825 4.74,0.409"
         id="path548" />
      <path
         d="m 918.34952,573.449 c -1.558,-0.157 -3.116,-0.315 -4.674,-0.473 1.559,0.158 3.116,0.316 4.674,0.473"
         id="path550" />
      <path
         d="m 809.67762,186.9129 c -0.104,1.365 -0.21,2.731 -0.314,4.092 0.105,-1.367 0.21,-2.73 0.314,-4.092"
         id="path552" />
      <path
         d="m 906.61712,243.825 c 0.106,-1.294 0.212,-2.588 0.318,-3.877 -0.106,1.296 -0.213,2.586 -0.318,3.877"
         id="path554" />
      <path
         d="m 809.05752,208.0872 c -0.112,1.363 -0.225,2.725 -0.336,4.083 0.112,-1.364 0.224,-2.724 0.336,-4.083"
         id="path556" />
      <path
         d="m 905.95692,296.0628 c -0.01,-1.317 -0.02,-2.634 -0.029,-3.947 0.85,1.313 0.816,2.627 0.029,3.947"
         id="path558" />
      <path
         d="m 759.47252,485.1946 c -0.012,1.32 -0.023,2.641 -0.037,3.955 -0.872,-1.331 -0.698,-2.646 0.037,-3.955"
         id="path560" />
      <path
         d="m 858.77532,332.4724 c -0.152,-1.336 -0.305,-2.673 -0.457,-4.005 0.153,1.338 0.305,2.672 0.457,4.005"
         id="path562" />
      <path
         d="m 36.50962,209.8426 c -1.033,1.365 -2.44,0.43 -3.668,0.596 1.224,-0.199 2.446,-0.397 3.668,-0.596"
         id="path564" />
      <path
         d="m 547.30162,518.5906 c -1.305,0.002 -2.61,0.003 -3.915,0.005 1.306,-0.002 2.61,-0.004 3.915,-0.005"
         id="path566" />
      <path
         d="m 755.79872,215.4514 c 0.122,1.11 0.243,2.22 0.365,3.326 -0.122,-1.112 -0.243,-2.219 -0.365,-3.326"
         id="path568" />
      <path
         d="m 110.85142,105.2097 c -1.312,0.026 -2.624,0.052 -3.936,0.078 1.298,-0.764 2.606,-0.985 3.936,-0.078"
         id="path570" />
      <path
         d="m 809.02532,227.2879 c -0.085,1.164 -0.17,2.327 -0.254,3.486 0.085,-1.164 0.169,-2.325 0.254,-3.486"
         id="path572" />
      <path
         d="m 773.04582,84.4055 c 0.102,-1.061 0.203,-2.122 0.304,-3.177 -0.102,1.063 -0.202,2.12 -0.304,3.177"
         id="path574" />
      <path
         d="m 762.73622,81.0818 c -0.103,1.151 -0.206,2.303 -0.308,3.45 0.103,-1.153 0.205,-2.302 0.308,-3.45"
         id="path576" />
      <path
         d="m 192.84262,4.1902 c -1.335,0.162 -2.67,0.324 -4.004,0.485 1.335,-0.162 2.669,-0.323 4.004,-0.485"
         id="path578" />
      <path
         d="m 96.41882,106.1263 c -1.37,0.14 -2.74,0.28 -4.109,0.42 1.37,-0.14 2.74,-0.28 4.109,-0.42"
         id="path580" />
      <path
         d="m 847.15222,109.5003 c 0.084,-1.071 0.167,-2.143 0.25,-3.208 -0.083,1.072 -0.167,2.14 -0.25,3.208"
         id="path582" />
      <path
         d="m 51.45302,286.2561 c 0.789,0.012 1.577,0.023 2.354,0.035 -0.792,-0.012 -1.573,-0.023 -2.354,-0.035"
         id="path584" />
      <path
         d="m 762.77622,418.4417 c -0.079,1.186 -0.158,2.371 -0.237,3.554 0.08,-1.186 0.159,-2.37 0.237,-3.554"
         id="path586" />
      <path
         d="m 843.26162,187.6404 c -0.032,-1.143 -0.063,-2.285 -0.096,-3.425 0.034,1.144 0.065,2.284 0.096,3.425"
         id="path588" />
      <path
         d="m 226.44912,1.4857 c -1.217,0 -2.434,10e-4 -3.649,10e-4 1.217,-0.836 2.433,-0.815 3.649,-10e-4"
         id="path590" />
      <path
         d="m 551.36022,270.5091 c -1.333,0.034 -2.666,0.068 -3.997,0.102 1.309,-0.926 2.643,-0.949 3.997,-0.102"
         id="path592" />
      <path
         d="m 667.84952,579.8333 c 0.79,0.016 1.581,0.033 2.361,0.052 -0.794,-0.015 -1.578,-0.034 -2.361,-0.052"
         id="path594" />
      <path
         d="m 697.60632,581.222 c 0.789,-0.028 1.578,-0.056 2.356,-0.083 -0.792,0.028 -1.574,0.056 -2.356,0.083"
         id="path596" />
      <path
         d="m 231.91102,581.7708 c 0.823,0.021 1.646,0.042 2.458,0.062 -0.826,-0.021 -1.642,-0.041 -2.458,-0.062"
         id="path598" />
      <path
         d="m 917.51652,457.5359 c -0.117,-1.13 -0.234,-2.261 -0.352,-3.386 0.118,1.132 0.235,2.259 0.352,3.386"
         id="path600" />
      <path
         d="m 810.03312,267.0379 c 0.094,1.077 0.187,2.154 0.279,3.224 -0.093,-1.078 -0.186,-2.151 -0.279,-3.224"
         id="path602" />
      <path
         d="m 851.39642,248.5476 c -0.128,-1.142 -0.256,-2.284 -0.383,-3.422 0.128,1.143 0.255,2.282 0.383,3.422"
         id="path604" />
      <path
         d="m 238.58782,582.4519 c 0.83,-0.013 1.661,-0.026 2.482,-0.037 -0.834,0.014 -1.658,0.025 -2.482,0.037"
         id="path606" />
      <path
         d="m 540.85442,582.5423 c 0.808,-0.037 1.614,-0.073 2.412,-0.109 -0.809,0.037 -1.611,0.073 -2.412,0.109"
         id="path608" />
      <path
         d="m 844.64542,165.1585 c -0.037,-1.157 -0.073,-2.314 -0.109,-3.469 0.037,1.158 0.073,2.313 0.109,3.469"
         id="path610" />
      <path
         d="m 159.88462,583.2078 c 0.81,-0.006 1.619,-0.013 2.418,-0.018 -0.814,0.007 -1.615,0.013 -2.418,0.018"
         id="path612" />
      <path
         d="m 844.30652,583.1966 c 0.832,0.008 1.665,0.017 2.487,0.026 -0.837,-0.008 -1.662,-0.017 -2.487,-0.026"
         id="path614" />
      <path
         d="m 862.28212,583.0974 c 0.804,0.057 1.607,0.115 2.401,0.17 -0.807,-0.057 -1.604,-0.113 -2.401,-0.17"
         id="path616" />
      <path
         d="m 869.54192,583.0833 c 0.818,0.024 1.637,0.049 2.445,0.067 -0.821,-0.025 -1.633,-0.046 -2.445,-0.067"
         id="path618" />
      <path
         d="m 906.81732,253.1336 c -0.054,-1.138 -0.107,-2.277 -0.16,-3.412 0.054,1.14 0.106,2.276 0.16,3.412"
         id="path620" />
      <path
         d="m 357.48432,568.1663 c 2.489,-0.129 4.979,-0.259 7.469,-0.389 -2.49,0.13 -4.98,0.259 -7.469,0.389"
         id="path622" />
      <path
         d="m 207.29482,154.3689 c 2.161,0.188 4.322,0.376 6.481,0.562 -2.161,-0.187 -4.321,-0.375 -6.481,-0.562"
         id="path624" />
      <path
         d="m 817.44232,248.3206 c 0.067,2.062 0.136,4.124 0.203,6.18 -0.068,-2.063 -0.136,-4.121 -0.203,-6.18"
         id="path626" />
      <path
         d="m 862.03992,571.6922 c 2.256,0.137 4.511,0.273 6.767,0.41 -2.27,0.103 -4.574,0.75 -6.767,-0.41"
         id="path628" />
      <path
         d="m 848.69032,327.7859 c 0.017,-1.967 0.034,-3.934 0.05,-5.896 -0.017,1.968 -0.033,3.932 -0.05,5.896"
         id="path630" />
      <path
         d="m 842.91592,389.5867 c 1.979,0.026 3.96,0.053 5.938,0.079 -1.98,-0.027 -3.959,-0.053 -5.938,-0.079"
         id="path632" />
      <path
         d="m 344.63172,355.0056 c -0.05,1.499 -0.099,2.998 -0.146,4.49 0.05,-1.501 0.098,-2.995 0.146,-4.49"
         id="path634" />
      <path
         d="m 875.85932,291.5315 c -0.081,1.492 -0.162,2.983 -0.241,4.467 0.082,-1.493 0.162,-2.98 0.241,-4.467"
         id="path636" />
      <path
         d="m 833.62982,565.0545 c 1.44,-0.098 2.88,-0.195 4.317,-0.288 -1.083,0.867 -2.172,0.939 -4.317,0.288"
         id="path638" />
      <path
         d="m 823.99302,370.0559 c 0.099,1.608 0.198,3.216 0.296,4.819 -0.099,-1.609 -0.197,-3.214 -0.296,-4.819"
         id="path640" />
      <path
         d="m 285.57802,116.2517 c 0.015,-1.553 0.03,-3.106 0.046,-4.653 -0.015,1.555 -0.03,3.104 -0.046,4.653"
         id="path642" />
      <path
         d="m 825.73622,389.9114 5.367,-0.117 c -1.771,0.856 -3.56,0.886 -5.367,0.117"
         id="path644" />
      <path
         d="m 875.25092,401.3719 c -1.266,0.011 -2.531,0.021 -3.788,0.034 1.269,-0.01 2.529,-0.022 3.788,-0.034"
         id="path646" />
      <path
         d="m 411.77922,565.6726 c 1.752,0.023 3.504,0.046 5.256,0.068 -1.765,0.885 -3.519,1.01 -5.256,-0.068"
         id="path648" />
      <path
         d="m 81.74892,570.8347 c 1.778,-0.159 3.557,-0.318 5.335,-0.477 -1.778,0.159 -3.557,0.318 -5.335,0.477"
         id="path650" />
      <path
         d="m 818.05942,261.5642 c 0.087,1.614 0.174,3.228 0.261,4.837 -0.087,-1.616 -0.174,-3.226 -0.261,-4.837"
         id="path652" />
      <path
         d="m 250.51742,158.158 c 1.499,-0.739 3.01,-0.863 4.536,-0.08 -1.513,0.027 -3.024,0.054 -4.536,0.08"
         id="path654" />
      <path
         d="m 769.02622,280.2014 c 0.124,1.361 0.248,2.723 0.372,4.08 -0.125,-1.363 -0.248,-2.722 -0.372,-4.08"
         id="path656" />
      <path
         d="m 895.65322,248.4339 c -0.77,-1.332 -0.743,-2.657 0.038,-3.97 -0.013,1.325 -0.025,2.648 -0.038,3.97"
         id="path658" />
      <path
         d="m 818.30462,202.1936 c 0,1.347 10e-4,2.695 10e-4,4.038 -10e-4,-1.35 -10e-4,-2.694 -10e-4,-4.038"
         id="path660" />
      <path
         d="m 872.03892,388.9427 c 1.543,-0.473 3.086,-1.142 4.622,0.016 -1.541,-0.005 -3.081,-0.011 -4.622,-0.016"
         id="path662" />
      <path
         d="m 373.43352,567.5569 c 1.553,-0.145 3.105,-0.289 4.657,-0.434 -1.552,0.145 -3.104,0.289 -4.657,0.434"
         id="path664" />
      <path
         d="m 160.58872,567.5598 c 1.422,-0.625 2.841,-0.953 4.242,0.048 -1.415,-0.017 -2.828,-0.032 -4.242,-0.048"
         id="path666" />
      <path
         d="m 451.45202,565.5545 c 1.521,-0.664 3.038,-1.029 4.539,0.047 -1.514,-0.016 -3.026,-0.031 -4.539,-0.047"
         id="path668" />
      <path
         d="m 112.96372,368.8289 c 0.114,1.373 0.229,2.746 0.342,4.115 -0.115,-1.374 -0.229,-2.744 -0.342,-4.115"
         id="path670" />
      <path
         d="m 465.98822,289.7454 c 1.496,-0.544 2.987,-0.828 4.456,0.081 -1.486,-0.028 -2.971,-0.054 -4.456,-0.081"
         id="path672" />
      <path
         d="m 818.03602,330.615 c 0.083,1.342 0.166,2.684 0.248,4.023 -0.083,-1.343 -0.166,-2.683 -0.248,-4.023"
         id="path674" />
      <path
         d="m 111.99692,209.5232 c -0.124,1.081 -0.248,2.163 -0.371,3.238 0.124,-1.083 0.247,-2.16 0.371,-3.238"
         id="path676" />
      <path
         d="m 25.28502,523.0144 c -0.077,1.053 -0.153,2.105 -0.229,3.151 0.079,-1.054 0.154,-2.103 0.229,-3.151"
         id="path678" />
      <path
         d="m 849.35342,337.7171 c -0.084,-1.088 -0.168,-2.176 -0.252,-3.259 0.084,1.09 0.168,2.175 0.252,3.259"
         id="path680" />
      <path
         d="m 740.40422,563.5227 c 1.333,0.009 2.666,0.019 3.998,0.028 -1.333,-0.009 -2.666,-0.019 -3.998,-0.028"
         id="path682" />
      <path
         d="m 344.12682,364.2639 c 0.249,0.792 0.498,1.585 0.747,2.378 -1.663,0.402 -1.912,-0.391 -0.747,-2.378"
         id="path684" />
      <path
         d="m 444.07902,287.9549 c 1.354,-0.006 2.708,-0.011 4.062,-0.017 -1.352,0.642 -2.705,1.083 -4.062,0.017"
         id="path686" />
      <path
         d="m 113.72252,375.3294 c 0.046,1.2 0.092,2.401 0.136,3.597 -0.047,-1.201 -0.092,-2.399 -0.136,-3.597"
         id="path688" />
      <path
         d="m 128.04672,568.8728 c 1.307,-10e-4 2.613,-0.002 3.92,-0.003 -1.308,10e-4 -2.613,0.002 -3.92,0.003"
         id="path690" />
      <path
         d="m 772.31342,387.9822 c 0.048,1.105 0.097,2.21 0.146,3.309 -0.047,-1.108 -0.097,-2.208 -0.146,-3.309"
         id="path692" />
      <path
         d="m 100.30072,570.2195 c 1.285,-0.853 2.573,-0.779 3.863,-0.014 -1.288,0.005 -2.576,0.01 -3.863,0.014"
         id="path694" />
      <path
         d="m 134.13852,194.0862 c 0.069,1.128 0.139,2.257 0.211,3.378 -0.069,-1.13 -0.14,-2.254 -0.211,-3.378"
         id="path696" />
      <path
         d="m 93.61512,570.3362 c 1.336,0.005 2.672,0.011 4.007,0.017 -1.34,0.912 -2.675,0.955 -4.007,-0.017"
         id="path698" />
      <path
         d="m 833.40322,176.3792 c 0.011,-1.146 0.021,-2.291 0.031,-3.434 -0.011,1.147 -0.021,2.29 -0.031,3.434"
         id="path700" />
      <path
         d="m 220.05362,156.3387 c 1.278,0.167 2.556,0.334 3.833,0.5 -1.278,-0.167 -2.556,-0.333 -3.833,-0.5"
         id="path702" />
      <path
         d="m 107.27822,255.2376 c 0.017,1.07 0.034,2.141 0.054,3.206 -0.017,-1.072 -0.035,-2.139 -0.054,-3.206"
         id="path704" />
      <path
         d="m 842.00672,255.0843 c -0.07,-1.09 -0.14,-2.18 -0.21,-3.265 0.07,1.092 0.141,2.179 0.21,3.265"
         id="path706" />
      <path
         d="m 543.93442,569.0584 c 1.577,0.143 3.154,0.286 4.73,0.428 -1.577,-0.143 -3.153,-0.285 -4.73,-0.428"
         id="path708" />
      <path
         d="m 538.66592,528.2351 c -0.853,0.014 -1.704,0.027 -2.549,0.045 0.855,-0.011 1.702,-0.028 2.549,-0.045"
         id="path710" />
      <path
         d="m 538.73822,568.4339 c 1.322,0.13 2.646,0.261 3.968,0.391 -1.323,-0.131 -2.646,-0.261 -3.968,-0.391"
         id="path712" />
      <path
         d="m 300.71672,479.3655 c 1.721,9.724 -13.391,19.234 -14.589,5.411 -0.438,-5.055 2.942,-8.609 6.727,-11.699 5.372,-4.385 8.373,-0.186 7.862,6.288"
         id="path714" />
      <path
         d="m 134.14442,360.7278 c 3.56,1.457 30.759,10.32 16.631,14.778 -3.74,1.18 -9.393,1.356 -12.635,-0.723 -3.9,-2.502 -7.834,-9.885 -3.996,-14.055"
         id="path716" />
      <path
         d="m 140.83782,229.0437 c 9.232,-1.072 17.738,14.091 6.356,13.599 -8.285,-0.359 -19.427,-13.599 -6.356,-13.599"
         id="path718" />
      <path
         d="m 173.86312,266.2224 c 7.709,6.726 -6.58,21.779 -12.253,15.953 -2.897,-2.976 -0.225,-9.387 2.166,-11.877 2.454,-2.555 6.82,-3.035 10.087,-4.076"
         id="path720" />
      <path
         d="m 196.81332,440.5911 c -4.551,0.723 -24.565,7.263 -20.391,-4.616 1.592,-4.53 6.032,-3.186 10.091,-2.978 6.542,0.334 10.3,0.021 10.3,7.594"
         id="path722" />
      <path
         d="m 183.62972,471.1883 c 6.813,3.645 -3.146,24.043 -8.793,19.703 -7.835,-6.022 2.881,-17.871 8.793,-19.703"
         id="path724" />
      <path
         d="m 213.34362,454.7908 c 3.313,-1.353 18.93,13.669 12.985,17.848 -3.047,2.142 -8.82,-1.53 -10.657,-3.744 -3.444,-4.152 -3.756,-9.274 -2.328,-14.104"
         id="path726" />
      <path
         d="m 123.24112,332.0056 c 3.386,0.556 9.232,0.732 9.451,5.49 0.192,4.182 -5.051,5.537 -8.742,5.865 -3.83,0.34 -8.9,-0.741 -8.973,-5.556 -0.077,-5.195 8.144,-4.882 8.264,-5.799"
         id="path728" />
      <path
         d="m 206.73912,539.0579 c 3.606,2.189 20.426,10.071 13.216,15.765 -2.698,2.131 -10.877,-2.27 -12.718,-4.507 -2.197,-2.67 -4.344,-8.925 -0.498,-11.258"
         id="path730" />
      <path
         d="m 253.49692,481.864 c -0.521,-8.7 14.157,-12.163 11.114,0.186 -0.858,3.482 -1.688,8.767 -5.993,8.969 -5.088,0.239 -5.272,-5.781 -5.121,-9.155"
         id="path732" />
      <path
         d="m 208.15512,330.5735 c 0.102,6.6 -12.544,12.42 -12.642,1.959 -0.087,-9.348 13.114,-12.084 12.642,-1.959"
         id="path734" />
      <path
         d="m 199.80462,296.2 c 3.116,1.004 7.257,1.521 7.531,5.48 0.291,4.19 -3.601,6.055 -7.103,5.82 -2.872,-0.193 -7.122,-2.319 -7.644,-5.435 -0.765,-4.574 3.699,-4.873 7.216,-5.865"
         id="path736" />
      <path
         d="m 141.86222,417.033 c -0.053,-5.446 10.861,-11.991 12.871,-5.672 0.643,2.022 -4.501,11.089 -6.212,11.768 -4.527,1.797 -5.159,-2.391 -6.659,-6.096"
         id="path738" />
      <path
         d="m 231.29672,507.6756 c -3.688,3.301 -14.751,12.574 -13.924,0.126 0.528,-7.952 14.897,-7.537 13.924,-0.126"
         id="path740" />
      <path
         d="m 411.53992,543.2532 c 1.209,-5.234 18.517,3.846 12.741,10.457 -1.938,2.219 -7.007,0.211 -8.956,-1.104 -3.857,-2.603 -3.941,-5.006 -3.785,-9.353"
         id="path742" />
      <path
         d="m 315.10532,431.2156 c 0.675,-2.333 1.425,-6.459 3.651,-7.948 4.028,-2.694 7.535,1.37 7.536,5.653 10e-4,7.99 -9.094,10.51 -11.187,2.295"
         id="path744" />
      <path
         d="m 272.20792,524.6336 c 4.494,1.03 14.5,11.954 8.697,16.41 -5.585,4.289 -13.013,-13.147 -8.697,-16.41"
         id="path746" />
      <path
         d="m 276.48622,441.9456 c 5.778,0.461 13.72,9.818 4.739,11.305 -7.025,1.164 -15.195,-9.013 -4.739,-11.305"
         id="path748" />
      <path
         d="m 328.79582,485.0032 c 1.449,-4.881 15.779,0.349 14.974,5.723 -0.428,2.857 -6.287,3.528 -9.367,2.773 -4.534,-1.113 -5.711,-4.087 -5.607,-8.496"
         id="path750" />
      <path
         d="m 159.87882,212.3972 c 0.104,-6.31 12.229,-8.882 13.117,-2.523 0.803,5.745 -13.269,11.858 -13.117,2.523"
         id="path752" />
      <path
         d="m 324.78992,550.0218 c 0.874,-3.173 1.251,-6.992 5.214,-7.41 4.538,-0.479 4.404,3.001 3.871,6.607 -1.452,9.811 -6.996,10.301 -9.085,0.803"
         id="path754" />
      <path
         d="m 133.31432,287.472 c -6.321,1.426 -17.898,-10.748 -10.822,-13.36 4.986,-1.843 10.822,9.687 10.822,13.36"
         id="path756" />
      <path
         d="m 213.93642,382.0359 c -3.217,1.515 -3.958,2.434 -6.429,-0.052 -2.152,-2.165 -2.057,-8.197 -0.21,-10.449 7.074,-8.624 6.908,7.011 6.639,10.501"
         id="path758" />
      <path
         d="m 240.18252,364.5447 c 3.355,0.427 13.324,9.883 8.133,13.641 -6.361,4.604 -9.96,-9.819 -8.133,-13.641"
         id="path760" />
      <path
         d="m 312.77042,367.0349 c -2.439,9.391 -8.526,3.072 -8.181,-4.034 0.554,-11.382 6.862,-1.469 8.181,4.034"
         id="path762" />
      <path
         d="m 349.78212,517.8611 c 4.126,1.707 9.726,17.479 3.833,18.325 -6.619,0.949 -4.415,-15.041 -3.833,-18.325"
         id="path764" />
      <path
         d="m 298.25672,509.0003 c 4.721,-1.593 6.451,8.366 3.707,10.216 -6.037,4.07 -4.764,-7.866 -3.707,-10.216"
         id="path766" />
      <path
         d="m 253.49692,481.864 c -0.06,1.322 -0.119,2.644 -0.181,3.958 0.059,-1.324 0.119,-2.641 0.181,-3.958"
         id="path768" />
      <path
         d="m 411.53992,543.2532 c -0.049,1.356 -0.098,2.711 -0.149,4.06 0.047,-1.358 0.098,-2.709 0.149,-4.06"
         id="path770" />
      <path
         d="m 328.79582,485.0032 c -0.026,1.15 -0.054,2.3 -0.084,3.443 0.026,-1.153 0.056,-2.298 0.084,-3.443"
         id="path772" />
      <path
         d="m 850.99302,465.2117 c 9.788,-0.314 20.707,-3.998 30.325,-2.826 2.648,0.323 8.743,0.99 4.501,4.917 -2.029,1.878 -11.742,0.907 -14.682,1.53 -17.971,3.805 -38.371,6.259 -56.798,5.942 -8.626,-0.148 -17.316,-0.839 -25.938,-1.295 -8.616,-0.456 -9.463,-3.957 0.232,-5.071 10.069,-1.156 20.401,-0.727 30.52,-0.739 10.638,-0.014 21.223,-1.748 31.84,-2.458"
         id="path774" />
      <path
         d="m 872.48132,441.6302 c -0.942,2.682 -1.769,8.838 -5.379,9.242 -5.056,0.565 -5.893,-8.116 -5.707,-11.291 0.226,-3.832 1.605,-10.198 6.368,-8.87 4.023,1.12 4.426,7.852 4.718,10.919"
         id="path776" />
      <path
         d="m 841.87192,439.6663 c 0.739,-2.872 1.102,-9.348 5.164,-9.568 4.54,-0.245 5.837,6.502 5.807,9.735 -0.03,3.069 -1.165,8.866 -4.78,9.575 -4.901,0.961 -5.339,-6.46 -6.191,-9.742"
         id="path778" />
      <path
         d="m 790.89642,444.8181 c -1.471,3.452 -2.444,8.207 -6.996,5.853 -3.52,-1.82 -4.011,-9.161 -3.347,-12.522 0.688,-3.482 2.145,-7.476 6.146,-5.91 4.614,1.807 4.148,8.778 4.197,12.579"
         id="path780" />
      <path
         d="m 829.49892,441.6302 c -4.339,13.153 -12.253,4.254 -9.248,-5.566 3.142,-10.264 8.849,-0.295 9.248,5.566"
         id="path782" />
      <path
         d="m 808.35832,442.281 c -1.205,2.316 -2.487,7.312 -5.735,6.786 -3.982,-0.646 -4.11,-8.309 -3.673,-11.163 0.381,-2.498 1.503,-6.661 4.836,-6.607 4.816,0.078 4.493,7.986 4.572,10.984"
         id="path784" />
      <path
         d="m 894.91002,444.8059 c -3.23,7.247 -7.673,1.004 -6.251,-4.143 2.109,-7.633 6.068,-0.87 6.251,4.143"
         id="path786" />
      <path
         d="m 815.80552,467.679 c -3.527,-0.014 -7.056,-0.027 -10.583,-0.04 3.53,-0.665 7.06,-0.924 10.583,0.04"
         id="path788" />
      <path
         d="m 885.90712,462.3562 c -3.06,0.02 -6.119,0.039 -9.177,0.059 3.054,-0.916 6.113,-0.936 9.177,-0.059"
         id="path790" />
      <path
         d="m 850.99302,465.2117 c -2.449,0.164 -4.897,0.328 -7.345,0.492 2.449,-0.164 4.897,-0.328 7.345,-0.492"
         id="path792" />
      <path
         d="m 790.89642,444.8181 c -0.022,-1.758 -0.046,-3.516 -0.067,-5.27 0.905,1.748 0.842,3.504 0.067,5.27"
         id="path794" />
      <path
         d="m 810.09072,474.7376 c 1.42,0.013 2.84,0.025 4.248,0.038 -1.424,-0.013 -2.836,-0.025 -4.248,-0.038"
         id="path796" />
      <path
         d="m 786.24502,473.4803 c 1.438,0 2.877,-10e-4 4.305,0 -1.444,0 -2.874,0 -4.305,0"
         id="path798" />
      <path
         d="m 798.03702,467.8308 c -2,0.164 -4,0.328 -5.999,0.492 2,-0.164 3.999,-0.328 5.999,-0.492"
         id="path800" />
      <path
         d="m 825.07702,467.657 c -1.975,0.004 -3.949,0.008 -5.924,0.012 1.974,-0.832 3.948,-0.856 5.924,-0.012"
         id="path802" />
      <path
         d="m 808.35832,442.281 c -0.049,-1.832 -0.097,-3.664 -0.143,-5.494 0.049,1.833 0.096,3.664 0.143,5.494"
         id="path804" />
      <path
         d="m 780.55362,438.1492 c -0.011,1.787 -0.022,3.574 -0.036,5.354 0.011,-1.789 0.023,-3.571 0.036,-5.354"
         id="path806" />
      <path
         d="m 862.21372,464.5467 c -1.746,0.158 -3.491,0.315 -5.235,0.473 1.746,-0.158 3.491,-0.315 5.235,-0.473"
         id="path808" />
      <path
         d="m 894.91002,444.8059 c -0.057,-1.561 -0.113,-3.122 -0.169,-4.681 0.057,1.562 0.112,3.121 0.169,4.681"
         id="path810" />
      <path
         d="m 820.64052,474.7898 c 1.215,-0.023 2.43,-0.046 3.633,-0.067 -1.219,0.024 -2.426,0.046 -3.633,0.067"
         id="path812" />
      <path
         d="m 872.48132,441.6302 c -0.107,-1.122 -0.214,-2.245 -0.32,-3.363 0.107,1.124 0.214,2.243 0.32,3.363"
         id="path814" />
      <path
         d="m 829.49892,441.6302 c -0.078,-1.152 -0.157,-2.305 -0.235,-3.454 0.079,1.153 0.157,2.304 0.235,3.454"
         id="path816" />
      <path
         d="m 202.86312,103.1004 c -4.779,-1.254 -5.675,-7.97 -4.907,-12.095 0.871,-1.988 1.742,-3.975 2.613,-5.963 -0.341,-0.735 -0.681,-1.47 -1.021,-2.205 0.437,-4.094 -0.68,-5.873 4.025,-4.215 8.74,3.082 10.137,24.162 -0.71,24.478"
         id="path818" />
      <path
         d="m 273.60442,90.115 c 3.937,-0.31 11.088,4.275 7.169,8.711 -2.428,2.748 -10.429,1.448 -13.693,2.022 -4.329,0.761 -8.844,1.802 -6.502,-4.682 1.839,-5.092 8.407,-6.184 13.026,-6.051"
         id="path820" />
      <path
         d="m 269.46182,120.6136 c -3.999,-3.207 -2.214,-17.814 3.872,-15.186 6.261,2.705 -0.535,13.078 -3.872,15.186"
         id="path822" />
      <path
         d="m 197.95592,91.0052 c 0,1.537 -0.001,3.075 -0.004,4.605 -0.834,-1.54 -0.808,-3.073 0.004,-4.605"
         id="path824" />
      <path
         d="m 202.86312,103.1004 c 0.815,-0.023 1.631,-0.047 2.436,-0.068 -0.819,0.026 -1.627,0.047 -2.436,0.068"
         id="path826" />
      <path
         d="m 696.64542,523.7669 c -0.374,6.644 -7.509,1.732 -7.003,-2.713 0.919,-8.066 5.48,-0.095 7.003,2.713"
         id="path828" />
    </g>
  </g>
</svg>
