<?xml version="1.0" encoding="UTF-8"?>
<!DOCTYPE svg PUBLIC "-//W3C//DTD SVG 1.1//EN" "http://www.w3.org/Graphics/SVG/1.1/DTD/svg11.dtd">
<svg xmlns="http://www.w3.org/2000/svg" version="1.1" width="3600px" height="1620px" style="shape-rendering:geometricPrecision; text-rendering:geometricPrecision; image-rendering:optimizeQuality; fill-rule:evenodd; clip-rule:evenodd" xmlns:xlink="http://www.w3.org/1999/xlink">
<g><path style="opacity:1" fill="#fefefe" d="M -0.5,-0.5 C 1199.5,-0.5 2399.5,-0.5 3599.5,-0.5C 3599.5,539.5 3599.5,1079.5 3599.5,1619.5C 2399.5,1619.5 1199.5,1619.5 -0.5,1619.5C -0.5,1079.5 -0.5,539.5 -0.5,-0.5 Z"/></g>
<g><path style="opacity:1" fill="#fe47b7" d="M 1647.5,63.5 C 1699.48,59.3956 1736.64,80.729 1759,127.5C 1770.41,160.884 1770.08,194.217 1758,227.5C 1737.73,282.102 1702.56,324.269 1652.5,354C 1589.38,388.87 1521.71,407.37 1449.5,409.5C 1449.18,407.278 1449.84,405.444 1451.5,404C 1483.12,391.452 1510.29,372.619 1533,347.5C 1546.77,330.28 1554.77,310.613 1557,288.5C 1557.99,247.166 1558.99,205.832 1560,164.5C 1562.59,139.712 1571.26,117.379 1586,97.5C 1602.85,79.4713 1623.35,68.1379 1647.5,63.5 Z"/></g>
<g><path style="opacity:1" fill="#ff7301" d="M 2317.5,65.5 C 2367.9,61.1259 2410.73,76.7926 2446,112.5C 2459.94,127.793 2467.77,145.793 2469.5,166.5C 2468.88,191.256 2457.21,208.423 2434.5,218C 2426.38,221.112 2418.05,223.446 2409.5,225C 2372.37,227.343 2335.37,231.01 2298.5,236C 2260.45,242.097 2223.45,252.097 2187.5,266C 2171.43,273.095 2156.09,281.428 2141.5,291C 2137.73,292.183 2134.56,291.349 2132,288.5C 2138.15,233.695 2157.82,184.362 2191,140.5C 2223.89,99.7635 2266.06,74.7635 2317.5,65.5 Z"/></g>
<g><path style="opacity:1" fill="#67d9e5" d="M 1250.5,104.5 C 1252.29,107.259 1252.79,110.259 1252,113.5C 1248.93,116.941 1245.43,119.775 1241.5,122C 1242.32,123.49 1243.15,124.99 1244,126.5C 1250.28,123.891 1254.94,119.558 1258,113.5C 1258.97,109.104 1258.14,105.104 1255.5,101.5C 1257.67,99.9138 1260,98.5804 1262.5,97.5C 1267.17,105.426 1273.83,107.592 1282.5,104C 1285.17,102 1287.83,100 1290.5,98C 1289.21,96.5905 1288.05,95.0905 1287,93.5C 1282.98,98.5927 1277.82,100.426 1271.5,99C 1269.86,97.871 1268.86,96.371 1268.5,94.5C 1301.82,79.6398 1335.82,77.8065 1370.5,89C 1399.15,103.103 1412.81,126.269 1411.5,158.5C 1411.53,201.934 1395.2,237.767 1362.5,266C 1343.26,281.234 1322.92,294.9 1301.5,307C 1274.6,320.965 1247.26,333.965 1219.5,346C 1164.24,371.874 1115.41,406.707 1073,450.5C 1080.7,362.061 1108.7,280.727 1157,206.5C 1175.11,176.501 1196.95,149.334 1222.5,125C 1231.43,117.562 1240.76,110.729 1250.5,104.5 Z"/></g>
<g><path style="opacity:1" fill="#bc293a" d="M 1268.5,94.5 C 1268.86,96.371 1269.86,97.871 1271.5,99C 1277.82,100.426 1282.98,98.5927 1287,93.5C 1288.05,95.0905 1289.21,96.5905 1290.5,98C 1287.83,100 1285.17,102 1282.5,104C 1273.83,107.592 1267.17,105.426 1262.5,97.5C 1261.51,95.5266 1260.51,93.5266 1259.5,91.5C 1260.91,90.376 1262.41,89.376 1264,88.5C 1265.28,90.7472 1266.78,92.7472 1268.5,94.5 Z"/></g>
<g><path style="opacity:1" fill="#e7c5d0" d="M 742.5,90.5 C 751.787,92.8842 753.454,97.7175 747.5,105C 739.209,106.955 735.709,103.788 737,95.5C 738.107,92.887 739.94,91.2203 742.5,90.5 Z"/></g>
<g><path style="opacity:1" fill="#ffcc02" d="M 2686.5,93.5 C 2714.36,90.0194 2736.19,99.6861 2752,122.5C 2767.3,160.584 2756.8,189.417 2720.5,209C 2655.15,237.755 2586.81,253.755 2515.5,257C 2545.25,211.221 2579.58,168.887 2618.5,130C 2638.2,112.315 2660.87,100.149 2686.5,93.5 Z"/></g>
<g><path style="opacity:1" fill="#bc2839" d="M 1255.5,101.5 C 1258.14,105.104 1258.97,109.104 1258,113.5C 1254.94,119.558 1250.28,123.891 1244,126.5C 1243.15,124.99 1242.32,123.49 1241.5,122C 1245.43,119.775 1248.93,116.941 1252,113.5C 1252.79,110.259 1252.29,107.259 1250.5,104.5C 1249.19,102.852 1247.86,101.186 1246.5,99.5C 1247.58,97.2163 1249.25,96.0496 1251.5,96C 1252.66,97.9917 1254,99.825 1255.5,101.5 Z"/></g>
<g><path style="opacity:1" fill="#c20201" d="M 420.5,106.5 C 472.888,102.785 516.721,120.118 552,158.5C 582.176,203.84 598.176,253.84 600,308.5C 600.216,337.179 600.882,365.846 602,394.5C 603.031,419.293 609.364,442.626 621,464.5C 625.07,471.24 629.904,477.407 635.5,483C 624.393,479.628 613.393,475.628 602.5,471C 533.466,440.182 468.799,402.515 408.5,358C 389.436,342.608 371.269,326.108 354,308.5C 320.687,272.26 309.021,229.927 319,181.5C 332.57,145.937 357.737,122.77 394.5,112C 403.182,109.565 411.848,107.732 420.5,106.5 Z"/></g>
<g><path style="opacity:1" fill="#b92135" d="M 1288.5,128.5 C 1288.69,130.196 1289.52,131.529 1291,132.5C 1291.72,135.125 1290.72,136.792 1288,137.5C 1286.65,135.982 1285.15,134.649 1283.5,133.5C 1276.74,120.686 1280.24,112.02 1294,107.5C 1296.05,108.638 1296.71,110.305 1296,112.5C 1291.67,113.988 1288.34,116.654 1286,120.5C 1285.02,123.817 1285.86,126.484 1288.5,128.5 Z"/></g>
<g><path style="opacity:1" fill="#c20402" d="M 1875.5,107.5 C 1904,104.213 1922.17,116.213 1930,143.5C 1931.49,154.191 1929.49,164.191 1924,173.5C 1906.19,199.066 1886.03,222.733 1863.5,244.5C 1851.61,211.523 1844.78,177.523 1843,142.5C 1847.85,125.159 1858.68,113.492 1875.5,107.5 Z"/></g>
<g><path style="opacity:1" fill="#fdca02" d="M 744.5,111.5 C 747.808,110.974 749.974,112.307 751,115.5C 765.433,138.705 779.6,162.038 793.5,185.5C 793.124,187.383 792.124,188.883 790.5,190C 766.976,208.358 743.309,226.525 719.5,244.5C 697.85,224.684 676.35,204.684 655,184.5C 654.51,183.207 654.343,181.873 654.5,180.5C 668.965,182.209 683.298,184.709 697.5,188C 700.5,188.667 703.5,188.667 706.5,188C 707.576,186.274 707.743,184.441 707,182.5C 702.753,170.622 698.753,158.622 695,146.5C 693.883,142.512 693.216,138.512 693,134.5C 694.388,133.446 695.888,133.28 697.5,134C 710.965,142.904 724.631,151.571 738.5,160C 739.833,160.667 741.167,160.667 742.5,160C 743.174,143.834 743.84,127.667 744.5,111.5 Z"/></g>
<g><path style="opacity:1" fill="#e8c7d2" d="M 682.5,115.5 C 691.273,116.389 693.773,120.722 690,128.5C 685.448,131.458 681.448,130.791 678,126.5C 676.776,121.626 678.276,117.959 682.5,115.5 Z"/></g>
<g><path style="opacity:1" fill="#030505" d="M 1313.5,152.5 C 1313.14,150.629 1312.14,149.129 1310.5,148C 1300.94,146.556 1297.44,150.39 1300,159.5C 1304.43,163.376 1308.93,163.376 1313.5,159.5C 1309.78,169.223 1302.78,174.89 1292.5,176.5C 1285.44,176.142 1280.78,172.642 1278.5,166C 1276.57,160.305 1276.07,154.471 1277,148.5C 1278.69,143.265 1280.85,138.265 1283.5,133.5C 1285.15,134.649 1286.65,135.982 1288,137.5C 1290.72,136.792 1291.72,135.125 1291,132.5C 1289.52,131.529 1288.69,130.196 1288.5,128.5C 1292.46,124.011 1297.46,122.177 1303.5,123C 1308.13,131.086 1312.63,139.253 1317,147.5C 1316.98,150.57 1316.32,153.57 1315,156.5C 1314.79,154.942 1314.29,153.609 1313.5,152.5 Z"/></g>
<g><path style="opacity:1" fill="#050203" d="M 1638.5,124.5 C 1652.69,124.52 1659.69,131.687 1659.5,146C 1659.37,158.248 1654.71,168.248 1645.5,176C 1633.06,182.295 1624.56,178.795 1620,165.5C 1617.03,147.46 1623.19,133.793 1638.5,124.5 Z"/></g>
<g><path style="opacity:1" fill="#bb2337" d="M 1259.5,127.5 C 1269.16,127.478 1275.5,132.145 1278.5,141.5C 1277.09,142.624 1275.59,143.624 1274,144.5C 1268.96,131.804 1261.46,130.137 1251.5,139.5C 1249.86,138.084 1249.03,136.417 1249,134.5C 1252.15,131.488 1255.65,129.155 1259.5,127.5 Z"/></g>
<g><path style="opacity:1" fill="#07c266" d="M 2121.5,128.5 C 2122.12,128.611 2122.62,128.944 2123,129.5C 2142.4,203.567 2115.57,251.067 2042.5,272C 2039.21,272.826 2035.87,273.326 2032.5,273.5C 2014.6,195.602 2044.26,147.269 2121.5,128.5 Z"/></g>
<g><path style="opacity:1" fill="#68dae6" d="M 2843.5,135.5 C 2846.83,135.5 2850.17,135.5 2853.5,135.5C 2855.54,156.855 2850.38,176.189 2838,193.5C 2821.99,207.724 2803.16,214.724 2781.5,214.5C 2777.81,168.57 2798.47,142.237 2843.5,135.5 Z"/></g>
<g><path style="opacity:1" fill="#040203" d="M 1690.5,143.5 C 1701.92,142.29 1708.76,147.29 1711,158.5C 1713.42,174.935 1707.92,187.768 1694.5,197C 1681.41,199.877 1673.91,194.711 1672,181.5C 1669.95,164.611 1676.11,151.944 1690.5,143.5 Z"/></g>
<g><path style="opacity:1" fill="#fafafa" d="M 1313.5,152.5 C 1313.5,154.833 1313.5,157.167 1313.5,159.5C 1308.93,163.376 1304.43,163.376 1300,159.5C 1297.44,150.39 1300.94,146.556 1310.5,148C 1312.14,149.129 1313.14,150.629 1313.5,152.5 Z"/></g>
<g><path style="opacity:1" fill="#030505" d="M 1360.5,147.5 C 1362.02,147.511 1363.18,148.177 1364,149.5C 1370.61,162.977 1369.61,175.977 1361,188.5C 1354.77,197.133 1346.6,199.966 1336.5,197C 1328.91,190.241 1326.08,181.741 1328,171.5C 1329.25,166.742 1331.08,162.242 1333.5,158C 1342.8,154.962 1351.8,151.462 1360.5,147.5 Z"/></g>
<g><path style="opacity:1" fill="#f5f5f5" d="M 1625.5,149.5 C 1633.53,148.922 1637.03,152.588 1636,160.5C 1630.87,167.075 1625.87,167.075 1621,160.5C 1619.39,155.438 1620.89,151.772 1625.5,149.5 Z"/></g>
<g><path style="opacity:1" fill="#f9f9f9" d="M 1355.5,165.5 C 1361.76,164.261 1365.42,166.761 1366.5,173C 1365.01,179.418 1361.01,181.751 1354.5,180C 1348.88,174.595 1349.21,169.762 1355.5,165.5 Z"/></g>
<g><path style="opacity:1" fill="#f5f5f5" d="M 1677.5,167.5 C 1685.66,166.823 1689.16,170.49 1688,178.5C 1682.58,185.433 1677.58,185.1 1673,177.5C 1672.08,173.017 1673.58,169.683 1677.5,167.5 Z"/></g>
<g><path style="opacity:1" fill="#e9c8d3" d="M 639.5,169.5 C 649.811,169.63 652.478,174.13 647.5,183C 639.412,185.875 635.579,183.042 636,174.5C 636.997,172.677 638.164,171.01 639.5,169.5 Z"/></g>
<g><path style="opacity:1" fill="#03c165" d="M 2998.5,188.5 C 3062.94,188.425 3101.44,220.092 3114,283.5C 3117.45,345.245 3098.78,399.245 3058,445.5C 3028.35,477.073 2993.85,501.906 2954.5,520C 2913.7,539.159 2871.03,551.825 2826.5,558C 2825.17,556.667 2825.17,555.333 2826.5,554C 2857.67,537.494 2883.17,514.661 2903,485.5C 2917.37,460.324 2922.37,433.324 2918,404.5C 2915.28,381.789 2912.28,359.122 2909,336.5C 2907.15,316.489 2907.15,296.489 2909,276.5C 2918.58,226.416 2948.42,197.083 2998.5,188.5 Z"/></g>
<g><path style="opacity:1" fill="#1b1e1d" d="M 1292.5,192.5 C 1287.32,192.444 1284.49,195.11 1284,200.5C 1280.56,203.047 1278.4,206.38 1277.5,210.5C 1276.78,202.769 1279.78,196.603 1286.5,192C 1288.71,191.211 1290.71,191.378 1292.5,192.5 Z"/></g>
<g><path style="opacity:1" fill="#f7f7f7" d="M 1292.5,192.5 C 1294.18,194.008 1296.18,195.008 1298.5,195.5C 1298.97,196.906 1299.97,197.573 1301.5,197.5C 1301.97,198.906 1302.97,199.573 1304.5,199.5C 1305.66,201.25 1307.33,202.25 1309.5,202.5C 1311.34,204.588 1313.67,205.921 1316.5,206.5C 1321.07,209.616 1326.07,211.95 1331.5,213.5C 1330,216.995 1327.66,219.829 1324.5,222C 1325.95,225.028 1325.28,227.528 1322.5,229.5C 1321.38,228.37 1320.04,227.703 1318.5,227.5C 1318.03,226.094 1317.03,225.427 1315.5,225.5C 1312.09,222.46 1308.09,220.46 1303.5,219.5C 1302.79,218.596 1301.79,218.263 1300.5,218.5C 1295.17,216.08 1289.5,214.413 1283.5,213.5C 1281.82,211.992 1279.82,210.992 1277.5,210.5C 1278.4,206.38 1280.56,203.047 1284,200.5C 1284.49,195.11 1287.32,192.444 1292.5,192.5 Z"/></g>
<g><path style="opacity:1" fill="#435657" d="M 1292.5,192.5 C 1295.09,192.461 1297.09,193.461 1298.5,195.5C 1296.18,195.008 1294.18,194.008 1292.5,192.5 Z"/></g>
<g><path style="opacity:1" fill="#2d3b3a" d="M 1298.5,195.5 C 1300.03,195.427 1301.03,196.094 1301.5,197.5C 1299.97,197.573 1298.97,196.906 1298.5,195.5 Z"/></g>
<g><path style="opacity:1" fill="#2c3a3a" d="M 1301.5,197.5 C 1303.03,197.427 1304.03,198.094 1304.5,199.5C 1302.97,199.573 1301.97,198.906 1301.5,197.5 Z"/></g>
<g><path style="opacity:1" fill="#030102" d="M 1631.5,199.5 C 1637.51,199.801 1643.51,200.301 1649.5,201C 1658.35,205.258 1667.35,209.258 1676.5,213C 1688.19,213.951 1699.86,214.951 1711.5,216C 1712.89,216.956 1713.56,218.289 1713.5,220C 1711.72,227.401 1708.22,233.901 1703,239.5C 1698.93,243.849 1694.76,248.016 1690.5,252C 1683.61,256.973 1675.94,258.973 1667.5,258C 1661.88,254.045 1656.54,249.712 1651.5,245C 1643.87,239.902 1635.54,236.568 1626.5,235C 1619.83,234.667 1613.17,234.333 1606.5,234C 1603.74,231.005 1602.9,227.505 1604,223.5C 1609.7,211.288 1618.87,203.288 1631.5,199.5 Z"/></g>
<g><path style="opacity:1" fill="#fe47b7" d="M 817.5,205.5 C 856.278,202.691 890.945,213.191 921.5,237C 963.515,273.162 990.015,318.662 1001,373.5C 1008.65,424.737 1004.65,475.07 989,524.5C 971.924,577.82 947.091,626.987 914.5,672C 904.099,677.228 896.266,674.728 891,664.5C 892.113,658.282 892.946,651.948 893.5,645.5C 892.5,628.999 888.334,613.332 881,598.5C 865.299,566.409 845.633,537.075 822,510.5C 798.697,484.864 774.364,460.197 749,436.5C 729.107,414.384 715.773,388.717 709,359.5C 700.749,290.442 728.249,241.608 791.5,213C 800.114,209.851 808.781,207.351 817.5,205.5 Z"/></g>
<g><path style="opacity:1" fill="#3b4f4f" d="M 1309.5,202.5 C 1312.33,203.079 1314.66,204.412 1316.5,206.5C 1313.67,205.921 1311.34,204.588 1309.5,202.5 Z"/></g>
<g><path style="opacity:1" fill="#424b4a" d="M 1277.5,210.5 C 1279.82,210.992 1281.82,211.992 1283.5,213.5C 1280.91,213.539 1278.91,212.539 1277.5,210.5 Z"/></g>
<g><path style="opacity:1" fill="#364748" d="M 1283.5,213.5 C 1289.5,214.413 1295.17,216.08 1300.5,218.5C 1294.41,217.899 1288.74,216.232 1283.5,213.5 Z"/></g>
<g><path style="opacity:1" fill="#242d2c" d="M 1331.5,213.5 C 1333.23,213.843 1333.73,214.843 1333,216.5C 1329.72,220.726 1327.22,225.393 1325.5,230.5C 1325.53,232.029 1326.2,233.196 1327.5,234C 1326.83,234.667 1326.17,234.667 1325.5,234C 1323.09,231.817 1320.76,229.65 1318.5,227.5C 1320.04,227.703 1321.38,228.37 1322.5,229.5C 1325.28,227.528 1325.95,225.028 1324.5,222C 1327.66,219.829 1330,216.995 1331.5,213.5 Z"/></g>
<g><path style="opacity:1" fill="#010201" d="M 3038.5,218.5 C 3048.16,219.327 3055.33,223.994 3060,232.5C 3064.66,242.122 3065.66,252.122 3063,262.5C 3057.41,273.476 3049.24,275.976 3038.5,270C 3024.28,257.034 3021.11,241.867 3029,224.5C 3031.84,221.837 3035.01,219.837 3038.5,218.5 Z"/></g>
<g><path style="opacity:1" fill="#3e4b4b" d="M 1303.5,219.5 C 1308.09,220.46 1312.09,222.46 1315.5,225.5C 1311.18,224.008 1307.18,222.008 1303.5,219.5 Z"/></g>
<g><path style="opacity:1" fill="#020302" d="M 2958.5,236.5 C 2968.45,235.953 2975.95,239.953 2981,248.5C 2987.9,260.681 2988.24,273.014 2982,285.5C 2974.93,291.506 2967.43,292.006 2959.5,287C 2945.52,273.259 2943.02,257.759 2952,240.5C 2954.09,238.875 2956.26,237.542 2958.5,236.5 Z"/></g>
<g><path style="opacity:1" fill="#e58ffe" d="M 2364.5,244.5 C 2425.85,241.41 2480.85,258.243 2529.5,295C 2550.3,312.109 2566.13,332.942 2577,357.5C 2591.41,398.119 2584.74,434.786 2557,467.5C 2522.35,500.37 2482.85,507.87 2438.5,490C 2425.31,482.647 2413.48,473.481 2403,462.5C 2397,455.167 2391,447.833 2385,440.5C 2369.94,417.768 2355.27,394.768 2341,371.5C 2329.59,352.757 2314.76,337.257 2296.5,325C 2267.23,310.413 2236.23,304.413 2203.5,307C 2192.46,307.84 2181.46,309.006 2170.5,310.5C 2170.29,308.856 2170.62,307.356 2171.5,306C 2231.32,270.892 2295.65,250.392 2364.5,244.5 Z"/></g>
<g><path style="opacity:1" fill="#040102" d="M 846.5,246.5 C 863.801,245.631 876.301,252.964 884,268.5C 889.959,279.86 889.959,291.194 884,302.5C 877.482,308.583 869.982,310.083 861.5,307C 841.359,297.558 832.526,281.724 835,259.5C 837.3,253.706 841.133,249.373 846.5,246.5 Z"/></g>
<g><path style="opacity:1" fill="#ffcc03" d="M 1922.5,245.5 C 1969.56,247.598 1982.72,269.931 1962,312.5C 1943.94,339.228 1920.77,360.394 1892.5,376C 1861.49,391.779 1829.15,403.779 1795.5,412C 1794.48,410.951 1794.32,409.784 1795,408.5C 1808.92,381.656 1822.59,354.656 1836,327.5C 1850,300.154 1869.17,276.987 1893.5,258C 1902.46,251.966 1912.12,247.8 1922.5,245.5 Z"/></g>
<g><path style="opacity:1" fill="#f5f5f5" d="M 3036.5,245.5 C 3046.05,245.288 3049.22,249.622 3046,258.5C 3040.56,262.926 3035.89,262.259 3032,256.5C 3031.3,251.907 3032.8,248.241 3036.5,245.5 Z"/></g>
<g><path style="opacity:1" fill="#ff7302" d="M 2788.5,253.5 C 2819.41,251.702 2842.24,264.369 2857,291.5C 2874.06,324.12 2878.39,358.454 2870,394.5C 2857.46,440.028 2830.96,474.862 2790.5,499C 2744.47,524.475 2695.13,535.142 2642.5,531C 2630.15,529.479 2617.81,527.813 2605.5,526C 2594.95,524.077 2584.61,521.41 2574.5,518C 2572.09,514.957 2571.93,511.791 2574,508.5C 2601.75,490.095 2626.41,468.095 2648,442.5C 2682.58,399.715 2711.91,353.382 2736,303.5C 2744.24,288.523 2754.74,275.356 2767.5,264C 2774.04,259.394 2781.04,255.894 2788.5,253.5 Z"/></g>
<g><path style="opacity:1" fill="#f9f9f9" d="M 2957.5,261.5 C 2965.17,260.024 2969,263.024 2969,270.5C 2967.54,276.059 2964.04,277.892 2958.5,276C 2952.21,271.663 2951.87,266.829 2957.5,261.5 Z"/></g>
<g><path style="opacity:1" fill="#f9f9f9" d="M 853.5,275.5 C 861.712,274.226 865.546,277.559 865,285.5C 862.565,290.224 858.731,291.724 853.5,290C 848.232,285.171 848.232,280.337 853.5,275.5 Z"/></g>
<g><path style="opacity:1" fill="#68dae6" d="M 2096.5,296.5 C 2121.52,293.105 2141.02,301.771 2155,322.5C 2161.93,336.92 2160.59,350.586 2151,363.5C 2141.74,374.723 2130.24,382.89 2116.5,388C 2089.01,398.06 2060.68,401.393 2031.5,398C 2010.3,395.718 1989.47,391.885 1969,386.5C 1968.73,383.72 1969.9,381.554 1972.5,380C 1996.13,359.524 2020.13,339.524 2044.5,320C 2060.55,309.14 2077.88,301.307 2096.5,296.5 Z"/></g>
<g><path style="opacity:1" fill="#000301" d="M 3044.5,307.5 C 3047.12,307.232 3049.62,307.565 3052,308.5C 3054.3,325.618 3048.47,339.118 3034.5,349C 3006.51,358.049 2989.51,348.049 2983.5,319C 2983.83,318.667 2984.17,318.333 2984.5,318C 3004.69,314.802 3024.69,311.302 3044.5,307.5 Z"/></g>
<g><path style="opacity:1" fill="#020101" d="M 759.5,310.5 C 774.303,310.483 785.47,316.817 793,329.5C 799.924,340.173 801.257,351.506 797,363.5C 791.257,371.776 783.424,374.61 773.5,372C 752.878,362.368 743.711,346.201 746,323.5C 748.442,316.888 752.942,312.555 759.5,310.5 Z"/></g>
<g><path style="opacity:1" fill="#f4f4f4" d="M 763.5,340.5 C 771.665,339.175 775.498,342.509 775,350.5C 770.09,358.393 765.09,358.393 760,350.5C 759.182,346.469 760.349,343.136 763.5,340.5 Z"/></g>
<g><path style="opacity:1" fill="#10050b" d="M 906.5,351.5 C 908.384,351.712 909.717,352.712 910.5,354.5C 898.891,390.113 874.891,412.113 838.5,420.5C 835.994,420.779 833.994,419.946 832.5,418C 862.219,412.597 884.386,396.763 899,370.5C 902.067,364.37 904.567,358.036 906.5,351.5 Z"/></g>
<g><path style="opacity:1" fill="#060507" d="M 2472.5,353.5 C 2483.69,352.518 2489.35,357.685 2489.5,369C 2488.68,377.808 2485.01,385.141 2478.5,391C 2469.52,396.869 2462.68,395.036 2458,385.5C 2455.62,371.43 2460.46,360.763 2472.5,353.5 Z"/></g>
<g><path style="opacity:1" fill="#fafafa" d="M 2474.5,359.5 C 2480.3,359.81 2482.47,362.81 2481,368.5C 2475.77,373.154 2472.27,372.154 2470.5,365.5C 2470.67,362.674 2472,360.674 2474.5,359.5 Z"/></g>
<g><path style="opacity:1" fill="#060407" d="M 2535.5,379.5 C 2542.49,379.076 2547.32,382.076 2550,388.5C 2551.99,400.337 2548.49,410.17 2539.5,418C 2529.7,423.262 2522.86,420.762 2519,410.5C 2517.71,396.415 2523.21,386.081 2535.5,379.5 Z"/></g>
<g><path style="opacity:1" fill="#c2c5aa" d="M 278.5,382.5 C 279.322,384.389 280.155,386.389 281,388.5C 282.947,389.11 284.781,389.943 286.5,391C 282.453,391.381 279.953,393.547 279,397.5C 278.021,393.518 275.521,391.352 271.5,391C 275.837,389.829 278.17,386.996 278.5,382.5 Z"/></g>
<g><path style="opacity:1" fill="#e68fff" d="M 1297.5,385.5 C 1316.97,383.946 1335.97,386.112 1354.5,392C 1385.75,405.324 1398.58,428.824 1393,462.5C 1387.32,478.176 1377.82,491.01 1364.5,501C 1346.7,513.456 1328.37,525.123 1309.5,536C 1284.09,551.307 1261.93,570.474 1243,593.5C 1228.66,612.169 1218,632.836 1211,655.5C 1203.17,664.252 1196.84,663.252 1192,652.5C 1172.41,599.443 1170.41,545.777 1186,491.5C 1196.42,462.807 1212.25,437.64 1233.5,416C 1251.92,399.623 1273.25,389.456 1297.5,385.5 Z"/></g>
<g><path style="opacity:1" fill="#f4f4f4" d="M 2534.5,386.5 C 2541.87,385.529 2544.54,388.529 2542.5,395.5C 2538.19,399.613 2534.69,398.946 2532,393.5C 2531.33,392.167 2531.33,390.833 2532,389.5C 2533.04,388.627 2533.88,387.627 2534.5,386.5 Z"/></g>
<g><path style="opacity:1" fill="#edcb90" d="M 286.5,402.5 C 287.575,408.917 291.241,413.25 297.5,415.5C 291.158,417.508 287.658,421.841 287,428.5C 286.75,425.246 285.75,422.246 284,419.5C 281.122,417.49 277.956,416.157 274.5,415.5C 282.013,414.323 286.013,409.989 286.5,402.5 Z"/></g>
<g><path style="opacity:1" fill="#050305" d="M 2475.5,419.5 C 2483.38,418.5 2490.71,420 2497.5,424C 2503.27,428.369 2504.77,433.869 2502,440.5C 2492.8,447.129 2483.64,446.962 2474.5,440C 2466.24,432.595 2466.58,425.762 2475.5,419.5 Z"/></g>
<g><path style="opacity:1" fill="#ff7301" d="M 1456.5,449.5 C 1458.4,449.204 1460.07,448.537 1461.5,447.5C 1504.31,437.087 1547.64,429.587 1591.5,425C 1620.04,422.459 1647.71,426.126 1674.5,436C 1713.81,454.273 1725.98,483.773 1711,524.5C 1694.28,548.409 1671.45,557.576 1642.5,552C 1572.24,530.873 1508.57,497.706 1451.5,452.5C 1453.36,451.675 1455.03,450.675 1456.5,449.5 Z"/></g>
<g><path style="opacity:1" fill="#eecd94" d="M 385.5,432.5 C 387.437,434.091 389.437,435.758 391.5,437.5C 388.716,439.114 386.882,441.448 386,444.5C 385.744,440.41 383.578,438.077 379.5,437.5C 382.75,437.215 384.75,435.548 385.5,432.5 Z"/></g>
<g><path style="opacity:1" fill="#ff48b8" d="M 1912.5,438.5 C 1939.4,436.861 1958.56,448.194 1970,472.5C 1973.03,491.954 1966.53,507.454 1950.5,519C 1937.89,527.134 1924.23,532.8 1909.5,536C 1884.11,540.737 1858.78,540.404 1833.5,535C 1818.94,532.652 1804.78,529.152 1791,524.5C 1792.24,521.224 1794.4,518.391 1797.5,516C 1818.54,497.293 1839.87,478.959 1861.5,461C 1877.02,450.107 1894.02,442.607 1912.5,438.5 Z"/></g>
<g><path style="opacity:1" fill="#ff4eb5" d="M 1461.5,447.5 C 1460.07,448.537 1458.4,449.204 1456.5,449.5C 1457.64,447.787 1459.3,447.12 1461.5,447.5 Z"/></g>
<g><path style="opacity:1" fill="#c20201" d="M 2187.5,471.5 C 2226.59,468.348 2264.92,472.182 2302.5,483C 2327.86,490.915 2348.03,505.748 2363,527.5C 2376.94,555.849 2375.27,583.183 2358,609.5C 2334.56,634.071 2306.39,641.571 2273.5,632C 2190.3,597.931 2116.3,550.098 2051.5,488.5C 2064.96,484.641 2078.96,481.807 2093.5,480C 2124.92,476.449 2156.25,473.616 2187.5,471.5 Z"/></g>
<g><path style="opacity:1" fill="#bdc0a3" d="M 486.5,473.5 C 487.987,478.441 489.987,483.274 492.5,488C 497.225,491.576 502.558,493.576 508.5,494C 494.34,495.491 487.174,503.324 487,517.5C 486.07,512.27 484.404,507.27 482,502.5C 477.113,497.812 471.279,494.978 464.5,494C 469.754,493.083 474.754,491.416 479.5,489C 481.049,487.786 482.215,486.286 483,484.5C 484.018,480.751 485.185,477.084 486.5,473.5 Z"/></g>
<g><path style="opacity:1" fill="#fe7301" d="M 354.5,498.5 C 388.509,496.448 418.509,506.281 444.5,528C 497.273,579.629 520.44,642.462 514,716.5C 506.231,788.48 482.231,854.48 442,914.5C 439.468,917.372 437.635,917.039 436.5,913.5C 445.079,879.254 445.579,844.92 438,810.5C 431.245,787.48 418.412,768.647 399.5,754C 375.188,735.511 350.521,717.511 325.5,700C 307.391,685.945 291.891,669.445 279,650.5C 255.382,601.346 263.548,558.18 303.5,521C 318.714,509.323 335.714,501.823 354.5,498.5 Z"/></g>
<g><path style="opacity:1" fill="#ffc3ab" d="M 276.5,498.5 C 277.538,504.041 280.871,507.541 286.5,509C 281.222,510.61 278.056,514.11 277,519.5C 275.872,516.793 274.372,514.293 272.5,512C 269.743,511.122 267.076,510.122 264.5,509C 271.163,508.501 275.163,505.001 276.5,498.5 Z"/></g>
<g><path style="opacity:1" fill="#ffcc02" d="M 662.5,522.5 C 722.744,523.695 768.244,550.029 799,601.5C 822.88,644.681 835.38,691.014 836.5,740.5C 835.651,749.418 830.985,752.585 822.5,750C 817.668,740.828 811.001,733.161 802.5,727C 773.874,709.79 742.874,699.123 709.5,695C 694.194,692.814 678.861,690.814 663.5,689C 638.379,684.366 617.879,672.199 602,652.5C 589.316,634.088 584.649,613.755 588,591.5C 593.459,560.719 610.626,539.553 639.5,528C 647.135,525.445 654.802,523.612 662.5,522.5 Z"/></g>
<g><path style="opacity:1" fill="#ff7404" d="M 2007.5,532.5 C 2030.39,532.202 2038.56,542.868 2032,564.5C 2025.38,572.449 2017.55,578.949 2008.5,584C 1997.74,590.39 1986.41,595.057 1974.5,598C 1977.46,595.125 1979.3,591.625 1980,587.5C 1981.26,577.824 1982.59,568.157 1984,558.5C 1987.22,545.456 1995.05,536.789 2007.5,532.5 Z"/></g>
<g><path style="opacity:1" fill="#040201" d="M 396.5,536.5 C 414.947,536.81 427.781,545.477 435,562.5C 437.258,569.978 436.925,577.311 434,584.5C 426.575,592.765 417.742,594.599 407.5,590C 390.775,581.619 382.942,568.119 384,549.5C 386.353,543.315 390.52,538.982 396.5,536.5 Z"/></g>
<g><path style="opacity:1" fill="#f7f7f7" d="M 397.5,546.5 C 407.212,545.709 411.045,550.043 409,559.5C 406.252,563.619 402.419,565.119 397.5,564C 392.845,561.103 391.345,556.937 393,551.5C 394.025,549.313 395.525,547.646 397.5,546.5 Z"/></g>
<g><path style="opacity:1" fill="#c20302" d="M 2981.5,552.5 C 3005.6,550.38 3028.93,553.547 3051.5,562C 3081.89,578.29 3092.39,603.123 3083,636.5C 3071.78,658.876 3053.61,669.876 3028.5,669.5C 3010.08,668.75 2992.08,665.583 2974.5,660C 2924.22,645.087 2876.88,623.92 2832.5,596.5C 2852.36,586.919 2873.36,579.085 2895.5,573C 2923.86,564.243 2952.52,557.409 2981.5,552.5 Z"/></g>
<g><path style="opacity:1" fill="#f5f5f5" d="M 411.5,566.5 C 418.004,566.138 419.671,568.638 416.5,574C 409.745,574.756 408.078,572.256 411.5,566.5 Z"/></g>
<g><path style="opacity:1" fill="#67dae6" d="M 1503.5,567.5 C 1518.27,566.109 1531.93,569.276 1544.5,577C 1570.34,596.816 1585.84,622.983 1591,655.5C 1593.34,685.139 1587.01,712.805 1572,738.5C 1555.25,767.578 1532.75,791.078 1504.5,809C 1468.33,831.541 1428.99,843.874 1386.5,846C 1380.82,841.432 1379.99,835.932 1384,829.5C 1407.74,807.379 1424.4,780.713 1434,749.5C 1437.95,736.375 1440.95,723.042 1443,709.5C 1445.46,683.481 1448.12,657.481 1451,631.5C 1453.8,611.409 1462.3,594.242 1476.5,580C 1484.56,573.632 1493.56,569.465 1503.5,567.5 Z"/></g>
<g><path style="opacity:1" fill="#fe47b7" d="M 2608.5,577.5 C 2666.83,577.079 2712.33,600.745 2745,648.5C 2764.29,677.583 2769.29,708.916 2760,742.5C 2750.93,766.469 2735.76,785.635 2714.5,800C 2684.69,819.003 2652.02,827.169 2616.5,824.5C 2556.42,822.487 2497.42,813.32 2439.5,797C 2397.6,786.376 2356.94,772.376 2317.5,755C 2341.5,753.114 2363.17,745.114 2382.5,731C 2389.17,725.667 2395.83,720.333 2402.5,715C 2426.53,690.638 2450.86,666.638 2475.5,643C 2513.98,609.428 2558.31,587.595 2608.5,577.5 Z"/></g>
<g><path style="opacity:1" fill="#ffcd0d" d="M 2045.5,587.5 C 2052.17,587.334 2058.84,587.5 2065.5,588C 2068.97,588.301 2072.31,589.134 2075.5,590.5C 2076.52,591.002 2076.69,591.668 2076,592.5C 2056.8,608.592 2034.96,614.259 2010.5,609.5C 2019.64,598.003 2031.31,590.67 2045.5,587.5 Z"/></g>
<g><path style="opacity:1" fill="#c20201" d="M 1085.5,596.5 C 1122.87,593.748 1144.7,610.748 1151,647.5C 1151.31,696.05 1129.14,729.883 1084.5,749C 1051.9,757.311 1020.56,768.978 990.5,784C 974.905,792.552 961.072,803.385 949,816.5C 946.529,821.286 943.696,825.786 940.5,830C 932.307,832.165 928.974,828.999 930.5,820.5C 934.823,767.523 950.989,718.523 979,673.5C 1000.3,640.536 1029.13,616.703 1065.5,602C 1072.28,600.087 1078.95,598.254 1085.5,596.5 Z"/></g>
<g><path style="opacity:1" fill="#e58ffe" d="M 1883.5,597.5 C 1917.13,594.909 1948.46,602.076 1977.5,619C 2010.66,641.159 2020.16,670.992 2006,708.5C 1993.73,738.434 1973.89,761.934 1946.5,779C 1929.44,787.798 1911.44,793.798 1892.5,797C 1873.37,801.113 1854.03,803.78 1834.5,805C 1797.17,806.407 1759.84,807.741 1722.5,809C 1672.28,812.575 1623.94,824.075 1577.5,843.5C 1577.17,843.167 1576.83,842.833 1576.5,842.5C 1623.73,757.772 1689.06,690.606 1772.5,641C 1797.14,625.18 1823.48,612.846 1851.5,604C 1862.17,601.1 1872.83,598.934 1883.5,597.5 Z"/></g>
<g><path style="opacity:1" fill="#050301" d="M 321.5,600.5 C 344.859,601.693 358.193,613.86 361.5,637C 359.785,652.867 351.119,658.867 335.5,655C 321.67,649.171 312.837,639.004 309,624.5C 306.628,612.906 310.794,604.906 321.5,600.5 Z"/></g>
<g><path style="opacity:1" fill="#edcb90" d="M 548.5,602.5 C 549.459,608.617 553.126,611.784 559.5,612C 553.333,612.833 549.833,616.333 549,622.5C 548.167,616.333 544.667,612.833 538.5,612C 544.933,612.067 548.266,608.9 548.5,602.5 Z"/></g>
<g><path style="opacity:1" fill="#f6f6f6" d="M 322.5,610.5 C 331.817,609.984 335.65,614.317 334,623.5C 329.05,629.778 323.717,630.111 318,624.5C 316.19,618.519 317.69,613.852 322.5,610.5 Z"/></g>
<g><path style="opacity:1" fill="#040100" d="M 408.5,625.5 C 425.108,625.6 435.941,633.6 441,649.5C 441.667,654.167 441.667,658.833 441,663.5C 436.752,672.54 429.918,675.374 420.5,672C 405.783,664.732 398.616,652.899 399,636.5C 400.627,631.382 403.793,627.715 408.5,625.5 Z"/></g>
<g><path style="opacity:1" fill="#fecb02" d="M 1307.5,627.5 C 1349.55,623.762 1376.05,642.095 1387,682.5C 1395.74,710.335 1392.07,736.335 1376,760.5C 1353.13,790.368 1324.63,813.201 1290.5,829C 1274.32,835.726 1257.99,842.059 1241.5,848C 1205.01,859.942 1168.67,872.275 1132.5,885C 1127,885.557 1125.17,883.057 1127,877.5C 1139.19,831.267 1155.52,786.6 1176,743.5C 1194.21,707.946 1219.05,677.78 1250.5,653C 1267.62,640.134 1286.62,631.634 1307.5,627.5 Z"/></g>
<g><path style="opacity:1" fill="#f8f8f8" d="M 336.5,629.5 C 342.651,630.103 343.984,632.936 340.5,638C 335.504,638.664 333.67,636.498 335,631.5C 335.717,630.956 336.217,630.289 336.5,629.5 Z"/></g>
<g><path style="opacity:1" fill="#fecb01" d="M 2044.5,780.5 C 2058.37,778.268 2072.03,775.102 2085.5,771C 2080.83,770.333 2076.17,770.333 2071.5,771C 2062.58,773.366 2053.58,775.2 2044.5,776.5C 2042.49,748.432 2045.99,721.099 2055,694.5C 2069.86,659.654 2096.03,638.821 2133.5,632C 2183.5,627.409 2220,647.242 2243,691.5C 2253.99,718.381 2256.32,746.048 2250,774.5C 2232.53,838.642 2195.36,887.809 2138.5,922C 2074.77,958.054 2006.77,975.72 1934.5,975C 1944.62,969.44 1954.95,964.107 1965.5,959C 1991.82,944.348 2013.32,924.514 2030,899.5C 2036.95,886.322 2041.28,872.322 2043,857.5C 2044.31,831.852 2044.81,806.185 2044.5,780.5 Z"/></g>
<g><path style="opacity:1" fill="#bec1a4" d="M 221.5,638.5 C 222.929,642.664 224.595,646.831 226.5,651C 230.39,653.727 234.723,655.393 239.5,656C 228.804,656.363 222.971,661.863 222,672.5C 221.007,661.84 215.174,656.34 204.5,656C 209.328,654.842 213.828,653.008 218,650.5C 220.056,646.732 221.222,642.732 221.5,638.5 Z"/></g>
<g><path style="opacity:1" fill="#0d080e" d="M 1932.5,651.5 C 1938.85,654.427 1945.02,657.76 1951,661.5C 1952.07,664.553 1951.07,666.553 1948,667.5C 1944.33,665.5 1940.67,663.5 1937,661.5C 1934.39,665.219 1931.89,669.052 1929.5,673C 1925.65,673.685 1923.82,672.185 1924,668.5C 1927.37,663.09 1930.2,657.423 1932.5,651.5 Z"/></g>
<g><path style="opacity:1" fill="#040103" d="M 2600.5,657.5 C 2627.53,657.687 2638.69,671.02 2634,697.5C 2631,705.5 2628,705.5 2625,697.5C 2614.18,686.754 2602.01,684.92 2588.5,692C 2586.5,694 2584.5,696 2582.5,698C 2581.55,698.617 2580.72,698.451 2580,697.5C 2574.38,677.747 2581.21,664.414 2600.5,657.5 Z"/></g>
<g><path style="opacity:1" fill="#030200" d="M 1328.5,659.5 C 1342.54,661.365 1351.04,669.365 1354,683.5C 1355.29,691.509 1354.29,699.176 1351,706.5C 1342.75,714.334 1334.25,714.501 1325.5,707C 1316.46,696.326 1313.62,684.159 1317,670.5C 1319.44,665.226 1323.27,661.56 1328.5,659.5 Z"/></g>
<g><path style="opacity:1" fill="#f2f2f2" d="M 2589.5,666.5 C 2597.73,666.212 2600.06,669.712 2596.5,677C 2591.44,679.259 2588.1,677.759 2586.5,672.5C 2586.98,670.199 2587.98,668.199 2589.5,666.5 Z"/></g>
<g><path style="opacity:1" fill="#030102" d="M 2690.5,668.5 C 2718.43,667.078 2730.26,680.078 2726,707.5C 2723,715.5 2720,715.5 2717,707.5C 2702.68,694.022 2688.51,694.189 2674.5,708C 2673.55,708.617 2672.72,708.451 2672,707.5C 2666.33,688.842 2672.5,675.842 2690.5,668.5 Z"/></g>
<g><path style="opacity:1" fill="#f2f2f2" d="M 1328.5,668.5 C 1335.5,668.339 1339,671.672 1339,678.5C 1334.42,686.1 1329.42,686.433 1324,679.5C 1323.3,674.907 1324.8,671.241 1328.5,668.5 Z"/></g>
<g><path style="opacity:1" fill="#030201" d="M 1274.5,672.5 C 1289.07,673.894 1297.9,681.894 1301,696.5C 1303.62,707.202 1301.12,716.368 1293.5,724C 1287.66,726.248 1281.99,725.915 1276.5,723C 1261.67,709.559 1258.84,694.059 1268,676.5C 1270.31,675.267 1272.48,673.933 1274.5,672.5 Z"/></g>
<g><path style="opacity:1" fill="#09050a" d="M 1859.5,672.5 C 1864.89,674.693 1870.22,677.193 1875.5,680C 1879.51,682.801 1879.34,685.301 1875,687.5C 1870.95,685.89 1867.11,683.89 1863.5,681.5C 1860.84,684.801 1858.68,688.468 1857,692.5C 1852.81,694.305 1850.81,692.972 1851,688.5C 1853.66,683.024 1856.49,677.691 1859.5,672.5 Z"/></g>
<g><path style="opacity:1" fill="#feaac8" d="M 1972.5,678.5 C 1978.96,677.697 1984.96,678.864 1990.5,682C 1995.21,690.206 1993.55,696.872 1985.5,702C 1977.81,706.93 1969.81,707.597 1961.5,704C 1957.42,700.774 1955.92,696.607 1957,691.5C 1960.26,684.73 1965.42,680.397 1972.5,678.5 Z"/></g>
<g><path style="opacity:1" fill="#f4f4f4" d="M 2680.5,678.5 C 2687.56,677.725 2690.06,680.725 2688,687.5C 2684.75,691.367 2681.42,691.367 2678,687.5C 2676.78,683.718 2677.61,680.718 2680.5,678.5 Z"/></g>
<g><path style="opacity:1" fill="#130e01" d="M 2099.5,678.5 C 2110.49,677.772 2119.32,681.772 2126,690.5C 2127.19,692.044 2127.52,693.711 2127,695.5C 2126.28,696.451 2125.45,696.617 2124.5,696C 2115.12,682.587 2103.46,679.92 2089.5,688C 2089.04,687.586 2088.71,687.086 2088.5,686.5C 2091.35,682.589 2095.01,679.922 2099.5,678.5 Z"/></g>
<g><path style="opacity:1" fill="#f3f3f3" d="M 1275.5,681.5 C 1284.64,681.93 1287.64,686.264 1284.5,694.5C 1279.28,698.738 1274.78,698.071 1271,692.5C 1270.3,687.907 1271.8,684.241 1275.5,681.5 Z"/></g>
<g><path style="opacity:1" fill="#060401" d="M 2172.5,685.5 C 2186.39,684.712 2193.72,691.379 2194.5,705.5C 2194.46,717.409 2189.79,726.909 2180.5,734C 2171.12,738.096 2163.96,735.596 2159,726.5C 2153.83,709.467 2158.33,695.8 2172.5,685.5 Z"/></g>
<g><path style="opacity:1" fill="#ffc2ab" d="M 172.5,689.5 C 173.939,697.083 178.606,701.25 186.5,702C 178.707,703.293 174.041,707.793 172.5,715.5C 171.843,712.044 170.51,708.878 168.5,706C 165.326,704.275 161.993,702.942 158.5,702C 166.493,701.505 171.159,697.339 172.5,689.5 Z"/></g>
<g><path style="opacity:1" fill="#ff4bb9" d="M 880.5,698.5 C 897.766,698.257 903.599,706.257 898,722.5C 891.467,730.195 883.967,731.361 875.5,726C 866.271,714.753 867.938,705.586 880.5,698.5 Z"/></g>
<g><path style="opacity:1" fill="#feaac8" d="M 1852.5,708.5 C 1857.95,707.826 1862.95,708.992 1867.5,712C 1872.1,716.771 1872.6,721.938 1869,727.5C 1861.85,735.326 1853.02,738.159 1842.5,736C 1833.81,731.217 1832.31,724.717 1838,716.5C 1842.4,712.888 1847.23,710.221 1852.5,708.5 Z"/></g>
<g><path style="opacity:1" fill="#f2f2f2" d="M 2164.5,710.5 C 2172.59,709.737 2174.93,712.903 2171.5,720C 2164.74,722.243 2161.9,719.743 2163,712.5C 2163.72,711.956 2164.22,711.289 2164.5,710.5 Z"/></g>
<g><path style="opacity:1" fill="#0a060b" d="M 1926.5,727.5 C 1928.2,727.34 1929.87,727.506 1931.5,728C 1932.08,728.893 1932.41,729.893 1932.5,731C 1929.98,737.201 1926.82,743.034 1923,748.5C 1917.35,745.507 1911.68,742.507 1906,739.5C 1905.33,737.833 1905.33,736.167 1906,734.5C 1906.72,733.941 1907.56,733.608 1908.5,733.5C 1912.68,734.856 1916.52,736.856 1920,739.5C 1922.45,735.606 1924.61,731.606 1926.5,727.5 Z"/></g>
<g><path style="opacity:1" fill="#030200" d="M 1331.5,729.5 C 1347.21,729.052 1354.05,736.719 1352,752.5C 1351.25,762.848 1346.75,771.015 1338.5,777C 1327.82,780.936 1316.82,782.936 1305.5,783C 1294.7,777.514 1288.53,768.68 1287,756.5C 1285.22,745.223 1289.72,737.723 1300.5,734C 1310.95,732.329 1321.28,730.829 1331.5,729.5 Z"/></g>
<g><path style="opacity:1" fill="#ff47b8" d="M 541.5,913.5 C 524.11,919.87 506.777,926.203 489.5,932.5C 485.838,932.723 482.505,933.723 479.5,935.5C 477.901,935.768 476.568,935.434 475.5,934.5C 477.176,933.817 477.843,932.483 477.5,930.5C 482.879,913.738 489.379,897.405 497,881.5C 511.634,849.554 528.3,818.888 547,789.5C 560.627,770.871 577.127,755.371 596.5,743C 625.039,727.913 651.539,730.746 676,751.5C 696.327,777.433 696.661,803.767 677,830.5C 668.193,840.3 658.36,848.8 647.5,856C 613.725,878.054 578.391,897.221 541.5,913.5 Z"/></g>
<g><path style="opacity:1" fill="#0c0800" d="M 2105.5,739.5 C 2110.78,738.931 2115.78,739.765 2120.5,742C 2122.18,745.114 2121.35,747.281 2118,748.5C 2113.28,745.519 2108.95,745.852 2105,749.5C 2104.33,750.5 2104.33,751.5 2105,752.5C 2106.94,753.863 2109.11,754.697 2111.5,755C 2114.72,759.099 2113.72,761.433 2108.5,762C 2104.36,765.979 2104.69,769.645 2109.5,773C 2113.17,775 2116.83,775 2120.5,773C 2123.21,770.629 2125.54,767.963 2127.5,765C 2131.49,764.661 2132.99,766.494 2132,770.5C 2127.19,779.487 2119.69,782.987 2109.5,781C 2099.04,776.748 2096.04,769.415 2100.5,759C 2095.42,750.744 2097.08,744.244 2105.5,739.5 Z"/></g>
<g><path style="opacity:1" fill="#ffcc02" d="M 307.5,742.5 C 342.805,742.234 362.971,759.567 368,794.5C 368.667,806.5 368.667,818.5 368,830.5C 364.35,860.891 364.683,891.224 369,921.5C 373.641,949.124 384.641,973.791 402,995.5C 404.5,1005.66 400.666,1010.16 390.5,1009C 340.566,995.683 299.733,968.85 268,928.5C 253.481,907.956 243.815,885.289 239,860.5C 232.332,812.444 249.165,775.277 289.5,749C 295.391,746.205 301.391,744.039 307.5,742.5 Z"/></g>
<g><path style="opacity:1" fill="#0e0409" d="M 2618.5,745.5 C 2619.55,745.351 2620.55,745.517 2621.5,746C 2636.9,762.039 2652.73,762.539 2669,747.5C 2670.62,747.954 2671.79,748.954 2672.5,750.5C 2664.11,761.95 2652.78,766.45 2638.5,764C 2630.1,761.389 2622.94,756.889 2617,750.5C 2616.39,748.505 2616.89,746.838 2618.5,745.5 Z"/></g>
<g><path style="opacity:1" fill="#c6332e" d="M 2006.5,759.5 C 2013.53,757.894 2017.53,760.56 2018.5,767.5C 2016.51,776.147 2012.01,783.147 2005,788.5C 1996.41,784.241 1990.24,777.741 1986.5,769C 1987.99,762.582 1991.99,760.249 1998.5,762C 1999.67,763.167 2000.83,764.333 2002,765.5C 2003.33,763.34 2004.83,761.34 2006.5,759.5 Z"/></g>
<g><path style="opacity:1" fill="#c43134" d="M 2044.5,780.5 C 2038.21,780.51 2032.55,778.677 2027.5,775C 2033,776.209 2038.67,776.709 2044.5,776.5C 2053.58,775.2 2062.58,773.366 2071.5,771C 2076.17,770.333 2080.83,770.333 2085.5,771C 2072.03,775.102 2058.37,778.268 2044.5,780.5 Z"/></g>
<g><path style="opacity:1" fill="#ffcd17" d="M 833.5,776.5 C 842.802,776.634 846.969,781.3 846,790.5C 841.108,798.484 835.108,799.484 828,793.5C 824.106,785.96 825.939,780.293 833.5,776.5 Z"/></g>
<g><path style="opacity:1" fill="#e690ff" d="M 1068.5,807.5 C 1069.83,807.5 1071.17,807.5 1072.5,807.5C 1069.21,838.815 1052.21,857.482 1021.5,863.5C 1022.66,842.842 1031.99,827.009 1049.5,816C 1055.69,812.568 1062.02,809.734 1068.5,807.5 Z"/></g>
<g><path style="opacity:1" fill="#e58efe" d="M 921.5,896.5 C 899.506,890.381 877.173,888.548 854.5,891C 834.205,895.411 813.705,898.244 793,899.5C 777.014,898.141 761.18,895.641 745.5,892C 719.154,887.687 693.154,889.187 667.5,896.5C 698.139,836.178 747.139,811.345 814.5,822C 851.38,829.018 882.213,846.518 907,874.5C 912.6,881.376 917.433,888.71 921.5,896.5 Z"/></g>
<g><path style="opacity:1" fill="#ff7404" d="M 970.5,824.5 C 985.555,823.379 995.388,830.045 1000,844.5C 1003.26,860.204 1000.59,874.871 992,888.5C 986.254,896.917 979.754,904.75 972.5,912C 971.207,912.49 969.873,912.657 968.5,912.5C 969.997,905.127 969.83,897.794 968,890.5C 964.114,881.06 959.447,872.06 954,863.5C 946.886,845.07 952.386,832.07 970.5,824.5 Z"/></g>
<g><path style="opacity:1" fill="#ffcc05" d="M 2256.5,856.5 C 2284.74,852.577 2297.24,864.577 2294,892.5C 2289.85,905.637 2283.02,917.137 2273.5,927C 2248.54,948.437 2219.54,960.104 2186.5,962C 2185.45,960.612 2185.28,959.112 2186,957.5C 2196.92,949.907 2204.92,939.907 2210,927.5C 2215.26,914.475 2219.59,901.142 2223,887.5C 2229.59,872.069 2240.76,861.735 2256.5,856.5 Z"/></g>
<g><path style="opacity:1" fill="#ff7301" d="M 1842.5,857.5 C 1879.99,855.493 1896.16,873.16 1891,910.5C 1888.46,923.406 1881.96,933.906 1871.5,942C 1852.14,957.677 1830.14,968.01 1805.5,973C 1778.86,978.695 1752.19,984.195 1725.5,989.5C 1738.15,955.718 1755.98,925.052 1779,897.5C 1796.66,878.431 1817.82,865.097 1842.5,857.5 Z"/></g>
<g><path style="opacity:1" fill="#03c265" d="M 1322.5,878.5 C 1378.69,873.548 1412.52,898.548 1424,953.5C 1427.96,1007.18 1404.79,1043.35 1354.5,1062C 1327.76,1067.75 1301.09,1073.75 1274.5,1080C 1248.99,1087.09 1225.66,1098.42 1204.5,1114C 1200,1118.5 1195.5,1123 1191,1127.5C 1188.5,1132.35 1186,1137.18 1183.5,1142C 1176.97,1144.82 1172.14,1142.99 1169,1136.5C 1167.31,1075.63 1180.64,1018.3 1209,964.5C 1234.37,919.287 1272.2,890.62 1322.5,878.5 Z"/></g>
<g><path style="opacity:1" fill="#0e090f" d="M 921.5,896.5 C 924.571,896.923 927.405,897.923 930,899.5C 930.499,904.489 930.666,909.489 930.5,914.5C 926.515,916.321 923.681,919.321 922,923.5C 919.645,932.918 916.979,942.251 914,951.5C 906.126,967.351 893.293,976.184 875.5,978C 850.936,981.27 831.77,972.77 818,952.5C 813.879,943.683 810.213,934.683 807,925.5C 805.5,924 804,922.5 802.5,921C 798.167,920.333 793.833,920.333 789.5,921C 789,921.5 788.5,922 788,922.5C 784.333,931.5 780.667,940.5 777,949.5C 763.152,973.666 742.319,983.166 714.5,978C 703.714,976.689 694.214,972.522 686,965.5C 678.998,952.158 673.665,938.158 670,923.5C 666.968,919.641 663.802,915.974 660.5,912.5C 659.45,907.886 659.283,903.22 660,898.5C 662.382,897.446 664.882,896.779 667.5,896.5C 693.154,889.187 719.154,887.687 745.5,892C 761.18,895.641 777.014,898.141 793,899.5C 813.705,898.244 834.205,895.411 854.5,891C 877.173,888.548 899.506,890.381 921.5,896.5 Z"/></g>
<g><path style="opacity:1" fill="#e28dfb" d="M 716.5,895.5 C 736.572,893.484 755.572,896.984 773.5,906C 779.731,912.772 781.231,920.606 778,929.5C 766.359,966.58 741.526,980.08 703.5,970C 690.468,963.136 682.968,952.303 681,937.5C 679.012,928.922 678.345,920.255 679,911.5C 681.562,905.939 685.728,902.106 691.5,900C 699.834,897.656 708.167,896.156 716.5,895.5 Z"/></g>
<g><path style="opacity:1" fill="#e38dfc" d="M 847.5,895.5 C 864.29,894.953 880.957,896.12 897.5,899C 903.449,900.552 908.283,903.719 912,908.5C 914.698,924.367 912.698,939.7 906,954.5C 901.451,963.379 894.284,968.879 884.5,971C 848.919,978.468 825.753,964.968 815,930.5C 812.682,923.319 813.015,916.319 816,909.5C 817.873,907.291 820.04,905.458 822.5,904C 830.7,900.378 839.033,897.544 847.5,895.5 Z"/></g>
<g><path style="opacity:1" fill="#030203" d="M 722.5,908.5 C 735.672,908.153 743.838,914.486 747,927.5C 748.861,938.182 747.194,948.182 742,957.5C 735.749,964.011 728.582,965.177 720.5,961C 714.516,955.867 711.016,949.367 710,941.5C 707.03,927.551 711.197,916.551 722.5,908.5 Z"/></g>
<g><path style="opacity:1" fill="#050305" d="M 862.5,909.5 C 875.168,909.653 883.001,915.986 886,928.5C 888.81,938.731 887.477,948.398 882,957.5C 868.647,969.692 858.314,967.358 851,950.5C 847.365,939.995 847.698,929.662 852,919.5C 854.738,915.26 858.238,911.926 862.5,909.5 Z"/></g>
<g><path style="opacity:1" fill="#e58ffe" d="M 660.5,912.5 C 663.802,915.974 666.968,919.641 670,923.5C 673.665,938.158 678.998,952.158 686,965.5C 694.214,972.522 703.714,976.689 714.5,978C 742.319,983.166 763.152,973.666 777,949.5C 780.667,940.5 784.333,931.5 788,922.5C 788.5,922 789,921.5 789.5,921C 793.833,920.333 798.167,920.333 802.5,921C 804,922.5 805.5,924 807,925.5C 810.213,934.683 813.879,943.683 818,952.5C 831.77,972.77 850.936,981.27 875.5,978C 893.293,976.184 906.126,967.351 914,951.5C 916.979,942.251 919.645,932.918 922,923.5C 923.681,919.321 926.515,916.321 930.5,914.5C 941.395,940.814 944.895,968.148 941,996.5C 939.97,1005.95 938.304,1015.28 936,1024.5C 922.668,1064.16 912.001,1104.5 904,1145.5C 896.742,1184.52 896.742,1223.52 904,1262.5C 906.829,1272.99 910.829,1282.99 916,1292.5C 918.667,1295.17 921.333,1297.83 924,1300.5C 927.5,1315.35 921.667,1322.52 906.5,1322C 839.474,1287.22 780.64,1241.72 730,1185.5C 702.853,1154.24 681.52,1119.24 666,1080.5C 648.278,1034.07 643.945,986.4 653,937.5C 654.732,928.896 657.232,920.563 660.5,912.5 Z"/></g>
<g><path style="opacity:1" fill="#f6f6f6" d="M 723.5,917.5 C 732.377,917.193 735.877,921.193 734,929.5C 729.333,934.833 724.667,934.833 720,929.5C 718.745,924.738 719.912,920.738 723.5,917.5 Z"/></g>
<g><path style="opacity:1" fill="#ff7727" d="M 541.5,913.5 C 525.065,922.04 507.732,928.373 489.5,932.5C 506.777,926.203 524.11,919.87 541.5,913.5 Z"/></g>
<g><path style="opacity:1" fill="#f5f5f5" d="M 863.5,918.5 C 870.985,918.483 874.485,922.15 874,929.5C 869.408,935.679 864.408,936.012 859,930.5C 858.333,928.167 858.333,925.833 859,923.5C 860.366,921.638 861.866,919.972 863.5,918.5 Z"/></g>
<g><path style="opacity:1" fill="#c20302" d="M 1616.5,920.5 C 1652.78,919.619 1668.61,937.286 1664,973.5C 1661.24,987.518 1654.08,998.685 1642.5,1007C 1625.35,1020.28 1606.01,1028.95 1584.5,1033C 1558.86,1038.05 1533.2,1042.88 1507.5,1047.5C 1517.97,1016.56 1533.13,988.23 1553,962.5C 1569.88,941.826 1591.04,927.826 1616.5,920.5 Z"/></g>
<g><path style="opacity:1" fill="#67d9e5" d="M 2364.5,923.5 C 2398.26,920.353 2428.6,928.853 2455.5,949C 2469.39,960.954 2478.56,975.787 2483,993.5C 2485.07,1022.52 2473.57,1044.35 2448.5,1059C 2422.75,1068.87 2399.08,1065.21 2377.5,1048C 2366.86,1038.36 2356.53,1028.36 2346.5,1018C 2329.94,1002.78 2311.27,990.784 2290.5,982C 2281.71,978.801 2272.71,977.801 2263.5,979C 2257.93,974.259 2258.26,969.926 2264.5,966C 2294.47,943.844 2327.81,929.677 2364.5,923.5 Z"/></g>
<g><path style="opacity:1" fill="#fcf6d3" d="M 2387.5,932.5 C 2394.29,931.131 2398.12,933.798 2399,940.5C 2404.64,934.953 2409.97,935.286 2415,941.5C 2416.18,945.274 2415.35,948.441 2412.5,951C 2410.05,951.29 2407.71,951.956 2405.5,953C 2416.87,954.054 2419.54,959.387 2413.5,969C 2408.68,971.446 2404.51,970.613 2401,966.5C 2400.84,974.997 2396.67,978.164 2388.5,976C 2386.33,975.167 2384.83,973.667 2384,971.5C 2383.48,967.985 2383.81,964.652 2385,961.5C 2381.67,964.167 2378.33,964.167 2375,961.5C 2370.82,951.701 2373.98,946.535 2384.5,946C 2381.9,943.683 2381.07,940.85 2382,937.5C 2383.73,935.598 2385.56,933.931 2387.5,932.5 Z"/></g>
<g><path style="opacity:1" fill="#ff7636" d="M 477.5,930.5 C 477.843,932.483 477.176,933.817 475.5,934.5C 475.229,932.62 475.896,931.287 477.5,930.5 Z"/></g>
<g><path style="opacity:1" fill="#ff965d" d="M 489.5,932.5 C 486.495,934.277 483.162,935.277 479.5,935.5C 482.505,933.723 485.838,932.723 489.5,932.5 Z"/></g>
<g><path style="opacity:1" fill="#ff4ab8" d="M 1129.5,934.5 C 1132.26,934.744 1134.43,936.077 1136,938.5C 1153.98,957.765 1158.31,979.765 1149,1004.5C 1148.63,1005.91 1147.8,1006.91 1146.5,1007.5C 1128.66,993.176 1121.49,974.509 1125,951.5C 1125.72,945.599 1127.22,939.933 1129.5,934.5 Z"/></g>
<g><path style="opacity:1" fill="#ffdb7f" d="M 2392.5,948.5 C 2398.99,947.632 2401.49,950.299 2400,956.5C 2393.41,961.509 2390.08,959.842 2390,951.5C 2391.04,950.627 2391.88,949.627 2392.5,948.5 Z"/></g>
<g><path style="opacity:1" fill="#e690ff" d="M 1490.5,960.5 C 1491.83,960.5 1493.17,960.5 1494.5,960.5C 1491.2,991.82 1474.2,1010.49 1443.5,1016.5C 1444.68,995.832 1454.01,979.998 1471.5,969C 1477.69,965.568 1484.02,962.734 1490.5,960.5 Z"/></g>
<g><path style="opacity:1" fill="#6cdbe6" d="M 2239.5,975.5 C 2246.69,975.848 2249.52,979.515 2248,986.5C 2243.57,991.808 2239.24,991.808 2235,986.5C 2233.39,981.438 2234.89,977.772 2239.5,975.5 Z"/></g>
<g><path style="opacity:1" fill="#091010" d="M 2397.5,983.5 C 2406.5,982.112 2414.33,984.445 2421,990.5C 2421.78,992.319 2421.28,993.652 2419.5,994.5C 2409.82,984.174 2400.16,984.007 2390.5,994C 2389.55,994.483 2388.55,994.649 2387.5,994.5C 2387.49,992.692 2387.99,991.025 2389,989.5C 2391.74,987.248 2394.57,985.248 2397.5,983.5 Z"/></g>
<g><path style="opacity:1" fill="#100d10" d="M 835.5,985.5 C 838.88,985.179 839.713,986.179 838,988.5C 838.99,1011.72 828.157,1025.55 805.5,1030C 790.614,1033.56 776.614,1031.56 763.5,1024C 754.9,1016.52 751.233,1007.19 752.5,996C 771.83,995.247 791.164,994.581 810.5,994C 819.191,991.919 827.525,989.085 835.5,985.5 Z"/></g>
<g><path style="opacity:1" fill="#0b1213" d="M 2450.5,986.5 C 2459.63,985.903 2467.3,988.903 2473.5,995.5C 2473.11,996.72 2472.28,997.387 2471,997.5C 2460.42,987.89 2450.25,988.223 2440.5,998.5C 2439.5,998.167 2438.83,997.5 2438.5,996.5C 2441.59,992.073 2445.59,988.74 2450.5,986.5 Z"/></g>
<g><path style="opacity:1" fill="#ff48b8" d="M 2077.5,992.5 C 2098.84,991.639 2119.84,993.805 2140.5,999C 2163.11,1004.7 2180.28,1017.54 2192,1037.5C 2203.32,1065.04 2198.15,1088.88 2176.5,1109C 2160.83,1119.87 2143.5,1123.87 2124.5,1121C 2052.95,1099.9 1988.29,1066.23 1930.5,1020C 1951.3,1012.8 1972.63,1007.47 1994.5,1004C 2022.15,998.894 2049.81,995.061 2077.5,992.5 Z"/></g>
<g><path style="opacity:1" fill="#f7f7f7" d="M 830.5,992.5 C 832.62,996.953 831.62,1001.12 827.5,1005C 817.007,1006.65 817.007,1008.15 827.5,1009.5C 825.627,1017.54 820.627,1022.37 812.5,1024C 800.755,1026.2 789.088,1025.87 777.5,1023C 769.49,1021.31 763.49,1016.97 759.5,1010C 770.415,1011.21 781.415,1011.71 792.5,1011.5C 792.5,1010.5 792.5,1009.5 792.5,1008.5C 781.464,1007.73 770.464,1006.56 759.5,1005C 756.588,1004.15 755.588,1002.49 756.5,1000C 759.785,999.176 763.118,998.676 766.5,998.5C 788.582,1002.71 809.916,1000.71 830.5,992.5 Z"/></g>
<g><path style="opacity:1" fill="#67d9e5" d="M 179.5,995.5 C 199.344,994.743 219.01,996.243 238.5,1000C 285.026,1011.17 328.693,1029.17 369.5,1054C 391.207,1067.05 412.374,1080.88 433,1095.5C 436.178,1102.94 434.345,1108.78 427.5,1113C 408.83,1112.07 390.163,1112.41 371.5,1114C 329.62,1120.87 287.62,1126.87 245.5,1132C 215.192,1135.68 185.859,1132.01 157.5,1121C 125.576,1106.76 110.742,1082.26 113,1047.5C 119.04,1027.46 131.54,1012.96 150.5,1004C 159.973,1000.05 169.64,997.22 179.5,995.5 Z"/></g>
<g><path style="opacity:1" fill="#e68fff" d="M 1077.5,999.5 C 1098.72,1000.54 1113.55,1010.87 1122,1030.5C 1128.26,1050.53 1129.26,1070.86 1125,1091.5C 1123.3,1092.41 1121.47,1092.74 1119.5,1092.5C 1118.79,1086.62 1116.12,1081.78 1111.5,1078C 1107.19,1074.18 1102.52,1070.84 1097.5,1068C 1087.19,1063.51 1077.19,1058.51 1067.5,1053C 1055.08,1040.26 1053.24,1026.1 1062,1010.5C 1066.13,1005.2 1071.29,1001.54 1077.5,999.5 Z"/></g>
<g><path style="opacity:1" fill="#1ec46b" d="M 2204.5,1002.5 C 2210.99,1002.16 2212.99,1004.99 2210.5,1011C 2207.49,1013.22 2204.99,1012.72 2203,1009.5C 2202.17,1006.83 2202.67,1004.5 2204.5,1002.5 Z"/></g>
<g><path style="opacity:1" fill="#07c266" d="M 2226.5,1006.5 C 2254.28,1006.36 2279.95,1013.53 2303.5,1028C 2322,1041.49 2332.33,1059.66 2334.5,1082.5C 2332.42,1110.41 2317.42,1124.25 2289.5,1124C 2272.89,1120.05 2262.05,1109.89 2257,1093.5C 2254.02,1075.27 2250.02,1057.27 2245,1039.5C 2242.25,1033.68 2239.25,1028.01 2236,1022.5C 2232.89,1018.72 2229.22,1015.72 2225,1013.5C 2224.17,1010.83 2224.67,1008.5 2226.5,1006.5 Z"/></g>
<g><path style="opacity:1" fill="#ff49b8" d="M 560.5,1013.5 C 581.512,1011.91 594.679,1021.25 600,1041.5C 600.015,1055.25 601.015,1068.92 603,1082.5C 604.217,1091.21 608.217,1098.21 615,1103.5C 615.711,1105.37 615.211,1106.87 613.5,1108C 593.443,1105.2 575.443,1097.54 559.5,1085C 543.665,1071.83 536.832,1055 539,1034.5C 542.225,1023.33 549.392,1016.33 560.5,1013.5 Z"/></g>
<g><path style="opacity:1" fill="#020405" d="M 2425.5,1021.5 C 2436.81,1021.28 2440.31,1026.28 2436,1036.5C 2429.6,1041.16 2424.26,1040.16 2420,1033.5C 2418.87,1028.09 2420.71,1024.09 2425.5,1021.5 Z"/></g>
<g><path style="opacity:1" fill="#ff7506" d="M 449.5,1036.5 C 478.022,1036.16 498.189,1048.83 510,1074.5C 511.428,1079.74 509.428,1081.74 504,1080.5C 476.018,1077.78 457.851,1063.12 449.5,1036.5 Z"/></g>
<g><path style="opacity:1" fill="#ffcc05" d="M 1751.5,1037.5 C 1767.24,1036.19 1782.57,1038.03 1797.5,1043C 1826.07,1054.71 1832.23,1073.87 1816,1100.5C 1805.7,1116.08 1791.2,1125.24 1772.5,1128C 1746.33,1134.61 1720,1135.28 1693.5,1130C 1662.25,1124.42 1631.08,1118.58 1600,1112.5C 1599.32,1111.22 1599.48,1110.05 1600.5,1109C 1625.5,1090.36 1651.83,1073.69 1679.5,1059C 1702.51,1048.09 1726.51,1040.92 1751.5,1037.5 Z"/></g>
<g><path style="opacity:1" fill="#030606" d="M 186.5,1040.5 C 198.505,1040.33 210.505,1040.5 222.5,1041C 230.15,1051.15 231.317,1061.99 226,1073.5C 217.744,1081.24 209.244,1081.4 200.5,1074C 189.658,1065.28 184.992,1054.12 186.5,1040.5 Z"/></g>
<g><path style="opacity:1" fill="#ffccb7" d="M 2510.5,1039.5 C 2513.57,1039.18 2516.57,1039.52 2519.5,1040.5C 2512.74,1042.02 2506.08,1043.86 2499.5,1046C 2495.5,1046.67 2491.5,1046.67 2487.5,1046C 2485.22,1045.53 2483.22,1044.53 2481.5,1043C 2487.76,1043.58 2494.09,1043.58 2500.5,1043C 2504.16,1042.43 2507.5,1041.26 2510.5,1039.5 Z"/></g>
<g><path style="opacity:1" fill="#ff7404" d="M 1429.5,1046.5 C 1438.39,1046.04 1447.06,1047.2 1455.5,1050C 1469.9,1059.53 1472.4,1071.7 1463,1086.5C 1455.7,1094.9 1446.54,1098.07 1435.5,1096C 1426.05,1092.07 1416.38,1088.74 1406.5,1086C 1400.5,1085.33 1394.5,1085.33 1388.5,1086C 1386.99,1086.85 1385.49,1087.68 1384,1088.5C 1381.81,1087.94 1381.15,1086.61 1382,1084.5C 1393.33,1065.98 1409.17,1053.31 1429.5,1046.5 Z"/></g>
<g><path style="opacity:1" fill="#ffc4ac" d="M 2530.5,1021.5 C 2533.42,1025.6 2536.59,1029.6 2540,1033.5C 2542.26,1038.26 2541.6,1042.59 2538,1046.5C 2538.93,1039.66 2536.93,1033.66 2532,1028.5C 2531.05,1035.81 2530.38,1043.14 2530,1050.5C 2529.25,1056.79 2525.75,1059.62 2519.5,1059C 2516.65,1055.4 2517.31,1052.4 2521.5,1050C 2523.81,1049.5 2526.14,1049.34 2528.5,1049.5C 2528.87,1040.09 2529.54,1030.76 2530.5,1021.5 Z"/></g>
<g><path style="opacity:1" fill="#fe7302" d="M 1013.5,1032.5 C 1014.87,1032.34 1016.21,1032.51 1017.5,1033C 1007.9,1038.1 1001.9,1045.93 999.5,1056.5C 1002.88,1068.54 1010.88,1075.2 1023.5,1076.5C 1027.15,1075.7 1029.82,1073.53 1031.5,1070C 1034.68,1066.8 1038.34,1065.97 1042.5,1067.5C 1044.63,1072.56 1042.96,1075.73 1037.5,1077C 1034.58,1077.99 1031.58,1078.65 1028.5,1079C 1027.37,1080.75 1026.37,1082.59 1025.5,1084.5C 1063.91,1083.05 1089.08,1100.72 1101,1137.5C 1110.19,1176.8 1103.86,1213.47 1082,1247.5C 1056.18,1285.32 1023.35,1315.48 983.5,1338C 975.212,1339.29 972.045,1335.79 974,1327.5C 976.043,1325.79 977.71,1323.79 979,1321.5C 981.516,1315.74 983.182,1309.74 984,1303.5C 986.009,1281.46 984.009,1259.79 978,1238.5C 972.287,1219.41 966.287,1200.41 960,1181.5C 953.382,1149.79 962.215,1123.29 986.5,1102C 997.252,1093.97 1009.25,1088.63 1022.5,1086C 1023.67,1083.99 1024.34,1081.83 1024.5,1079.5C 1012.25,1078.39 1003.41,1072.39 998,1061.5C 996.775,1055.73 997.775,1050.4 1001,1045.5C 1004.7,1040.64 1008.86,1036.3 1013.5,1032.5 Z"/></g>
<g><path style="opacity:1" fill="#030405" d="M 156.5,1053.5 C 168.563,1057.56 176.063,1065.89 179,1078.5C 182.017,1089.27 178.851,1097.44 169.5,1103C 154.345,1103.74 144.012,1096.91 138.5,1082.5C 144.527,1072.82 150.527,1063.15 156.5,1053.5 Z"/></g>
<g><path style="opacity:1" fill="#f5f5f5" d="M 204.5,1053.5 C 213.421,1053.89 216.588,1058.23 214,1066.5C 204.472,1072.3 199.805,1069.64 200,1058.5C 201.193,1056.5 202.693,1054.84 204.5,1053.5 Z"/></g>
<g><path style="opacity:1" fill="#fff5ec" d="M 1038.5,1068.5 C 1039.5,1068.5 1040.5,1068.5 1041.5,1068.5C 1041.71,1070.14 1041.38,1071.64 1040.5,1073C 1027.83,1077.8 1027.16,1076.3 1038.5,1068.5 Z"/></g>
<g><path style="opacity:1" fill="#f6f6f6" d="M 154.5,1078.5 C 164.034,1078.24 167.201,1082.58 164,1091.5C 159.667,1095.5 155.333,1095.5 151,1091.5C 148.651,1086.2 149.817,1081.87 154.5,1078.5 Z"/></g>
<g><path style="opacity:1" fill="#111c1d" d="M 202.5,1098.5 C 209.752,1098.19 215.586,1100.86 220,1106.5C 220.667,1107.5 220.667,1108.5 220,1109.5C 211.646,1099.26 202.979,1098.93 194,1108.5C 191.521,1112.12 190.188,1116.12 190,1120.5C 189.217,1110.4 193.384,1103.07 202.5,1098.5 Z"/></g>
<g><path style="opacity:1" fill="#67d9e5" d="M 1931.5,1110.5 C 1967.78,1108.77 2000.45,1118.6 2029.5,1140C 2056.87,1163.64 2063.37,1192.14 2049,1225.5C 2027.1,1271.06 1991.6,1300.22 1942.5,1313C 1821.21,1339.58 1704.54,1326.24 1592.5,1273C 1647.25,1259.87 1698.25,1238.2 1745.5,1208C 1777.14,1185.17 1809.81,1163.84 1843.5,1144C 1871.38,1128.54 1900.72,1117.37 1931.5,1110.5 Z"/></g>
<g><path style="opacity:1" fill="#fe47b7" d="M 1356.5,1123.5 C 1390.87,1120.73 1424.2,1125.23 1456.5,1137C 1518.32,1164.81 1543.82,1212.31 1533,1279.5C 1519.87,1339.3 1483.7,1376.8 1424.5,1392C 1401.16,1396.6 1377.82,1396.6 1354.5,1392C 1320.83,1381.42 1286.83,1372.08 1252.5,1364C 1221.55,1356.98 1190.21,1353.98 1158.5,1355C 1139.06,1356.13 1120.39,1360.46 1102.5,1368C 1097.17,1372 1091.83,1376 1086.5,1380C 1074.53,1380.36 1069.03,1374.53 1070,1362.5C 1105.58,1292.91 1153.75,1233.41 1214.5,1184C 1256.55,1151.48 1303.88,1131.31 1356.5,1123.5 Z"/></g>
<g><path style="opacity:1" fill="#02c265" d="M 476.5,1126.5 C 537.803,1124.1 594.803,1138.6 647.5,1170C 705.633,1204.78 755.8,1248.95 798,1302.5C 801.52,1313.79 797.52,1320.79 786,1323.5C 779.318,1319.41 772.152,1316.25 764.5,1314C 748.925,1311.56 733.258,1310.9 717.5,1312C 683.081,1316.25 650.081,1325.58 618.5,1340C 591.451,1352.02 565.117,1365.36 539.5,1380C 499.716,1399.85 458.716,1402.85 416.5,1389C 368.257,1367.75 338.757,1331.25 328,1279.5C 321.711,1227.58 340.211,1187.08 383.5,1158C 412.24,1140.59 443.24,1130.09 476.5,1126.5 Z"/></g>
<g><path style="opacity:1" fill="#070403" d="M 1063.5,1136.5 C 1077.96,1135.12 1083.79,1141.45 1081,1155.5C 1076.98,1162.14 1071.15,1164.3 1063.5,1162C 1056.56,1158.2 1054.06,1152.37 1056,1144.5C 1058.03,1141.31 1060.53,1138.64 1063.5,1136.5 Z"/></g>
<g><path style="opacity:1" fill="#f8f8f8" d="M 1069.5,1139.5 C 1075.16,1138.68 1076.82,1140.85 1074.5,1146C 1068.74,1147.14 1067.07,1144.97 1069.5,1139.5 Z"/></g>
<g><path style="opacity:1" fill="#080301" d="M 1001.5,1143.5 C 1017.45,1142.6 1022.95,1149.6 1018,1164.5C 1012.44,1170.92 1005.94,1172.09 998.5,1168C 991.046,1158.69 992.046,1150.53 1001.5,1143.5 Z"/></g>
<g><path style="opacity:1" fill="#ededed" d="M 1006.5,1147.5 C 1011.21,1147.43 1012.87,1149.6 1011.5,1154C 1009.1,1156.15 1006.94,1155.98 1005,1153.5C 1004.25,1151.16 1004.75,1149.16 1006.5,1147.5 Z"/></g>
<g><path style="opacity:1" fill="#05090a" d="M 1941.5,1157.5 C 1944.04,1157.1 1946.21,1157.77 1948,1159.5C 1950.94,1166.96 1952.61,1174.63 1953,1182.5C 1951.06,1184.98 1948.9,1185.15 1946.5,1183C 1940.4,1179.2 1934.57,1175.03 1929,1170.5C 1928.41,1167.41 1929.75,1165.75 1933,1165.5C 1936.26,1166.63 1939.26,1168.3 1942,1170.5C 1941.92,1167.33 1941.42,1164.17 1940.5,1161C 1940.65,1159.74 1940.98,1158.58 1941.5,1157.5 Z"/></g>
<g><path style="opacity:1" fill="#b4013c" d="M 1386.5,1173.5 C 1395.5,1172.92 1401.34,1176.92 1404,1185.5C 1404.17,1189.21 1404.67,1192.88 1405.5,1196.5C 1411.36,1192.98 1417.69,1191.81 1424.5,1193C 1432.87,1196.91 1436.04,1203.41 1434,1212.5C 1430.79,1219.03 1425.62,1223.53 1418.5,1226C 1406.19,1230.31 1393.53,1232.81 1380.5,1233.5C 1377.59,1223.7 1375.42,1213.7 1374,1203.5C 1370.16,1189.78 1374.33,1179.78 1386.5,1173.5 Z"/></g>
<g><path style="opacity:1" fill="#040100" d="M 1045.5,1178.5 C 1053.66,1177.24 1060.5,1179.57 1066,1185.5C 1069.34,1196.49 1065.34,1202.82 1054,1204.5C 1047.85,1203.55 1041.68,1203.38 1035.5,1204C 1030.67,1206.08 1025.67,1207.58 1020.5,1208.5C 1014.92,1208.01 1012.75,1205.01 1014,1199.5C 1017.17,1193.67 1021.67,1189.17 1027.5,1186C 1033.48,1183.18 1039.48,1180.68 1045.5,1178.5 Z"/></g>
<g><path style="opacity:1" fill="#060606" d="M 1930.5,1252.5 C 1933.65,1252.74 1936.65,1253.57 1939.5,1255C 1943.54,1255.83 1947.54,1255.66 1951.5,1254.5C 1941.04,1240.78 1927.37,1233.11 1910.5,1231.5C 1912.3,1233.96 1913.63,1236.62 1914.5,1239.5C 1904.16,1229.65 1901.33,1217.98 1906,1204.5C 1910.09,1200.7 1914.92,1199.53 1920.5,1201C 1927.21,1207.37 1934.21,1213.37 1941.5,1219C 1952.77,1222.87 1964.1,1226.53 1975.5,1230C 1982.79,1238.36 1981.79,1245.69 1972.5,1252C 1967.07,1255.76 1961.07,1257.59 1954.5,1257.5C 1948.49,1257.09 1942.49,1256.59 1936.5,1256C 1934.27,1255.06 1932.27,1253.89 1930.5,1252.5 Z"/></g>
<g><path style="opacity:1" fill="#050a0a" d="M 2003.5,1199.5 C 2006.19,1199.34 2008.85,1199.5 2011.5,1200C 2014.17,1202.33 2014.17,1204.67 2011.5,1207C 2008.47,1207.54 2005.47,1208.21 2002.5,1209C 2005.42,1211.05 2008.26,1213.21 2011,1215.5C 2011.36,1218.49 2010.03,1220.49 2007,1221.5C 2000.93,1217.55 1994.77,1213.71 1988.5,1210C 1985.6,1206.84 1985.93,1204.18 1989.5,1202C 1994.43,1201.88 1999.1,1201.05 2003.5,1199.5 Z"/></g>
<g><path style="opacity:1" fill="#f0f0f0" d="M 1922.5,1204.5 C 1928.47,1212.3 1935.8,1218.47 1944.5,1223C 1953.45,1226.05 1962.45,1228.72 1971.5,1231C 1968.06,1233.32 1964.23,1234.49 1960,1234.5C 1945.91,1231.62 1934.25,1224.62 1925,1213.5C 1923.45,1210.69 1922.62,1207.69 1922.5,1204.5 Z"/></g>
<g><path style="opacity:1" fill="#fdf9fa" d="M 1409.5,1206.5 C 1417.86,1206.67 1421.03,1210.67 1419,1218.5C 1413.84,1224.06 1409.17,1223.73 1405,1217.5C 1403.78,1212.63 1405.28,1208.96 1409.5,1206.5 Z"/></g>
<g><path style="opacity:1" fill="#f746b3" d="M 1930.5,1252.5 C 1930.03,1251.09 1929.03,1250.43 1927.5,1250.5C 1924.88,1249.21 1922.55,1247.55 1920.5,1245.5C 1918.83,1243.17 1916.83,1241.17 1914.5,1239.5C 1913.63,1236.62 1912.3,1233.96 1910.5,1231.5C 1927.37,1233.11 1941.04,1240.78 1951.5,1254.5C 1947.54,1255.66 1943.54,1255.83 1939.5,1255C 1936.65,1253.57 1933.65,1252.74 1930.5,1252.5 Z"/></g>
<g><path style="opacity:1" fill="#b4013c" d="M 1473.5,1231.5 C 1481.89,1230.78 1487.39,1234.45 1490,1242.5C 1490.33,1246.83 1490.67,1251.17 1491,1255.5C 1497.08,1250.86 1503.91,1249.36 1511.5,1251C 1522.01,1256.88 1524.18,1265.04 1518,1275.5C 1508.82,1282.9 1498.32,1287.4 1486.5,1289C 1479.89,1290.21 1473.22,1290.71 1466.5,1290.5C 1465.32,1284.44 1463.82,1278.44 1462,1272.5C 1460.11,1263.58 1459.44,1254.58 1460,1245.5C 1462.02,1238.32 1466.52,1233.65 1473.5,1231.5 Z"/></g>
<g><path style="opacity:1" fill="#3e3d4a" d="M 1914.5,1239.5 C 1916.83,1241.17 1918.83,1243.17 1920.5,1245.5C 1917.5,1244.5 1915.5,1242.5 1914.5,1239.5 Z"/></g>
<g><path style="opacity:1" fill="#3b2636" d="M 1927.5,1250.5 C 1929.03,1250.43 1930.03,1251.09 1930.5,1252.5C 1928.97,1252.57 1927.97,1251.91 1927.5,1250.5 Z"/></g>
<g><path style="opacity:1" fill="#030102" d="M 1366.5,1258.5 C 1376.52,1257.02 1384.02,1260.69 1389,1269.5C 1391.94,1278.56 1396.77,1286.39 1403.5,1293C 1404.87,1293.87 1406.37,1294.37 1408,1294.5C 1416.13,1292.17 1423.46,1293.5 1430,1298.5C 1433.7,1306.18 1433.03,1313.51 1428,1320.5C 1419.59,1330.86 1408.76,1335.36 1395.5,1334C 1381.6,1330.64 1369.77,1323.8 1360,1313.5C 1348.19,1298.82 1346.52,1283.16 1355,1266.5C 1358.46,1263.19 1362.3,1260.53 1366.5,1258.5 Z"/></g>
<g><path style="opacity:1" fill="#fdf7f9" d="M 1501.5,1262.5 C 1508.99,1262.48 1512.49,1266.15 1512,1273.5C 1506.87,1280.07 1501.87,1280.07 1497,1273.5C 1495.78,1268.63 1497.28,1264.96 1501.5,1262.5 Z"/></g>
<g><path style="opacity:1" fill="#60010f" d="M 937.5,1475.5 C 951.094,1473.65 963.427,1476.65 974.5,1484.5C 998.946,1483.09 1023.45,1482.42 1048,1482.5C 1199.16,1484.9 1350.32,1486.4 1501.5,1487C 1514.4,1487.58 1520.9,1494.41 1521,1507.5C 1522.08,1516.4 1521.08,1525.07 1518,1533.5C 1515.28,1538.55 1511.11,1541.72 1505.5,1543C 1378.02,1540.36 1250.52,1539.86 1123,1541.5C 1073.15,1541.74 1023.31,1540.91 973.5,1539C 965.761,1535.37 962.261,1529.2 963,1520.5C 953.77,1512.4 943.936,1511.57 933.5,1518C 931.785,1523.79 929.285,1529.29 926,1534.5C 923.489,1536.56 920.656,1538.06 917.5,1539C 841.68,1537.74 765.847,1536.91 690,1536.5C 588.15,1538.29 486.317,1537.79 384.5,1535C 378.519,1532.56 375.352,1528.06 375,1521.5C 373.938,1509.71 374.605,1498.04 377,1486.5C 378.868,1482.48 382.035,1480.31 386.5,1480C 409.822,1479.03 433.156,1478.53 456.5,1478.5C 611.838,1481 767.171,1482.5 922.5,1483C 927.045,1479.39 932.045,1476.89 937.5,1475.5 Z"/></g>
</svg>
